<svg width="75" height="75" viewBox="0 0 75 75" fill="none" xmlns="http://www.w3.org/2000/svg">
<path d="M37.3946 6.28344C38.5566 6.28344 40.014 6.87046 40.854 8.00287C41.694 9.13528 41.9306 10.8686 41.1774 12.069C40.6551 12.8418 39.8668 13.3998 38.9598 13.6385C38.2038 13.8301 37.7348 13.6705 37.0908 14.066C36.6604 14.3468 36.3202 14.7442 36.1108 15.2109C34.1956 19.0161 35.1518 23.8247 35.1518 23.8247C37.1482 33.8692 38.5818 44.0151 40.4382 54.0861C40.609 55.0159 40.8456 56.4605 41.9166 57.8788C43.0296 59.3526 43.906 59.2874 44.5262 60.4656C45.5146 62.3446 44.8384 65.4504 43.2214 66.2428C43.0012 66.3544 42.7575 66.4129 42.5102 66.4135C41.4448 66.4135 40.3976 65.3657 38.131 65.3657C37.9784 65.3657 37.8202 65.3657 37.655 65.381C36.213 65.4698 35.5102 65.9014 34.8158 65.9014C34.5624 65.9009 34.3129 65.8404 34.0878 65.7252C32.8278 65.1104 32.349 63.3507 32.349 62.1045C32.349 60.2505 33.399 58.8807 33.7406 58.3964C35.0258 56.5743 36.1794 53.234 35.3044 46.5672C33.7518 36.8973 30.7152 18.1529 30.2784 17.008C30.2307 16.8854 30.1765 16.7655 30.116 16.6486C29.6078 15.6938 28.8196 15.4218 28.4486 15.0596C27.3706 14.0049 28.198 10.5772 29.528 10.2455C29.5954 10.2292 29.6644 10.2208 29.7338 10.2205C30.6424 10.2205 31.3116 11.7221 32.8978 11.7221H33.0112C33.0938 11.7221 34.2096 11.6527 34.9712 10.8394C36.2424 9.47806 35.0258 7.6143 36.0072 6.71642C36.3264 6.42499 36.829 6.28067 37.4072 6.28067M37.4072 4.89291C36.4468 4.89291 35.6348 5.17046 35.0608 5.69642C34.1312 6.54712 34.169 7.67814 34.1956 8.50246C34.2222 9.25879 34.2054 9.61267 33.9464 9.89022C33.6398 10.2177 33.1218 10.3176 32.9468 10.3287H32.9034C32.5156 10.3287 32.2286 10.1136 31.7554 9.7334C31.2528 9.32957 30.627 8.8272 29.7394 8.8272C29.5549 8.82727 29.371 8.84964 29.192 8.89381C28.1 9.17136 27.232 10.2274 26.7924 11.8081C26.4186 13.1709 26.4004 14.9999 27.4714 16.0477C27.663 16.2257 27.8706 16.3859 28.0916 16.5265C28.4248 16.7527 28.6894 16.9317 28.8826 17.2953C28.8952 17.3189 28.9358 17.4035 28.9694 17.4854C29.1304 18.0058 29.9368 21.9262 33.924 46.767C34.5792 51.7824 34.134 55.428 32.5982 57.6026L32.5436 57.679C32.1082 58.2896 30.9518 59.9091 30.9546 62.1073C30.9546 63.7837 31.6168 66.0652 33.4746 66.9644C33.8915 67.1742 34.3524 67.2836 34.82 67.2836C35.282 67.2678 35.7395 67.1884 36.1794 67.0477C36.689 66.8937 37.2145 66.7973 37.746 66.7604C37.8776 66.7521 38.0092 66.7479 38.1352 66.7479C39.2062 66.7479 39.9216 67.0352 40.6132 67.3141C41.2012 67.5514 41.8074 67.7957 42.5144 67.7957C42.9767 67.7948 43.4325 67.6874 43.8458 67.4821C44.8328 66.9977 45.614 66.0096 46.0452 64.6982C46.5898 63.044 46.4848 61.1733 45.7722 59.8189C45.3032 58.9279 44.7208 58.5074 44.207 58.1355C43.7594 57.8381 43.3652 57.4685 43.0408 57.042C42.2008 55.9318 41.9922 54.7772 41.8382 53.9306L41.82 53.8307C41.0262 49.5287 40.2968 45.1253 39.5912 40.8719C38.649 35.1821 37.6746 29.3091 36.5294 23.5513C36.521 23.5096 35.6964 19.1452 37.3694 15.8243C37.4661 15.5902 37.6271 15.3878 37.8342 15.24C37.9476 15.1706 38.0134 15.1595 38.3382 15.1304C38.6687 15.1068 38.9965 15.0552 39.3182 14.9763C40.5766 14.6503 41.6684 13.8736 42.3828 12.7962C43.4034 11.1711 43.2452 8.85912 41.9992 7.17716C41.4598 6.47573 40.7664 5.90526 39.9715 5.50901C39.1766 5.11275 38.3011 4.90111 37.4114 4.89014L37.4072 4.89291Z" fill="#21529A" style="fill:#21529A;fill:color(display-p3 0.1294 0.3216 0.6039);fill-opacity:1;"/>
<path d="M43.6505 60.9152C43.4391 60.5155 43.1955 60.3393 42.7923 60.0479C42.1528 59.6129 41.5896 59.0771 41.1249 58.4617C39.9517 56.9101 39.6591 55.3184 39.4841 54.3581L39.4659 54.2595C38.6679 49.9339 37.9371 45.525 37.2259 41.2604C36.2865 35.5942 35.3149 29.7421 34.1767 24.0134C34.1347 23.8025 33.1813 18.8274 35.2197 14.7765C35.5127 14.1492 35.978 13.6163 36.5623 13.2389C37.0288 12.9616 37.5586 12.8059 38.1023 12.7865C38.3056 12.7735 38.5074 12.7438 38.7057 12.6977C39.3715 12.5233 39.9522 12.118 40.3423 11.5555C40.8449 10.7548 40.7231 9.4739 40.0623 8.5788C39.4015 7.6837 38.2073 7.25488 37.3939 7.25488C36.9977 7.25488 36.7513 7.35064 36.6603 7.4339C36.5329 7.55047 36.5469 7.99733 36.5623 8.42754C36.5903 9.29488 36.6309 10.4828 35.6803 11.5014C34.6821 12.57 33.3115 12.6824 33.0469 12.6949C32.9937 12.6949 32.9419 12.6949 32.8901 12.6949C31.6399 12.6949 30.8321 12.0468 30.2427 11.5722C30.1724 11.5155 30.0901 11.4754 30.0019 11.4548C29.9137 11.4342 29.822 11.4338 29.7336 11.4534C29.6452 11.473 29.5624 11.5123 29.4915 11.5682C29.4206 11.6241 29.3635 11.6952 29.3243 11.7762C29.1856 12.0643 29.0831 12.3682 29.0191 12.681C28.8301 13.5733 28.9757 14.2172 29.1339 14.3727C29.2262 14.4482 29.323 14.5181 29.4237 14.5822C29.8563 14.875 30.5101 15.3177 30.9791 16.2004C31.0584 16.3517 31.129 16.5074 31.1905 16.6666C31.3193 17.0025 31.7113 18.0239 36.2683 46.4146V46.4284V46.4409C36.6771 49.562 36.6883 52.2695 36.2893 54.4691C35.9715 56.2468 35.3807 57.7553 34.5351 58.9529L34.4735 59.0417C34.1277 59.5247 33.3199 60.6571 33.3213 62.1031C33.3213 63.155 33.7413 64.4762 34.5127 64.8537C34.6032 64.903 34.7048 64.9292 34.8081 64.93C35.0558 64.9074 35.3001 64.8566 35.5361 64.7787C36.2036 64.5819 36.8909 64.4586 37.5857 64.411C37.7663 64.3999 37.9483 64.3943 38.1247 64.3943C39.6647 64.3943 40.7217 64.8217 41.4973 65.134C41.9075 65.2991 42.2603 65.4421 42.5025 65.4421C42.6001 65.4419 42.6963 65.4181 42.7825 65.3727C43.1787 65.1784 43.5497 64.6552 43.7737 63.9724C44.1139 62.9316 44.0649 61.7021 43.6505 60.9152ZM40.0987 10.6868C40.1127 10.7812 40.1099 10.9796 39.6101 11.457C39.1817 11.8636 38.7939 12.2341 38.5447 12.112C38.3445 12.0135 38.3445 11.6457 38.3445 11.543C38.3511 11.3811 38.39 11.222 38.4589 11.0751C38.5279 10.9281 38.6256 10.7961 38.7463 10.6868C39.0095 10.437 39.5317 10.14 39.8663 10.3454C39.9273 10.3826 39.9797 10.4323 40.0197 10.4912C40.0598 10.5501 40.0867 10.6168 40.0987 10.6868ZM37.0789 8.09309C37.146 7.99328 37.2484 7.92199 37.3659 7.89325C38.1429 7.64207 39.1313 8.58713 39.1775 8.63431C39.4141 8.86607 39.9657 9.4059 39.8103 9.77505C39.7179 9.99709 39.4631 9.93603 38.7183 10.2316C37.9735 10.5272 37.7607 10.777 37.4807 10.659C37.2007 10.5411 37.0985 10.1234 37.0789 10.0318C36.9711 9.52941 37.3071 9.39619 37.2189 8.86329C37.1629 8.49276 36.9599 8.30264 37.0789 8.09309ZM36.1647 11.5625C36.2249 11.3987 36.3047 11.4237 36.4447 11.203C36.6687 10.8506 36.6085 10.5522 36.7247 10.5328C36.8409 10.5133 36.8647 10.7465 37.1125 10.9158C37.4625 11.1573 37.8013 10.9644 37.9525 11.1753C38.0435 11.3141 37.9133 11.4029 37.9525 11.7554C37.9917 12.1079 38.1513 12.2092 38.0799 12.3341C37.9917 12.4881 37.7467 12.359 37.3113 12.5214C37.0215 12.631 36.9865 12.7407 36.8157 12.7254C36.5623 12.7046 36.3957 12.434 36.3201 12.3091C36.2515 12.2078 36.0485 11.8817 36.1591 11.5597L36.1647 11.5625ZM34.2257 12.7768C34.3139 12.6047 34.6569 12.7768 35.0559 12.563C35.3961 12.3743 35.4549 12.0746 35.6243 12.1065C35.7209 12.1245 35.7251 12.2244 35.9309 12.5783C36.1367 12.9322 36.2333 13.0057 36.1927 13.0959C36.1521 13.1861 35.9953 13.1875 35.7167 13.2181C34.9383 13.3027 34.8179 13.4817 34.5645 13.3568C34.3111 13.2319 34.1501 12.9225 34.2257 12.774V12.7768ZM31.7687 12.9738C32.2363 12.7573 33.0161 13.2306 33.4585 13.0196C33.4926 12.9992 33.5306 12.986 33.5701 12.9807C33.6096 12.9755 33.6497 12.9783 33.6881 12.9891C33.7491 13.0227 33.7972 13.0753 33.8251 13.1388C33.8529 13.2022 33.8589 13.273 33.8421 13.3402C33.7861 13.5248 33.5229 13.479 33.2737 13.6594C32.9083 13.9258 33.0777 14.3186 32.7823 14.603C32.4631 14.9097 31.7589 14.943 31.4299 14.603C31.0057 14.1617 31.2997 13.1889 31.7687 12.971V12.9738ZM30.8153 13.7204C30.5353 14.2575 30.7453 14.7016 30.5703 14.7557C30.4499 14.7932 30.3995 14.5711 29.9865 14.3394C29.7807 14.2256 29.6449 14.2006 29.5567 14.0493C29.5014 13.947 29.4798 13.83 29.4951 13.7149C29.5427 13.0501 29.6155 12.0357 29.9249 12.0093C30.0131 12.001 30.0509 12.0801 30.2469 12.2522C30.4727 12.4504 30.7264 12.615 31.0001 12.7407C31.0657 12.8205 31.1082 12.9164 31.1233 13.0182C31.1597 13.2805 30.9609 13.4332 30.8153 13.7177V13.7204ZM31.6077 16.4612C31.3879 15.9228 31.0225 15.8132 30.9945 15.3108C30.9945 15.2428 30.9791 15.0055 31.0897 14.9528C31.2395 14.882 31.4075 15.2484 31.7897 15.3413C32.2279 15.4454 32.4673 15.0874 32.7151 15.2331C32.9363 15.3621 32.7739 15.6633 33.0441 16.1185C33.2583 16.4779 33.4641 16.4779 33.4837 16.6944C33.5061 17.0344 33.0063 17.3383 32.6843 17.4563C32.4939 17.5257 32.1131 17.6658 31.8681 17.4868C31.6231 17.3078 31.8303 17.0039 31.6077 16.4612ZM33.6545 23.0795C33.4809 23.3348 33.0119 23.4278 32.7935 23.2612C32.6073 23.1225 32.7459 22.8949 32.6773 22.1108C32.6297 21.5557 32.5205 21.2212 32.6773 21.1227C32.7599 21.0714 32.8173 21.1394 33.0973 21.113C33.3465 21.0894 33.4011 21.0256 33.4753 21.0658C33.6153 21.1408 33.5411 21.4377 33.5425 21.8416C33.5523 22.6035 33.8323 22.8144 33.6545 23.0753V23.0795ZM33.5719 18.9398C33.5229 19.8751 33.7455 20.2096 33.4823 20.4746C33.3358 20.5986 33.1516 20.6702 32.9592 20.678C32.7668 20.6858 32.5773 20.6294 32.4211 20.5177C32.1873 20.3137 32.3595 20.0764 32.2013 19.1299C32.1145 18.6178 32.0263 18.4652 32.1411 18.2834C32.2713 18.078 32.4687 18.1349 32.9517 17.8879C33.4347 17.6408 33.5747 17.4063 33.6895 17.4715C33.8575 17.5479 33.6167 18.053 33.5719 18.9356V18.9398ZM33.2737 14.7765C33.3395 14.3602 33.6055 13.8217 33.9653 13.7718C34.1529 13.7454 34.2019 13.8731 34.5645 13.9106C34.9271 13.948 35.1903 13.837 35.2253 13.9106C35.2603 13.9841 35.0993 14.0701 34.9635 14.2145C34.6695 14.5267 34.6961 14.7946 34.5029 15.3247C34.3335 15.7882 34.1459 16.2961 33.9037 16.3141C33.5915 16.3225 33.1575 15.5079 33.2737 14.7682V14.7765ZM41.0353 60.0687C41.2313 59.737 41.1361 59.4053 41.2537 59.3748C41.3251 59.3609 41.3783 59.4775 41.5491 59.6426C41.6819 59.7708 41.8334 59.8784 41.9985 59.9618C42.2248 60.0746 42.4364 60.2145 42.6285 60.3781C42.9505 60.6557 43.1605 60.8333 43.1885 61.072C43.2445 61.6535 42.1077 62.339 41.6597 62.0906C41.4441 61.9727 41.5015 61.7021 41.2089 61.5564C40.9163 61.4106 40.6209 61.5341 40.5663 61.4023C40.5425 61.344 40.5999 61.3107 40.6307 61.1858C40.6951 60.9291 40.5145 60.8167 40.5411 60.6127C40.5649 60.3643 40.8393 60.392 41.0353 60.0604V60.0687ZM39.8089 57.6554C40.1995 58.3701 40.6139 58.3298 40.7483 58.921C40.8631 59.4261 40.7049 60.0964 40.2905 60.3296C39.5793 60.7279 38.1219 59.823 37.9301 58.8488C37.8377 58.3728 38.1149 58.2355 38.0267 57.4167C37.9651 56.8394 37.7943 56.6118 37.9553 56.2718C38.0209 56.1321 38.1183 56.0093 38.2397 55.913C38.3611 55.8167 38.5034 55.7495 38.6553 55.7167C38.7992 55.6829 38.9499 55.6911 39.0893 55.7403C39.5779 55.9429 39.3147 56.7422 39.8089 57.647V57.6554ZM39.8719 61.6466C39.5919 61.8922 39.1229 62.0337 38.8457 61.8506C38.6455 61.7187 38.7463 61.548 38.4691 61.1886C38.2591 60.9194 38.1289 60.9194 38.0575 60.714C37.9707 60.4614 38.0477 60.1075 38.2115 60.052C38.4453 59.9743 38.6049 60.5849 39.2559 60.8333C39.7235 61.011 40.0693 60.8597 40.1631 61.0526C40.2569 61.2455 40.0133 61.5119 39.8719 61.6382V61.6466ZM38.3697 51.3924C38.6273 51.4604 38.4705 52.1862 38.6903 53.209C38.8947 54.1624 39.2167 54.4053 39.0389 54.8244C38.8345 55.3087 37.8755 55.7486 37.8755 55.4308C37.8755 54.9853 38.1429 53.9709 37.5227 53.3131C37.2989 53.1003 37.1303 52.837 37.0313 52.5457C36.9501 52.3181 36.9725 52.0044 37.1475 51.8518C37.2791 51.7408 37.3897 51.8088 37.6725 51.7366C38.1191 51.6145 38.2101 51.3411 38.3697 51.3841V51.3924ZM36.9375 48.8667C36.9375 48.363 36.9823 48.2339 37.0775 48.1312C37.2679 47.9161 37.6473 47.8259 37.8475 47.9675C38.0477 48.109 37.9301 48.3657 38.0127 49.0027C38.1121 49.7604 38.3291 49.8354 38.2605 50.2517C38.1765 50.7652 37.7593 51.2592 37.4905 51.2065C37.2987 51.169 37.2189 50.8582 37.0705 50.3072C36.9576 49.8329 36.9129 49.3451 36.9375 48.8584V48.8667ZM36.5511 55.929C36.8129 54.9146 36.6911 54.2859 36.9011 54.2498C37.0663 54.2193 37.3015 54.6092 37.3995 54.9437C37.5101 55.3212 37.4219 55.539 37.3743 56.0317C37.2707 57.11 37.5633 57.4486 37.3001 57.6873C37.0369 57.926 36.3607 57.858 36.1535 57.5388C35.9463 57.2196 36.2991 56.9185 36.5511 55.929ZM35.1273 59.1569C35.2385 58.98 35.335 58.7943 35.4157 58.6018C35.4797 58.4541 35.5358 58.3031 35.5837 58.1494C35.5943 58.1141 35.6122 58.0813 35.6362 58.0532C35.6603 58.0251 35.69 58.0022 35.7234 57.986C35.7568 57.9698 35.7933 57.9607 35.8304 57.9592C35.8676 57.9577 35.9047 57.9639 35.9393 57.9773C36.1095 58.0446 36.2834 58.1025 36.4601 58.1508C36.9781 58.2896 37.0201 58.2299 37.2049 58.3354C37.7789 58.6546 37.7243 59.6995 37.7173 59.8189C37.7033 60.0964 37.6753 60.6515 37.2819 61.0387C36.6155 61.6882 35.4115 61.3524 34.7941 60.8264C34.6331 60.6876 34.3741 60.4684 34.3573 60.1325C34.3391 59.8272 34.7325 59.7759 35.1273 59.1569ZM34.6471 63.8684C34.1977 63.8489 33.9345 62.8733 33.8743 62.6471C33.6601 61.8547 33.7119 60.8528 34.0423 60.7556C34.2117 60.707 34.4049 60.9083 34.7185 61.2344C35.1091 61.641 35.4185 61.963 35.4675 62.432C35.5389 63.1037 35.0559 63.885 34.6471 63.8684ZM38.2577 63.8919C37.9133 64.1695 37.5717 63.7948 36.4503 63.9697C35.7853 64.0737 35.3513 64.2916 35.2701 64.1515C35.1889 64.0113 35.5655 63.8295 35.7475 63.3188C35.9981 62.6138 35.5879 62.1323 35.8721 61.8381C36.0597 61.6438 36.2627 61.8214 36.8521 61.6813C37.5227 61.5217 37.6403 61.1983 37.9063 61.2649C38.5125 61.4245 38.8989 63.3674 38.2591 63.8919H38.2577ZM40.4487 64.404C40.1463 64.4581 40.0595 64.1709 39.4561 64.0723C39.0277 64.0016 38.8247 64.107 38.7309 63.9724C38.6077 63.7948 38.9339 63.5672 38.9661 63.0329C38.9927 62.5972 38.7953 62.3973 38.9325 62.2475C39.0697 62.0976 39.2727 62.2697 39.6577 62.1378C39.9685 62.0296 39.9671 61.8741 40.2373 61.8061C40.3741 61.7729 40.5169 61.7715 40.6544 61.8021C40.7918 61.8327 40.9203 61.8944 41.0297 61.9824C41.3979 62.3044 41.2761 62.8928 41.2075 63.2217C41.1851 63.3299 40.9821 64.3083 40.4487 64.404ZM42.3737 65.0785C42.1791 65.0715 42.1679 64.9397 41.6933 64.7773C41.2733 64.6288 41.0479 64.6386 41.0157 64.5137C40.9835 64.3888 41.1823 64.3374 41.3335 64.021C41.4637 63.7504 41.4091 63.6047 41.5211 63.5506C41.6331 63.4964 41.7563 63.681 42.0811 63.774C42.3364 63.8301 42.6013 63.8272 42.8553 63.7657C43.3005 63.6963 43.4055 63.5825 43.4685 63.6422C43.6519 63.8184 43.0023 65.1007 42.3737 65.0785ZM43.6841 63.0399C43.4419 63.4382 42.8833 63.4451 42.4115 63.4562C42.3555 63.4562 41.6471 63.4645 41.5715 63.223C41.5435 63.1273 41.6317 63.0482 41.6275 62.7901C41.6275 62.6374 41.5925 62.636 41.6079 62.5847C41.6863 62.3182 42.4479 62.5555 42.9001 62.1503C43.1465 61.931 43.1801 61.6285 43.3383 61.6424C43.4027 61.6424 43.4601 61.709 43.5357 61.8755C43.7065 62.228 43.9095 62.6735 43.6841 63.0399Z" fill="#21529A" style="fill:#21529A;fill:color(display-p3 0.1294 0.3216 0.6039);fill-opacity:1;"/>
</svg>
