<svg width="69" height="69" viewBox="0 0 69 69" fill="none" xmlns="http://www.w3.org/2000/svg">
<rect width="69" height="69" rx="34.5" fill="#CBD5E1" style="fill:#CBD5E1;fill:color(display-p3 0.7961 0.8353 0.8824);fill-opacity:1;"/>
<path d="M47.5103 48.9475C45.6578 43.3975 47.1578 39.4375 49.0478 35.9875C51.3128 31.8475 51.9953 27.8875 51.1253 23.8675C49.3853 15.8125 42.3128 10 34.2728 10H34.1303C25.2128 10.075 17.9153 16.8325 17.1578 25.7125C17.0903 26.485 17.1353 27.2125 17.2853 27.88C17.4128 28.45 17.4503 29.29 16.9028 30.055C16.7528 30.265 16.5053 30.5575 16.2128 30.91C14.8103 32.605 12.4703 35.44 13.1078 37.4875C13.3703 38.32 14.0603 38.9125 15.1553 39.25C15.4478 39.5125 15.9878 40.105 16.1603 40.675C16.0553 40.9825 15.9203 41.5675 16.1978 42.13C16.2953 42.325 16.4603 42.5575 16.7603 42.7525C16.6028 42.9925 16.4828 43.2925 16.4603 43.63C16.4378 43.96 16.5128 44.4325 16.9328 44.9275C16.5203 45.685 15.8153 47.365 16.5878 48.82C17.3678 50.29 19.3778 51.0325 22.5578 51.0325C24.0053 51.0325 25.2803 50.8675 26.4053 50.605C26.6828 52.0375 27.5753 55.6375 29.8253 57.835C29.9303 57.9475 30.0728 58 30.2153 58C30.3578 58 30.1853 50.0275 32.3228 45.6175C32.0753 45.955 31.7978 46.285 31.4828 46.6075C30.0053 48.115 27.2603 49.9075 22.5578 49.9075C19.8653 49.9075 18.1478 49.3525 17.5853 48.295C16.8878 46.99 18.0878 45.175 18.1028 45.1525C18.2603 44.92 18.2153 44.605 18.0053 44.4175C17.7128 44.1625 17.5703 43.9225 17.5778 43.705C17.6003 43.39 17.9303 43.09 18.0578 43.0075C18.2453 42.88 18.3353 42.6475 18.2903 42.43C18.2453 42.205 18.0728 42.0325 17.8478 41.9875C17.6153 41.9425 17.3078 41.8375 17.2028 41.635C17.0903 41.41 17.2103 41.065 17.2553 40.9675C17.3078 40.855 17.3228 40.735 17.3003 40.615C17.0828 39.4225 15.9353 38.425 15.8003 38.3125C15.7403 38.26 15.6653 38.2225 15.5903 38.2C14.7953 37.9825 14.3378 37.6375 14.1878 37.1575C13.7228 35.6875 15.9053 33.0475 17.0828 31.63C17.3903 31.255 17.6528 30.94 17.8178 30.7075C18.6428 29.5525 18.5228 28.285 18.3803 27.64C18.2528 27.0775 18.2228 26.4625 18.2753 25.81C18.9878 17.5075 25.8053 11.1925 34.1453 11.125H34.2728C41.7878 11.125 48.4028 16.5625 50.0228 24.1075C50.8328 27.85 50.1878 31.555 48.0578 35.4475C46.7978 37.7425 44.1803 42.5275 46.4378 49.3075C48.5453 55.6225 54.9803 57.025 54.6878 56.9125C54.6353 56.89 49.4453 54.7525 47.5103 48.9475Z" fill="#21529A" style="fill:#21529A;fill:color(display-p3 0.1294 0.3216 0.6039);fill-opacity:1;"/>
<path d="M47.3604 29.1775C47.3604 28.9375 47.3304 28.6975 47.2704 28.4575C47.8029 27.895 48.1029 27.1525 48.1029 26.3725C48.1029 25.3075 47.5629 24.3475 46.6854 23.785C46.8129 23.455 46.8729 23.1025 46.8729 22.7425C46.8729 21.415 46.0179 20.26 44.7954 19.84C44.5404 18.3925 43.2879 17.3125 41.7729 17.3125C41.5779 17.3125 41.3904 17.3275 41.2029 17.365C40.7979 16.12 39.6279 15.22 38.2779 15.22C37.6779 15.22 37.0929 15.3925 36.6054 15.7225C36.0279 15.04 35.1804 14.6425 34.2654 14.6425C33.4329 14.6425 32.6454 14.9875 32.0829 15.5725C31.5279 15.085 30.8079 14.8075 30.0579 14.8075C28.9179 14.8075 27.8829 15.4375 27.3579 16.42C27.2004 16.3975 27.0504 16.39 26.8929 16.39C25.2054 16.39 23.8254 17.77 23.8254 19.4725C23.8254 19.555 23.8254 19.645 23.8329 19.7275C22.8054 20.245 22.1454 21.3025 22.1454 22.5475C22.1379 22.6075 22.1304 22.69 22.1454 22.795C22.2879 25.135 23.9904 27.07 26.2179 27.5725C26.1954 27.7525 26.2554 27.9325 26.4054 28.06C26.5104 28.15 26.6379 28.1875 26.7654 28.1875C26.9304 28.1875 27.0879 28.12 27.2004 27.985C27.2679 27.9025 27.3354 27.82 27.4179 27.745C28.7304 26.4325 30.8679 26.4325 32.1804 27.745C32.8179 28.3825 33.1704 29.23 33.1704 30.1375C33.1704 31.0375 32.8254 31.885 32.1879 32.5225C32.1129 32.5975 32.0304 32.6725 31.9479 32.74C31.7079 32.935 31.6779 33.2875 31.8729 33.5275C31.9854 33.6625 32.1504 33.73 32.3079 33.73C32.4354 33.73 32.5629 33.6925 32.6679 33.6025C32.7804 33.5125 32.8854 33.415 32.9829 33.3175C33.2754 33.025 33.5154 32.7025 33.7104 32.35C34.0929 32.8975 34.6329 33.3325 35.2704 33.5725C35.3754 34.615 35.9529 35.5375 36.8454 36.085C36.8604 36.0925 36.8754 36.1 36.8904 36.115C37.0104 36.8125 37.1454 37.735 37.1829 38.59C37.2054 39.01 37.4379 39.3925 37.7904 39.61C38.0079 39.745 38.2479 39.8125 38.4954 39.8125C38.6604 39.8125 38.8329 39.7825 38.9904 39.715L39.7104 39.43C40.1754 39.2275 40.4754 38.7925 40.5054 38.3125C40.5504 37.6075 40.7754 36.445 41.5104 34.96C41.5254 34.93 41.5404 34.9075 41.5479 34.885C43.2204 35.005 44.6304 33.7825 44.8254 32.1925C46.2654 31.9375 47.3604 30.6775 47.3604 29.1775ZM28.9704 21.655C29.2854 21.655 29.5329 21.91 29.5329 22.2175C29.5329 22.5325 29.2854 22.78 28.9704 22.78C27.8754 22.78 26.9829 21.8875 26.9829 20.7925C26.9829 19.69 27.8754 18.7975 28.9704 18.7975C29.2854 18.7975 29.5329 19.0525 29.5329 19.36C29.5329 19.675 29.2854 19.9225 28.9704 19.9225C28.4979 19.9225 28.1079 20.3125 28.1079 20.7925C28.1079 21.2725 28.4979 21.655 28.9704 21.655ZM31.9854 25.645C31.6779 25.645 31.4229 25.39 31.4229 25.0825C31.4229 24.7675 31.6779 24.52 31.9854 24.52C32.4654 24.52 32.8554 24.13 32.8554 23.65C32.8554 23.17 32.4654 22.78 31.9854 22.78C31.6779 22.78 31.4229 22.5325 31.4229 22.2175C31.4229 21.91 31.6779 21.655 31.9854 21.655C33.0879 21.655 33.9804 22.555 33.9804 23.65C33.9804 24.745 33.0879 25.645 31.9854 25.645ZM35.8479 25.48C35.6304 25.255 35.6304 24.9025 35.8479 24.6775C36.0729 24.46 36.1929 24.16 36.1929 23.845C36.1929 23.53 36.0729 23.2375 35.8554 23.0125C34.9554 22.12 34.9554 20.6575 35.8554 19.7575C36.0804 19.54 36.4329 19.54 36.6504 19.7575C36.8754 19.975 36.8754 20.335 36.6504 20.5525C36.1929 21.0175 36.1929 21.76 36.6504 22.2175C37.0779 22.6525 37.3179 23.23 37.3179 23.8525C37.3179 24.4675 37.0779 25.045 36.6429 25.48C36.5304 25.585 36.3879 25.645 36.2454 25.645C36.1029 25.645 35.9604 25.585 35.8479 25.48ZM40.0554 30.5875C39.7404 30.5875 39.4929 30.3325 39.4929 30.025C39.4929 29.545 39.1029 29.1625 38.6229 29.1625C38.1429 29.1625 37.7604 29.545 37.7604 30.025C37.7604 30.3325 37.5054 30.5875 37.1979 30.5875C36.8829 30.5875 36.6354 30.3325 36.6354 30.025C36.6354 28.93 37.5279 28.0375 38.6229 28.0375C39.7254 28.0375 40.6179 28.93 40.6179 30.025C40.6179 30.3325 40.3629 30.5875 40.0554 30.5875ZM41.5254 24.52C41.8329 24.52 42.0879 24.7675 42.0879 25.0825C42.0879 25.39 41.8329 25.645 41.5254 25.645C40.4304 25.645 39.5379 24.745 39.5379 23.65C39.5379 22.555 40.4304 21.655 41.5254 21.655C41.8329 21.655 42.0879 21.91 42.0879 22.2175C42.0879 22.5325 41.8329 22.78 41.5254 22.78C41.0454 22.78 40.6629 23.17 40.6629 23.65C40.6629 24.13 41.0454 24.52 41.5254 24.52Z" fill="#21529A" style="fill:#21529A;fill:color(display-p3 0.1294 0.3216 0.6039);fill-opacity:1;"/>
<path d="M26.6064 33.3175C26.7114 33.4225 26.8239 33.5275 26.9439 33.625C27.0489 33.7075 27.1764 33.7525 27.2964 33.7525C27.4614 33.7525 27.6189 33.685 27.7314 33.5425C27.9264 33.3025 27.8889 32.95 27.6489 32.7475C27.5589 32.68 27.4764 32.5975 27.3939 32.5225C27.3189 32.4475 27.2439 32.365 27.1764 32.2825C26.9739 32.0425 26.6214 32.0125 26.3814 32.215C26.1414 32.4175 26.1114 32.77 26.3139 33.01C26.4114 33.1075 26.5089 33.2125 26.6064 33.3175Z" fill="#21529A" style="fill:#21529A;fill:color(display-p3 0.1294 0.3216 0.6039);fill-opacity:1;"/>
<path d="M25.9344 29.1925C25.6269 29.155 25.3494 29.3875 25.3194 29.695C25.3044 29.845 25.2969 29.9875 25.2969 30.1375C25.2969 30.2875 25.3044 30.4299 25.3194 30.5799C25.3494 30.8724 25.5894 31.0899 25.8819 31.0899C25.8969 31.0899 25.9194 31.0899 25.9344 31.0899C26.2419 31.0599 26.4669 30.7825 26.4369 30.475C26.4294 30.3625 26.4219 30.25 26.4219 30.1375C26.4219 30.025 26.4294 29.92 26.4369 29.8075C26.4669 29.5 26.2419 29.2225 25.9344 29.1925Z" fill="#21529A" style="fill:#21529A;fill:color(display-p3 0.1294 0.3216 0.6039);fill-opacity:1;"/>
<path d="M29.4732 33.49C29.1657 33.46 28.8882 33.685 28.8582 33.9925C28.8282 34.3 29.0532 34.5775 29.3607 34.6075C29.5032 34.6225 29.6457 34.63 29.7882 34.63C29.9382 34.63 30.0882 34.6225 30.2382 34.6075C30.5457 34.5775 30.7707 34.3 30.7407 33.9925C30.7107 33.685 30.4257 33.46 30.1257 33.49C29.9157 33.5125 29.6907 33.5125 29.4732 33.49Z" fill="#21529A" style="fill:#21529A;fill:color(display-p3 0.1294 0.3216 0.6039);fill-opacity:1;"/>
<path d="M31.6719 30.13C31.6719 29.1025 30.8319 28.2625 29.7969 28.2625C28.7619 28.2625 27.9219 29.1025 27.9219 30.13C27.9219 31.165 28.7619 32.0124 29.7969 32.0124C30.8319 32.0124 31.6719 31.165 31.6719 30.13Z" fill="#21529A" style="fill:#21529A;fill:color(display-p3 0.1294 0.3216 0.6039);fill-opacity:1;"/>
</svg>
