<svg width="69" height="69" viewBox="0 0 69 69" fill="none" xmlns="http://www.w3.org/2000/svg">
<rect width="69" height="69" rx="34.5" fill="#CBD5E1" style="fill:#CBD5E1;fill:color(display-p3 0.7961 0.8353 0.8824);fill-opacity:1;"/>
<path d="M17.3581 11.2346C17.2766 11.3771 16.9713 12.1913 16.666 13.0259C16.381 13.8605 15.3021 16.2217 14.2843 18.237C12.3505 22.1045 11.5567 24.2215 11.1903 26.4607C10.376 31.6717 12.2081 36.4757 16.0553 39.1016C17.0324 39.7733 17.0731 39.8344 17.3377 41.2186C17.5005 42.0939 17.6023 44.1091 17.582 46.5111C17.5616 50.7858 17.2766 52.6992 16.0756 56.2004C15.3021 58.4192 15.3225 58.9281 16.1774 58.9281C16.727 58.9281 16.8288 58.806 17.3377 57.5846C18.0909 55.7933 18.844 52.8214 19.1086 50.5822C19.3936 48.3024 19.3936 44.1295 19.129 42.2567C19.0069 41.4832 18.9458 40.8115 18.9865 40.7911C19.0272 40.7504 19.7804 40.8522 20.676 41.0354C24.6658 41.8089 28.7776 40.4858 31.5664 37.4935C32.5638 36.435 33.5816 34.9287 33.5816 34.5216C33.5816 34.318 32.9302 33.7887 32.6656 33.7887C32.5027 33.7887 31.9124 34.3994 31.3628 35.1526C28.8794 38.4706 25.0729 40.1194 21.3885 39.4884C16.381 38.6538 12.6152 34.2162 12.6152 29.2087C12.6152 26.0739 13.2055 24.1808 15.8721 18.8273C18.5387 13.433 19.1901 11.4178 18.3962 11.1124C17.9077 10.9292 17.5413 10.9699 17.3581 11.2346Z" fill="#21529A" style="fill:#21529A;fill:color(display-p3 0.1294 0.3216 0.6039);fill-opacity:1;"/>
<path d="M51.5563 11.1328C50.8235 11.4178 51.5563 13.5348 54.1619 18.8273C56.2992 23.163 56.8488 24.5879 57.1745 26.6846C57.8259 30.5929 56.9506 33.7277 54.5283 36.3332C50.0907 41.0761 42.7423 40.5875 38.7729 35.2951C37.5923 33.7277 37.0427 33.4427 36.6356 34.1958C36.3302 34.7658 36.9613 35.9057 38.4472 37.4935C41.236 40.4858 45.3478 41.8089 49.3376 41.0354C50.2332 40.8522 50.9864 40.7504 51.0271 40.7911C51.0678 40.8115 51.0067 41.4832 50.8846 42.2567C50.62 44.1294 50.62 48.3024 50.905 50.5822C51.1696 52.8214 51.9227 55.7729 52.6759 57.5846C53.1441 58.7245 53.3273 58.9281 53.7751 58.9891C54.6911 59.0909 54.8336 58.4803 54.2433 57.0146C53.5105 55.2437 52.7777 52.1496 52.4927 49.7883C52.2281 47.5492 52.3502 42.9488 52.7166 41.015C52.9405 39.8751 53.022 39.753 53.9583 39.1016C57.8056 36.4757 59.6376 31.6717 58.8233 26.4607C58.4569 24.2215 57.6631 22.1045 55.7293 18.2369C54.7115 16.2217 53.6326 13.8604 53.3476 13.0259C53.0423 12.1913 52.737 11.377 52.6556 11.2346C52.4927 10.9903 52.0042 10.9292 51.5563 11.1328Z" fill="#21529A" style="fill:#21529A;fill:color(display-p3 0.1294 0.3216 0.6039);fill-opacity:1;"/>
<path d="M20.6147 22.2674C17.9278 23.1427 15.8515 25.7482 15.5461 28.6184C15.3019 30.9186 16.4621 33.7887 18.1517 35.0915C20.9404 37.2085 24.7062 37.2696 27.3728 35.2543C31.79 31.9363 31.0776 24.934 26.0904 22.6338C24.6859 22.0027 21.9989 21.8195 20.6147 22.2674ZM25.5001 24.2215C27.21 25.0765 28.4313 26.8678 28.6349 28.8016C29.0827 33.1373 24.4009 36.435 20.4926 34.5215C16.1161 32.3842 16.055 26.4199 20.3908 24.2215C21.5307 23.6516 21.8157 23.5905 23.0981 23.6516C24.0955 23.7126 24.8284 23.8755 25.5001 24.2215Z" fill="#21529A" style="fill:#21529A;fill:color(display-p3 0.1294 0.3216 0.6039);fill-opacity:1;"/>
<path d="M45.6115 26.6235C44.4919 27.1731 44.0645 27.9263 44.0645 29.3105C44.0645 30.2061 44.1662 30.654 44.4919 31.0814C46.2425 33.4224 49.8251 32.5471 50.1915 29.6769C50.4969 27.2342 47.8506 25.4633 45.6115 26.6235ZM48.1356 28.3945C48.7666 29.0052 48.787 29.5344 48.1763 30.2469C47.586 30.9186 46.7718 30.9593 46.0797 30.3283C45.4894 29.738 45.4486 29.1273 46.0186 28.4148C46.5682 27.7227 47.4639 27.7024 48.1356 28.3945Z" fill="#21529A" style="fill:#21529A;fill:color(display-p3 0.1294 0.3216 0.6039);fill-opacity:1;"/>
</svg>
