<svg width="75" height="75" viewBox="0 0 75 75" fill="none" xmlns="http://www.w3.org/2000/svg">
<path fill-rule="evenodd" clip-rule="evenodd" d="M35.6971 46.3048C35.951 45.9619 36.456 45.8687 36.8187 46.1183C37.1814 46.3678 37.2624 46.8643 37.0084 47.2071C36.5034 47.9367 35.7919 48.4797 34.9828 48.7924C34.1932 49.1188 33.3059 49.212 32.4214 49.042C31.3444 48.839 30.4292 48.2795 29.7624 47.5033C29.1151 46.7107 28.7189 45.7151 28.7189 44.6427C28.7189 43.584 29.1151 42.5912 29.7624 41.7985C30.4264 41.0223 31.3444 40.4601 32.4214 40.2599C33.3059 40.0898 34.1932 40.1831 34.9828 40.493C34.9995 40.5095 35.0135 40.5095 35.0302 40.5232C35.8227 40.8331 36.5007 41.3789 37.0085 42.0783C37.2624 42.4376 37.1814 42.934 36.8187 43.1808C36.456 43.4304 35.9482 43.3372 35.6971 42.9779C35.3818 42.5253 34.9382 42.1852 34.4164 41.9658L34.3829 41.9521C33.8779 41.7491 33.292 41.6861 32.7227 41.7958C32.0252 41.9356 31.4253 42.2922 30.9984 42.8051C30.5882 43.3015 30.3343 43.957 30.3343 44.6399C30.3343 45.3393 30.5882 45.9921 30.9984 46.4912C31.4253 47.0041 32.0252 47.3607 32.7227 47.5005C33.2919 47.6103 33.8779 47.5472 34.3829 47.3305C34.9046 47.1303 35.3651 46.771 35.6971 46.3048ZM52.8592 27.15C53.54 27.15 54.0925 28.0058 54.0925 29.0479C54.0925 30.1066 53.54 30.9459 52.8592 30.9459C52.3681 30.9459 51.9412 30.4933 51.7515 29.8406L49.2208 29.8378V42.4621C49.2208 43.784 49.5528 45.043 50.1694 46.1784C50.5322 46.8477 51.0065 47.4702 51.5617 48.0297C51.372 48.1998 51.2129 48.4192 51.0874 48.6523L50.7554 49.2585C50.7386 49.3051 50.7079 49.3353 50.6912 49.3819C49.8988 48.6661 49.2515 47.8268 48.7604 46.9107C48.0182 45.5723 47.622 44.0336 47.622 42.4649V29.0451C47.622 28.6118 47.9875 28.2525 48.4283 28.2525H51.7514C51.9411 27.5997 52.3681 27.15 52.8592 27.15ZM61.6706 27.15C60.9898 27.15 60.4374 28.0058 60.4374 29.0479C60.4374 30.1066 60.9898 30.9459 61.6706 30.9459C62.1617 30.9459 62.5886 30.4933 62.7784 29.8406H65.3091V42.4648C65.3091 43.7868 64.977 45.0457 64.3604 46.1812C63.9977 46.8504 63.5374 47.473 62.9849 48.0161C63.1746 48.2026 63.3336 48.4055 63.4592 48.6524L63.7912 49.2585C63.8219 49.3051 63.8386 49.3353 63.8554 49.3682C64.631 48.6524 65.2784 47.8296 65.7695 46.9107C66.5117 45.5724 66.9079 44.0336 66.9079 42.4649L66.9051 29.0451C66.9051 28.6118 66.5424 28.2525 66.0987 28.2525H62.7785C62.5859 27.5997 62.1617 27.15 61.6706 27.15ZM55.2951 52.3388C54.3631 52.1688 53.4619 51.8561 52.6221 51.42C52.3542 51.2966 52.1784 51.0937 52.1003 50.8139C52.0054 50.5342 52.0361 50.2709 52.1645 50.0048L52.5133 49.3987C52.7811 48.8995 53.4145 48.6993 53.9223 48.9626C54.9826 49.492 56.121 49.7553 57.2761 49.7553C58.4313 49.7553 59.5836 49.492 60.6299 48.9626C61.1517 48.6966 61.785 48.8995 62.0529 49.3987L62.3849 50.0048C62.5272 50.2681 62.544 50.5342 62.4631 50.8139C62.3682 51.0937 62.1952 51.2966 61.9245 51.42C61.0847 51.8561 60.2002 52.166 59.2655 52.3388V53.0245C59.2655 53.9269 58.5233 54.6729 57.6053 54.6729H56.9413C56.0401 54.6729 55.2951 53.9269 55.2951 53.0245L55.2951 52.3388ZM17.1251 61.2004C16.8237 61.6831 16.3829 62.1192 15.8276 62.5224C14.4689 62.7719 13.3751 62.196 12.5687 60.7972C12.9789 60.1582 13.1853 59.3655 13.1853 58.3864C14.0559 59.1324 14.9878 59.8482 16.0173 60.501C16.3829 60.7506 16.7456 60.9673 17.1251 61.2004ZM16.5419 27.1802C16.5084 24.7228 16.8433 22.2516 17.7278 20.0108C17.3623 18.6586 16.8098 17.663 15.6714 17.0569C14.6586 16.3273 12.0637 17.1666 11.6229 19.1249C12.3511 21.1765 12.4459 22.2351 12.3985 23.6805C12.4766 25.6717 12.3204 27.5669 11.9074 29.388C13.1239 28.5323 14.533 27.8494 16.0844 27.3201L16.5419 27.1802ZM35.3005 18.5819C33.512 15.2852 30.0801 13.7466 26.7598 14.18C26.8072 13.7603 26.8853 13.3873 26.9802 13.0445C27.5327 12.8278 28.1186 12.655 28.7352 12.5151C29.4774 12.3451 30.2698 12.2354 31.1068 12.1723C31.5505 12.1421 31.8825 11.7691 31.8658 11.333C31.8351 10.9134 31.4556 10.5706 31.012 10.6035C30.094 10.6665 29.2096 10.79 28.3697 10.9765C28.2916 10.9929 28.2107 11.0066 28.1493 11.0231C28.18 11.0066 28.2135 10.9765 28.2609 10.9463C28.6404 10.7296 28.752 10.2469 28.5315 9.87394C28.2944 9.50094 27.8033 9.37477 27.4238 9.61064C26.6956 10.0467 26.1264 10.7461 25.733 11.7252C25.6688 11.8651 25.6214 12.0352 25.56 12.1915C25.56 12.2217 25.5432 12.2381 25.5432 12.2683C25.3228 12.9375 25.1805 13.6973 25.1024 14.5694C24.9127 14.6325 24.7229 14.7092 24.5332 14.7888C24.3741 13.593 24.2793 12.5178 24.2793 11.5853C24.2793 10.4498 24.4048 9.54754 24.6587 8.86458C24.801 8.44495 24.5806 7.99514 24.1677 7.85527C23.7408 7.7154 23.2804 7.93207 23.1409 8.33799C22.8256 9.19374 22.6805 10.2825 22.6805 11.5881C22.6805 12.7372 22.7921 14.0757 23.0432 15.6143C22.8842 15.7241 22.7279 15.831 22.5689 15.9572C22.3959 14.8683 22.1727 13.966 21.8909 13.2529C21.4472 12.1338 20.8613 11.418 20.1191 11.1218C19.7089 10.9517 19.2318 11.1355 19.0756 11.5414C18.9026 11.9446 19.0923 12.4108 19.5025 12.5836C19.6448 12.6303 19.7871 12.7537 19.9127 12.91C19.5806 12.8469 19.2179 12.8168 18.8357 12.7839C18.4088 12.7674 18.0293 13.0938 17.9986 13.5299C17.9818 13.9632 18.3139 14.3389 18.7575 14.3554C19.2179 14.3856 19.6281 14.4487 20.0075 14.5584C20.2614 14.6352 20.4986 14.7147 20.719 14.8217C20.892 15.5211 21.0343 16.3466 21.1292 17.3257C18.6459 20.2632 17.2843 25.271 18.7268 32.5781C21.5086 33.1074 24.0086 31.5825 26.2239 28.006C25.9087 21.2728 27.4404 18.5687 31.0007 19.9976C32.407 19.3448 33.8301 18.8617 35.3005 18.5819ZM35.9032 34.3496C37.7056 34.6596 39.8736 34.7528 41.676 36.0446C42.0862 36.3408 42.4991 36.6837 42.9093 37.0567C42.8312 31.6125 40.0773 28.5792 35.2865 27.5695C34.3545 28.7818 33.8942 30.3067 34.0365 31.8454C34.1927 33.7103 34.6839 34.1138 35.9032 34.3496ZM44.7282 41.3133C44.8872 41.8427 45.0602 42.3857 45.2025 42.9452C46.991 49.9721 46.5948 57.3746 45.1076 62.7993C45.3615 63.2189 45.6768 63.6083 46.0256 63.9512C47.1334 65.0401 48.6512 65.7093 50.3449 65.7093C52.0357 65.7093 53.5731 65.04 54.678 63.9512C55.7857 62.8623 56.4665 61.3539 56.4665 59.6918V56.2086C56.6255 56.2388 56.7818 56.2388 56.9408 56.2388H57.6049C57.7639 56.2388 57.923 56.2388 58.0792 56.2086V59.6918C58.0792 61.79 57.2086 63.6879 55.8164 65.0702C54.4073 66.4388 52.4793 67.2946 50.3448 67.2946C48.2103 67.2946 46.2795 66.4388 44.8872 65.0702C44.7617 64.9468 44.6333 64.8207 44.5245 64.6808C44.3348 64.1048 44.2232 63.4823 44.2232 62.8459V48.0767C44.2232 46.9412 43.7795 45.8852 42.9732 45.0926C42.1975 44.3302 41.1233 43.8639 39.9374 43.8639H34.1478C33.9274 43.6143 33.6093 43.4607 33.2466 43.4607C32.5825 43.4607 32.0301 43.9901 32.0301 44.6428C32.0301 45.312 32.5825 45.8386 33.2466 45.8386C33.6093 45.8386 33.9274 45.6823 34.1478 45.4354H39.9374C40.6797 45.4354 41.3465 45.7316 41.8347 46.2116C42.3258 46.6943 42.6272 47.3471 42.6272 48.0766V62.8487C42.6272 64.2475 43.0066 65.5694 43.6874 66.7049C41.9157 70.4514 39.4966 72.1464 37.2031 70.158C28.5002 62.5687 14.9431 62.5223 9.23451 50.6901C9.25125 50.6599 9.25125 50.627 9.25125 50.5968C9.41029 49.0116 9.88462 47.5799 10.6743 46.321C11.4639 45.0621 12.605 43.9568 14.0755 43.0243L14.1062 42.9942C16.3048 41.3925 17.7585 39.4808 18.4728 37.2427C18.7741 36.2773 18.9332 35.268 18.9471 34.2093C22.8366 34.6619 25.6854 31.9247 27.5993 28.8145L27.8532 28.4113L27.8392 27.9286C27.7583 26.3269 27.7444 24.3823 28.1406 22.8299C28.2522 22.3939 28.52 21.4778 28.9944 21.2749C29.3571 21.0884 30.0379 21.3215 30.3866 21.4614L31.0507 21.7274C34.6723 20.016 38.88 19.4098 42.6607 20.4054C42.8644 21.5574 42.5965 22.7367 41.9157 23.6857C39.4324 23.1893 36.8543 23.8887 34.9877 25.5672C33.1546 27.1991 32.2199 29.5797 32.4403 31.9878C32.125 32.9532 31.7427 33.8227 31.3018 34.6619C30.6992 34.9883 29.957 35.2516 29.0558 35.4546C28.0736 35.6877 26.9046 35.8276 25.5764 35.8907C24.8175 35.5643 24.1227 35.301 23.4726 35.0816C22.7611 34.8485 22.1278 34.6921 21.5893 34.6153C21.1456 34.5523 20.7355 34.8485 20.6713 35.2681C20.6071 35.7042 20.9084 36.1074 21.3521 36.1705C21.7622 36.2336 22.2226 36.3405 22.7444 36.4968L22.6969 36.527C21.9073 36.8232 21.2432 37.1962 20.7187 37.6625C20.3867 37.9587 20.356 38.4551 20.6406 38.7815C20.9419 39.1079 21.4469 39.1244 21.779 38.8446C22.1585 38.5018 22.6663 38.222 23.2662 37.9889C23.8995 37.7558 24.6417 37.5857 25.4955 37.476C26.9827 37.4129 28.2941 37.2429 29.4185 36.9933C29.5915 36.9467 29.7812 36.9137 29.957 36.8671C29.3404 37.7393 28.6763 38.5621 28.0122 39.3712C26.9045 40.0569 25.8442 40.5999 24.865 41.0031C23.8828 41.4227 22.9677 41.7025 22.1278 41.8259C22.0971 41.8424 22.0804 41.8424 22.0636 41.8424C20.8303 42.1386 19.8482 42.5582 19.1228 43.0848C18.3164 43.6607 17.7946 44.3601 17.5408 45.1829C17.4292 45.6026 17.6663 46.0387 18.0932 46.1621C18.5201 46.2882 18.9638 46.0386 19.0893 45.619C19.2316 45.1363 19.5497 44.7166 20.0547 44.3601C20.6239 43.9569 21.4135 43.6305 22.4124 43.381C23.3472 43.2246 24.3572 42.9284 25.4174 42.4951C23.3276 45.1692 21.8432 47.9202 22.5547 51.8095C22.365 52.2922 22.1753 52.679 21.9688 52.9916C21.7791 53.3015 21.5893 53.521 21.3996 53.6279C21.0369 53.861 20.9253 54.3437 21.1457 54.7168C21.3829 55.0733 21.8907 55.1995 22.2534 54.9664C22.5854 54.7634 22.8868 54.4672 23.1714 54.064C23.629 55.353 24.3098 56.771 25.2445 58.3097C25.4649 58.6992 25.956 58.8226 26.3354 58.5894C26.7316 58.3728 26.8572 57.8901 26.62 57.5171C24.0893 53.318 23.6791 50.3175 24.3432 47.7996C24.4213 48.6691 24.5636 49.3849 24.7534 49.9444C24.8957 50.3503 25.3533 50.5807 25.7829 50.4271C26.1931 50.2873 26.4163 49.8512 26.274 49.4315C26.1485 49.075 26.0536 48.5923 25.9894 48.0163C26.1791 48.2494 26.3549 48.4661 26.5112 48.6855C27.0497 49.3849 27.4598 50.0843 27.7445 50.7672C27.9035 51.1704 28.3778 51.3596 28.788 51.1868C29.1981 51.0305 29.3906 50.5642 29.2149 50.1611C28.8828 49.3685 28.4085 48.5594 27.8086 47.7503C27.2701 47.0344 26.6367 46.3351 25.8778 45.6055C25.8945 45.2626 25.8945 44.9061 25.9113 44.5331C26.6395 43.4608 27.5073 42.4185 28.4252 41.3461C28.6624 41.0663 28.8995 40.7866 29.1367 40.4903C29.1534 40.4739 29.1841 40.4602 29.2009 40.4273C30.6574 38.6856 32.111 36.7877 33.188 34.4564C34.6584 36.4476 37.9648 35.7921 40.1969 36.9907C41.645 37.7833 43.6511 39.9777 44.7282 41.3133ZM8.15746 47.9835C7.98447 47.4844 7.82543 46.9715 7.68313 46.4285C5.6742 38.8258 8.83827 31.3931 16.6031 28.8289C16.698 30.214 16.8877 31.5661 17.1416 32.8717C17.443 34.3966 17.4569 35.1097 16.9352 36.7745C16.3353 38.6697 15.0853 40.3181 13.188 41.7031C11.5278 42.7754 10.2304 44.0344 9.31238 45.4962C8.82131 46.2751 8.42532 47.0976 8.15746 47.9835Z" fill="#21529A" style="fill:#21529A;fill:color(display-p3 0.1294 0.3216 0.6039);fill-opacity:1;"/>
</svg>
