<svg width="69" height="69" viewBox="0 0 69 69" fill="none" xmlns="http://www.w3.org/2000/svg">
<rect width="69" height="69" rx="34.5" fill="#CBD5E1" style="fill:#CBD5E1;fill:color(display-p3 0.7961 0.8353 0.8824);fill-opacity:1;"/>
<path d="M42.089 40.9397C42.1902 40.9396 42.2875 40.9005 42.3607 40.8305C42.4338 40.7605 42.4772 40.665 42.4817 40.5639C42.5051 40.0434 42.5678 39.5254 42.6693 39.0143C42.6896 38.912 42.6684 38.8057 42.6104 38.719C42.5524 38.6322 42.4623 38.5721 42.36 38.5517C42.2576 38.5314 42.1514 38.5526 42.0647 38.6106C41.9779 38.6686 41.9177 38.7586 41.8974 38.861C41.7884 39.411 41.721 39.9685 41.6957 40.5287C41.6934 40.5803 41.7013 40.6319 41.7189 40.6804C41.7365 40.729 41.7635 40.7736 41.7984 40.8118C41.8333 40.8499 41.8753 40.8808 41.9221 40.9026C41.9689 40.9245 42.0196 40.937 42.0712 40.9393C42.0771 40.9396 42.0831 40.9397 42.089 40.9397Z" fill="#21529A" style="fill:#21529A;fill:color(display-p3 0.1294 0.3216 0.6039);fill-opacity:1;"/>
<path d="M58.6004 14.939H48.7135C46.5073 14.9397 44.3455 14.3197 42.4752 13.1498C40.2325 11.7486 37.6413 11.0056 34.9969 11.0056C32.3525 11.0056 29.7612 11.7486 27.5186 13.1498C26.5876 13.7314 25.5799 14.1801 24.5247 14.483C23.4698 14.7854 22.3777 14.9389 21.2803 14.939H11.3934C11.2891 14.939 11.189 14.9804 11.1152 15.0542C11.0414 15.128 11 15.228 11 15.3324C11 15.4367 11.0414 15.5368 11.1152 15.6105C11.189 15.6843 11.2891 15.7258 11.3934 15.7258H21.2803C22.4511 15.7257 23.6161 15.562 24.7416 15.2394C25.8672 14.9162 26.9422 14.4375 27.9355 13.8171C30.053 12.4937 32.4998 11.7919 34.9969 11.7919C37.4939 11.7919 39.9408 12.4937 42.0583 13.8171C44.0536 15.0652 46.3599 15.7266 48.7135 15.7258H58.6004C58.7047 15.7258 58.8048 15.6843 58.8785 15.6105C58.9523 15.5368 58.9938 15.4367 58.9938 15.3324C58.9938 15.228 58.9523 15.128 58.8785 15.0542C58.8048 14.9804 58.7047 14.939 58.6004 14.939Z" fill="#21529A" style="fill:#21529A;fill:color(display-p3 0.1294 0.3216 0.6039);fill-opacity:1;"/>
<path d="M11.3332 20.4418L17.4062 21.3761C18.4724 21.5351 19.4455 22.073 20.1474 22.8912C20.8493 23.7093 21.2328 24.753 21.2278 25.831C21.2281 28.7848 22.4016 31.6177 24.4902 33.7065C26.4311 35.6478 27.5217 38.2805 27.5221 41.0257V43.7234C27.5224 45.2955 27.9496 46.8379 28.7582 48.1861C29.4932 49.4122 29.8817 50.8147 29.8824 52.2442V57.8186C29.8824 57.9229 29.9239 58.023 29.9976 58.0968C30.0714 58.1705 30.1715 58.212 30.2758 58.212C30.3801 58.212 30.4802 58.1705 30.554 58.0968C30.6277 58.023 30.6692 57.9229 30.6692 57.8186V52.2442C30.6684 50.6722 30.2412 49.1298 29.4331 47.7814C28.6977 46.5555 28.3091 45.1529 28.3088 43.7234V41.0257C28.3086 38.0718 27.1351 35.239 25.0464 33.1502C23.1055 31.2088 22.015 28.5762 22.0146 25.831C22.0204 24.5649 21.5699 23.3391 20.7455 22.3782C19.9211 21.4172 18.778 20.7856 17.5258 20.5989L11.4528 19.6646C11.3505 19.6505 11.2468 19.6772 11.1641 19.7389C11.0813 19.8007 11.0261 19.8924 11.0104 19.9945C10.9947 20.0965 11.0198 20.2006 11.0802 20.2844C11.1406 20.3681 11.2314 20.4248 11.3332 20.4421V20.4418Z" fill="#21529A" style="fill:#21529A;fill:color(display-p3 0.1294 0.3216 0.6039);fill-opacity:1;"/>
<path d="M39.3242 57.8188C39.3242 57.9231 39.3657 58.0231 39.4394 58.0969C39.5132 58.1707 39.6133 58.2121 39.7176 58.2121C39.8219 58.2121 39.922 58.1707 39.9958 58.0969C40.0696 58.0231 40.111 57.9231 40.111 57.8188V52.2444C40.1113 50.8148 40.4998 49.4122 41.2352 48.1863C41.538 47.6809 41.7886 47.1461 41.9833 46.5901C42.0004 46.5413 42.0077 46.4897 42.0048 46.4381C42.002 46.3865 41.9889 46.336 41.9665 46.2894C41.9441 46.2429 41.9128 46.2012 41.8742 46.1668C41.8357 46.1323 41.7908 46.1058 41.7421 46.0888C41.6933 46.0717 41.6416 46.0644 41.5901 46.0673C41.5385 46.0702 41.488 46.0832 41.4414 46.1056C41.3949 46.128 41.3532 46.1593 41.3187 46.1979C41.2843 46.2364 41.2578 46.2813 41.2407 46.3301C41.0636 46.8357 40.8357 47.322 40.5604 47.7816C39.7518 49.1298 39.3246 50.6723 39.3242 52.2444V57.8188Z" fill="#21529A" style="fill:#21529A;fill:color(display-p3 0.1294 0.3216 0.6039);fill-opacity:1;"/>
<path d="M58.5412 19.6644L52.4682 20.5987C51.2184 20.7911 50.0788 21.4244 49.2553 22.384C49.2207 22.423 49.1942 22.4686 49.1773 22.518C49.1605 22.5675 49.1536 22.6197 49.1572 22.6718C49.1607 22.7239 49.1746 22.7748 49.198 22.8215C49.2214 22.8681 49.2539 22.9097 49.2936 22.9437C49.3332 22.9777 49.3792 23.0034 49.4289 23.0194C49.4786 23.0355 49.531 23.0414 49.583 23.037C49.635 23.0326 49.6857 23.0178 49.7319 22.9936C49.7782 22.9694 49.8192 22.9363 49.8525 22.8961C50.5536 22.0793 51.5239 21.5403 52.5878 21.3766L58.6607 20.4423C58.7125 20.4352 58.7622 20.4179 58.8072 20.3913C58.8521 20.3648 58.8913 20.3296 58.9225 20.2878C58.9537 20.2459 58.9763 20.1983 58.9889 20.1476C59.0015 20.097 59.004 20.0444 58.996 19.9928C58.9881 19.9412 58.97 19.8917 58.9427 19.8472C58.9155 19.8027 58.8796 19.764 58.8373 19.7335C58.795 19.703 58.747 19.6812 58.6961 19.6694C58.6453 19.6576 58.5926 19.656 58.5412 19.6648V19.6644Z" fill="#21529A" style="fill:#21529A;fill:color(display-p3 0.1294 0.3216 0.6039);fill-opacity:1;"/>
<path d="M58.9877 18.4149C58.9705 18.312 58.9132 18.2202 58.8284 18.1595C58.7436 18.0989 58.6382 18.0744 58.5353 18.0915L48.949 19.6891C47.7799 19.8885 46.6979 20.4355 45.8441 21.2587C44.9903 22.0819 44.4042 23.1431 44.1622 24.3042C44.1519 24.3548 44.1517 24.407 44.1615 24.4577C44.1713 24.5085 44.191 24.5568 44.2195 24.5999C44.248 24.643 44.2847 24.68 44.3275 24.709C44.3704 24.7379 44.4185 24.7581 44.4691 24.7684C44.5197 24.7788 44.5719 24.779 44.6226 24.7692C44.6733 24.7594 44.7216 24.7396 44.7647 24.7111C44.8078 24.6826 44.8449 24.6459 44.8738 24.6031C44.9028 24.5603 44.923 24.5122 44.9333 24.4616C45.1428 23.4561 45.6503 22.537 46.3897 21.8242C47.129 21.1113 48.066 20.6377 49.0785 20.465L58.6643 18.8677C58.7153 18.8593 58.7641 18.8408 58.8079 18.8134C58.8518 18.7861 58.8898 18.7504 58.9198 18.7083C58.9499 18.6662 58.9713 18.6187 58.983 18.5683C58.9946 18.518 58.9962 18.4658 58.9877 18.4149Z" fill="#21529A" style="fill:#21529A;fill:color(display-p3 0.1294 0.3216 0.6039);fill-opacity:1;"/>
<path d="M58.5736 16.5134L41.361 17.6611C37.1225 17.9422 32.8702 17.9422 28.6318 17.6611L11.4191 16.5134C11.3154 16.5071 11.2134 16.5421 11.1354 16.6108C11.0574 16.6794 11.0098 16.7762 11.0028 16.8798C10.9959 16.9835 11.0303 17.0857 11.0984 17.1641C11.1666 17.2426 11.263 17.2908 11.3666 17.2984L28.5796 18.4461C30.7084 18.5877 32.8524 18.6587 34.9964 18.6587C37.1404 18.6587 39.2843 18.5879 41.4132 18.4461L58.6261 17.2984C58.7297 17.2908 58.8262 17.2426 58.8943 17.1641C58.9625 17.0857 58.9968 16.9835 58.9899 16.8798C58.983 16.7762 58.9353 16.6794 58.8573 16.6108C58.7793 16.5421 58.6773 16.5071 58.5736 16.5134Z" fill="#21529A" style="fill:#21529A;fill:color(display-p3 0.1294 0.3216 0.6039);fill-opacity:1;"/>
<path d="M11.333 18.8681L21.6596 20.4987C22.8575 20.6828 23.9496 21.2909 24.737 22.2123C25.5244 23.1337 25.9548 24.3072 25.9499 25.5192V25.7956C25.9454 27.2529 26.2761 28.6917 26.9163 30.0008C27.5566 31.31 28.4893 32.4543 29.6424 33.3455L31.9294 35.1242C31.5896 35.2491 31.2904 35.4648 31.0646 35.7478C30.6955 36.205 30.4942 36.7748 30.4942 37.3623C30.4942 37.9498 30.6955 38.5196 31.0646 38.9768L31.3555 39.3407C30.9682 39.9194 30.7614 40.6001 30.7614 41.2965C30.7614 41.9929 30.9682 42.6736 31.3555 43.2524L31.0645 43.6162C30.6954 44.0734 30.4941 44.6432 30.4941 45.2307C30.4941 45.8182 30.6954 46.388 31.0645 46.8452C31.2045 47.0205 31.3731 47.171 31.5632 47.2901C31.493 47.7108 31.4576 48.1366 31.4574 48.5631V57.8187C31.4574 57.923 31.4988 58.023 31.5726 58.0968C31.6464 58.1706 31.7464 58.212 31.8508 58.212C31.9551 58.212 32.0552 58.1706 32.1289 58.0968C32.2027 58.023 32.2441 57.923 32.2441 57.8187V55.8517H37.7516V57.8187C37.7516 57.923 37.7931 58.023 37.8668 58.0968C37.9406 58.1706 38.0407 58.212 38.145 58.212C38.2494 58.212 38.3494 58.1706 38.4232 58.0968C38.497 58.023 38.5384 57.923 38.5384 57.8187V48.5631C38.538 48.1364 38.5024 47.7104 38.4321 47.2895C38.6222 47.1704 38.7909 47.0199 38.9309 46.8446C39.3 46.3874 39.5013 45.8177 39.5013 45.2301C39.5013 44.6426 39.3 44.0728 38.9309 43.6156L38.64 43.2518C39.0273 42.673 39.2341 41.9923 39.2341 41.2959C39.2341 40.5995 39.0273 39.9188 38.64 39.3401L38.931 38.9762C39.3001 38.519 39.5014 37.9492 39.5014 37.3617C39.5014 36.7742 39.3001 36.2044 38.931 35.7472C38.7257 35.4899 38.4595 35.2878 38.1565 35.1591L40.1692 33.75C40.2126 33.7208 40.2497 33.6833 40.2784 33.6396C40.3071 33.5959 40.3267 33.5469 40.3363 33.4955C40.3458 33.4441 40.3451 33.3913 40.334 33.3403C40.3229 33.2892 40.3017 33.2408 40.2718 33.198C40.2418 33.1552 40.2036 33.1188 40.1594 33.0909C40.1151 33.063 40.0658 33.0442 40.0143 33.0356C39.9627 33.027 39.91 33.0288 39.8591 33.0408C39.8082 33.0528 39.7603 33.0748 39.718 33.1056L37.1842 34.8798C37.1135 34.9301 37.0456 34.9842 36.981 35.0421C36.5325 35.1343 36.1294 35.3784 35.8399 35.7331C35.5503 36.0878 35.3919 36.5316 35.3913 36.9895V45.603C35.391 45.8895 35.4527 46.1726 35.5722 46.433C35.6917 46.6934 35.8661 46.9249 36.0835 47.1115C36.3009 47.2981 36.5561 47.4355 36.8315 47.5142C37.107 47.5928 37.3963 47.6109 37.6794 47.5673C37.6991 47.705 37.7143 47.8441 37.7258 47.9839H32.27C32.2815 47.8441 32.2966 47.7051 32.3163 47.5673C32.5995 47.6109 32.8887 47.5928 33.1642 47.5142C33.4397 47.4355 33.6949 47.2981 33.9123 47.1115C34.1297 46.9249 34.3041 46.6934 34.4236 46.433C34.5431 46.1726 34.6048 45.8895 34.6045 45.603V36.9895C34.6037 36.5483 34.4563 36.1199 34.1854 35.7717C33.9146 35.4235 33.5356 35.1752 33.1082 35.0659C33.0444 35.0025 32.9771 34.9428 32.9065 34.8871L30.1253 32.7245C29.0672 31.9066 28.2112 30.8564 27.6236 29.6549C27.036 28.4535 26.7326 27.133 26.7367 25.7956V25.5192C26.7423 24.1196 26.2453 22.7645 25.336 21.7004C24.4268 20.6364 23.1657 19.9342 21.7823 19.7215L11.4558 18.0909C11.3539 18.0772 11.2507 18.1039 11.1682 18.1653C11.0858 18.2266 11.0306 18.3179 11.0146 18.4194C10.9985 18.521 11.0229 18.6247 11.0824 18.7086C11.1419 18.7924 11.2319 18.8496 11.333 18.8679V18.8681ZM36.1781 45.603V36.9895C36.1781 36.7406 36.2553 36.498 36.3992 36.295C36.5431 36.092 36.7466 35.9387 36.9813 35.8564C37.2161 35.774 37.4707 35.7666 37.7099 35.8352C37.9491 35.9038 38.161 36.0451 38.3164 36.2394C38.5731 36.5573 38.7131 36.9537 38.7131 37.3623C38.7131 37.7709 38.5731 38.1673 38.3164 38.4852L37.8378 39.0835C37.7819 39.1533 37.7515 39.24 37.7515 39.3294C37.7515 39.4187 37.7819 39.5055 37.8378 39.5752C38.2312 40.0626 38.4458 40.67 38.4458 41.2963C38.4458 41.9226 38.2312 42.5301 37.8378 43.0174C37.7819 43.0872 37.7515 43.1739 37.7515 43.2633C37.7515 43.3527 37.7819 43.4394 37.8378 43.5091L38.3163 44.1074C38.573 44.4254 38.713 44.8217 38.713 45.2303C38.713 45.639 38.573 46.0353 38.3163 46.3533C38.1609 46.5475 37.9489 46.6886 37.7098 46.7572C37.4706 46.8257 37.2161 46.8183 36.9813 46.7359C36.7465 46.6535 36.5432 46.5003 36.3993 46.2973C36.2554 46.0944 36.1781 45.8517 36.1781 45.603ZM32.2441 51.131H37.7516V52.7046H32.2441V51.131ZM32.2441 50.3442V48.7706H37.7516V50.3442H32.2441ZM32.2441 55.0649V53.4913H37.7516V55.0649H32.2441ZM33.8177 36.9895V45.603C33.8177 45.8518 33.7404 46.0945 33.5965 46.2974C33.4526 46.5004 33.2492 46.6537 33.0144 46.7361C32.7796 46.8184 32.5251 46.8258 32.2859 46.7572C32.0467 46.6886 31.8348 46.5474 31.6793 46.3531C31.4227 46.0351 31.2827 45.6388 31.2827 45.2301C31.2827 44.8215 31.4227 44.4252 31.6793 44.1072L32.158 43.5089C32.2139 43.4392 32.2443 43.3525 32.2443 43.2631C32.2443 43.1737 32.2139 43.087 32.158 43.0172C31.7646 42.5299 31.55 41.9224 31.55 41.2961C31.55 40.6698 31.7646 40.0624 32.158 39.575C32.2139 39.5053 32.2443 39.4185 32.2443 39.3292C32.2443 39.2398 32.2139 39.1531 32.158 39.0833L31.6794 38.485C31.4228 38.1671 31.2828 37.7707 31.2828 37.3621C31.2828 36.9535 31.4228 36.5571 31.6794 36.2392C31.8349 36.0449 32.0469 35.9038 32.286 35.8353C32.5252 35.7667 32.7797 35.7741 33.0145 35.8565C33.2492 35.9389 33.4526 36.0921 33.5965 36.2951C33.7404 36.498 33.8177 36.7407 33.8177 36.9895Z" fill="#21529A" style="fill:#21529A;fill:color(display-p3 0.1294 0.3216 0.6039);fill-opacity:1;"/>
<path d="M49.9451 25.1672C48.4668 25.1672 47.0217 25.6056 45.7926 26.4269C44.5634 27.2482 43.6054 28.4156 43.0397 29.7813C42.4739 31.1471 42.3259 32.65 42.6143 34.0999C42.9027 35.5498 43.6146 36.8816 44.6599 37.9269C45.7052 38.9722 47.0371 39.6841 48.487 39.9725C49.9369 40.2609 51.4397 40.1129 52.8055 39.5472C54.1713 38.9814 55.3386 38.0234 56.1599 36.7942C56.9812 35.5651 57.4196 34.12 57.4196 32.6417C57.4173 30.66 56.6291 28.7602 55.2279 27.359C53.8266 25.9577 51.9268 25.1695 49.9451 25.1672ZM49.9451 39.3293C48.6225 39.3293 47.3295 38.9371 46.2297 38.2023C45.1299 37.4674 44.2727 36.4229 43.7666 35.2009C43.2604 33.9789 43.1279 32.6343 43.386 31.337C43.644 30.0397 44.281 28.8481 45.2163 27.9128C46.1515 26.9775 47.3432 26.3406 48.6404 26.0825C49.9377 25.8245 51.2824 25.9569 52.5044 26.4631C53.7264 26.9693 54.7709 27.8264 55.5057 28.9262C56.2406 30.026 56.6328 31.319 56.6328 32.6417C56.6308 34.4147 55.9256 36.1146 54.6718 37.3683C53.4181 38.6221 51.7182 39.3273 49.9451 39.3293Z" fill="#21529A" style="fill:#21529A;fill:color(display-p3 0.1294 0.3216 0.6039);fill-opacity:1;"/>
<path d="M52.5237 32.3144C51.7607 31.8038 50.8632 31.5312 49.9451 31.5312C49.027 31.5312 48.1296 31.8038 47.3666 32.3144C47.3127 32.3503 47.2685 32.399 47.2379 32.4561C47.2074 32.5132 47.1914 32.5769 47.1914 32.6417C47.1914 32.7064 47.2074 32.7702 47.2379 32.8273C47.2685 32.8844 47.3127 32.933 47.3666 32.969C48.1296 33.4796 49.027 33.7522 49.9451 33.7522C50.8633 33.7522 51.7607 33.4796 52.5237 32.969C52.5776 32.933 52.6218 32.8844 52.6523 32.8273C52.6829 32.7702 52.6989 32.7064 52.6989 32.6417C52.6989 32.5769 52.6829 32.5132 52.6523 32.4561C52.6218 32.399 52.5776 32.3503 52.5237 32.3144ZM48.4011 32.6417C48.8878 32.4285 49.4134 32.3184 49.9448 32.3184C50.4762 32.3184 51.0019 32.4285 51.4886 32.6417C51.0019 32.8549 50.4762 32.965 49.9448 32.965C49.4134 32.965 48.8878 32.8549 48.4011 32.6417Z" fill="#21529A" style="fill:#21529A;fill:color(display-p3 0.1294 0.3216 0.6039);fill-opacity:1;"/>
<path d="M48.2747 34.9036C47.9635 34.9036 47.6593 34.9959 47.4005 35.1688C47.1417 35.3417 46.9401 35.5874 46.821 35.875C46.7019 36.1625 46.6707 36.4789 46.7314 36.7841C46.7921 37.0894 46.942 37.3697 47.1621 37.5898C47.3821 37.8099 47.6625 37.9597 47.9677 38.0205C48.273 38.0812 48.5894 38.05 48.8769 37.9309C49.1644 37.8118 49.4102 37.6101 49.5831 37.3514C49.756 37.0926 49.8483 36.7884 49.8483 36.4771C49.8478 36.0599 49.6819 35.66 49.3869 35.365C49.0919 35.07 48.6919 34.9041 48.2747 34.9036ZM48.2747 37.2639C48.1191 37.2639 47.967 37.2178 47.8376 37.1313C47.7082 37.0449 47.6074 36.922 47.5478 36.7782C47.4883 36.6345 47.4727 36.4763 47.5031 36.3236C47.5334 36.171 47.6084 36.0308 47.7184 35.9208C47.8284 35.8108 47.9686 35.7358 48.1212 35.7055C48.2739 35.6751 48.4321 35.6907 48.5758 35.7502C48.7196 35.8098 48.8425 35.9106 48.9289 36.04C49.0154 36.1694 49.0615 36.3215 49.0615 36.4771C49.0613 36.6857 48.9783 36.8857 48.8308 37.0332C48.6833 37.1807 48.4833 37.2637 48.2747 37.2639Z" fill="#21529A" style="fill:#21529A;fill:color(display-p3 0.1294 0.3216 0.6039);fill-opacity:1;"/>
<path d="M47.1924 34.2151C47.1924 33.9817 47.1232 33.7535 46.9935 33.5594C46.8638 33.3653 46.6795 33.2141 46.4638 33.1247C46.2482 33.0354 46.0109 33.0121 45.782 33.0576C45.553 33.1031 45.3427 33.2155 45.1777 33.3806C45.0126 33.5456 44.9002 33.7559 44.8547 33.9848C44.8092 34.2138 44.8325 34.4511 44.9219 34.6667C45.0112 34.8824 45.1625 35.0667 45.3565 35.1964C45.5506 35.326 45.7788 35.3953 46.0122 35.3953C46.3251 35.3949 46.6251 35.2705 46.8463 35.0492C47.0676 34.828 47.192 34.528 47.1924 34.2151ZM46.0122 34.6085C45.9344 34.6085 45.8583 34.5854 45.7936 34.5422C45.729 34.499 45.6785 34.4375 45.6488 34.3656C45.619 34.2937 45.6112 34.2147 45.6264 34.1383C45.6416 34.062 45.679 33.9919 45.734 33.9369C45.7891 33.8819 45.8591 33.8444 45.9355 33.8293C46.0118 33.8141 46.0909 33.8219 46.1627 33.8516C46.2346 33.8814 46.2961 33.9318 46.3393 33.9965C46.3825 34.0612 46.4056 34.1373 46.4056 34.2151C46.4056 34.3194 46.3642 34.4195 46.2904 34.4933C46.2166 34.567 46.1165 34.6085 46.0122 34.6085Z" fill="#21529A" style="fill:#21529A;fill:color(display-p3 0.1294 0.3216 0.6039);fill-opacity:1;"/>
<path d="M48.3716 29.1011C48.605 29.1011 48.8332 29.0319 49.0272 28.9022C49.2213 28.7725 49.3726 28.5882 49.4619 28.3725C49.5512 28.1569 49.5746 27.9196 49.5291 27.6907C49.4835 27.4617 49.3711 27.2514 49.2061 27.0864C49.041 26.9213 48.8308 26.8089 48.6018 26.7634C48.3729 26.7179 48.1356 26.7412 47.9199 26.8306C47.7043 26.9199 47.52 27.0711 47.3903 27.2652C47.2606 27.4593 47.1914 27.6875 47.1914 27.9209C47.1917 28.2338 47.3162 28.5338 47.5374 28.755C47.7587 28.9763 48.0587 29.1007 48.3716 29.1011ZM48.3716 27.5275C48.4494 27.5275 48.5254 27.5506 48.5901 27.5938C48.6548 27.637 48.7053 27.6985 48.735 27.7704C48.7648 27.8422 48.7726 27.9213 48.7574 27.9976C48.7422 28.074 48.7048 28.1441 48.6498 28.1991C48.5947 28.2541 48.5246 28.2916 48.4483 28.3067C48.372 28.3219 48.2929 28.3141 48.221 28.2843C48.1492 28.2546 48.0877 28.2041 48.0445 28.1395C48.0013 28.0748 47.9782 27.9987 47.9782 27.9209C47.9782 27.8166 48.0196 27.7165 48.0934 27.6427C48.1672 27.569 48.2672 27.5275 48.3716 27.5275Z" fill="#21529A" style="fill:#21529A;fill:color(display-p3 0.1294 0.3216 0.6039);fill-opacity:1;"/>
<path d="M51.52 29.8879C51.7534 29.8879 51.9816 29.8187 52.1757 29.689C52.3698 29.5594 52.521 29.375 52.6104 29.1594C52.6997 28.9437 52.7231 28.7065 52.6775 28.4775C52.632 28.2486 52.5196 28.0383 52.3545 27.8733C52.1895 27.7082 51.9792 27.5958 51.7503 27.5503C51.5213 27.5047 51.284 27.5281 51.0684 27.6174C50.8527 27.7067 50.6684 27.858 50.5387 28.0521C50.4091 28.2462 50.3398 28.4743 50.3398 28.7078C50.3402 29.0207 50.4646 29.3206 50.6859 29.5419C50.9071 29.7631 51.2071 29.8876 51.52 29.8879ZM51.52 28.3144C51.5978 28.3144 51.6739 28.3374 51.7386 28.3807C51.8033 28.4239 51.8537 28.4853 51.8835 28.5572C51.9132 28.6291 51.921 28.7082 51.9058 28.7845C51.8907 28.8608 51.8532 28.9309 51.7982 28.9859C51.7432 29.0409 51.6731 29.0784 51.5968 29.0936C51.5205 29.1088 51.4414 29.101 51.3695 29.0712C51.2976 29.0414 51.2362 28.991 51.1929 28.9263C51.1497 28.8616 51.1266 28.7856 51.1266 28.7078C51.1266 28.6034 51.1681 28.5034 51.2418 28.4296C51.3156 28.3558 51.4157 28.3144 51.52 28.3144Z" fill="#21529A" style="fill:#21529A;fill:color(display-p3 0.1294 0.3216 0.6039);fill-opacity:1;"/>
<path d="M51.52 33.8218C51.2866 33.8218 51.0584 33.891 50.8643 34.0207C50.6703 34.1504 50.519 34.3347 50.4297 34.5503C50.3404 34.766 50.317 35.0033 50.3625 35.2322C50.4081 35.4611 50.5205 35.6714 50.6855 35.8365C50.8506 36.0015 51.0608 36.1139 51.2898 36.1594C51.5187 36.205 51.756 36.1816 51.9716 36.0923C52.1873 36.003 52.3716 35.8517 52.5013 35.6576C52.631 35.4635 52.7002 35.2354 52.7002 35.002C52.6999 34.6891 52.5754 34.3891 52.3542 34.1678C52.1329 33.9466 51.8329 33.8221 51.52 33.8218ZM51.52 35.3953C51.4422 35.3953 51.3662 35.3723 51.3015 35.329C51.2368 35.2858 51.1863 35.2244 51.1566 35.1525C51.1268 35.0806 51.119 35.0015 51.1342 34.9252C51.1494 34.8489 51.1868 34.7788 51.2418 34.7238C51.2969 34.6688 51.367 34.6313 51.4433 34.6161C51.5196 34.6009 51.5987 34.6087 51.6706 34.6385C51.7424 34.6683 51.8039 34.7187 51.8471 34.7834C51.8903 34.8481 51.9134 34.9241 51.9134 35.002C51.9134 35.1063 51.872 35.2063 51.7982 35.2801C51.7244 35.3539 51.6244 35.3953 51.52 35.3953Z" fill="#21529A" style="fill:#21529A;fill:color(display-p3 0.1294 0.3216 0.6039);fill-opacity:1;"/>
<path d="M54.6665 33.0349C54.4331 33.0349 54.2049 33.1041 54.0108 33.2338C53.8168 33.3635 53.6655 33.5478 53.5762 33.7635C53.4868 33.9791 53.4635 34.2164 53.509 34.4453C53.5545 34.6743 53.6669 34.8845 53.832 35.0496C53.997 35.2146 54.2073 35.327 54.4363 35.3726C54.6652 35.4181 54.9025 35.3947 55.1181 35.3054C55.3338 35.2161 55.5181 35.0648 55.6478 34.8708C55.7775 34.6767 55.8467 34.4485 55.8467 34.2151C55.8463 33.9022 55.7219 33.6022 55.5006 33.381C55.2794 33.1597 54.9794 33.0353 54.6665 33.0349ZM54.6665 34.6085C54.5887 34.6085 54.5126 34.5854 54.4479 34.5422C54.3833 34.499 54.3328 34.4375 54.3031 34.3656C54.2733 34.2937 54.2655 34.2146 54.2807 34.1383C54.2958 34.062 54.3333 33.9919 54.3883 33.9369C54.4433 33.8819 54.5134 33.8444 54.5898 33.8293C54.6661 33.8141 54.7452 33.8219 54.817 33.8516C54.8889 33.8814 54.9504 33.9318 54.9936 33.9965C55.0368 34.0612 55.0599 34.1373 55.0599 34.2151C55.0599 34.3194 55.0184 34.4195 54.9447 34.4933C54.8709 34.567 54.7708 34.6085 54.6665 34.6085Z" fill="#21529A" style="fill:#21529A;fill:color(display-p3 0.1294 0.3216 0.6039);fill-opacity:1;"/>
<path d="M46.0122 31.4614C46.2456 31.4614 46.4738 31.3922 46.6679 31.2625C46.862 31.1328 47.0132 30.9485 47.1025 30.7329C47.1919 30.5172 47.2152 30.2799 47.1697 30.051C47.1242 29.8221 47.0118 29.6118 46.8467 29.4467C46.6817 29.2817 46.4714 29.1693 46.2424 29.1238C46.0135 29.0782 45.7762 29.1016 45.5606 29.1909C45.3449 29.2802 45.1606 29.4315 45.0309 29.6256C44.9012 29.8197 44.832 30.0478 44.832 30.2812C44.8324 30.5941 44.9568 30.8941 45.1781 31.1154C45.3993 31.3366 45.6993 31.4611 46.0122 31.4614ZM46.0122 29.8879C46.09 29.8879 46.1661 29.9109 46.2308 29.9542C46.2955 29.9974 46.3459 30.0588 46.3757 30.1307C46.4054 30.2026 46.4132 30.2817 46.398 30.358C46.3829 30.4343 46.3454 30.5044 46.2904 30.5594C46.2354 30.6144 46.1653 30.6519 46.089 30.6671C46.0126 30.6823 45.9335 30.6745 45.8617 30.6447C45.7898 30.6149 45.7283 30.5645 45.6851 30.4998C45.6419 30.4351 45.6188 30.3591 45.6188 30.2812C45.6188 30.1769 45.6603 30.0769 45.734 30.0031C45.8078 29.9293 45.9079 29.8879 46.0122 29.8879Z" fill="#21529A" style="fill:#21529A;fill:color(display-p3 0.1294 0.3216 0.6039);fill-opacity:1;"/>
<path d="M52.6992 30.6746C52.6992 30.9859 52.7915 31.2901 52.9644 31.5489C53.1373 31.8076 53.3831 32.0093 53.6706 32.1284C53.9581 32.2475 54.2745 32.2787 54.5798 32.218C54.885 32.1573 55.1654 32.0074 55.3855 31.7873C55.6055 31.5673 55.7554 31.2869 55.8161 30.9816C55.8768 30.6764 55.8457 30.36 55.7266 30.0725C55.6075 29.7849 55.4058 29.5392 55.147 29.3663C54.8882 29.1934 54.584 29.1011 54.2728 29.1011C53.8556 29.1016 53.4556 29.2675 53.1607 29.5625C52.8657 29.8575 52.6997 30.2575 52.6992 30.6746ZM55.0596 30.6746C55.0596 30.8303 55.0134 30.9824 54.927 31.1118C54.8405 31.2411 54.7176 31.342 54.5739 31.4015C54.4301 31.4611 54.2719 31.4767 54.1193 31.4463C53.9667 31.4159 53.8265 31.341 53.7164 31.231C53.6064 31.1209 53.5315 30.9808 53.5011 30.8281C53.4708 30.6755 53.4863 30.5173 53.5459 30.3736C53.6054 30.2298 53.7063 30.1069 53.8357 30.0205C53.9651 29.934 54.1172 29.8879 54.2728 29.8879C54.4814 29.8881 54.6814 29.9711 54.8289 30.1186C54.9764 30.2661 55.0593 30.466 55.0596 30.6746Z" fill="#21529A" style="fill:#21529A;fill:color(display-p3 0.1294 0.3216 0.6039);fill-opacity:1;"/>
<path d="M51.9129 38.1491C52.1302 38.1491 52.3063 37.973 52.3063 37.7557C52.3063 37.5384 52.1302 37.3623 51.9129 37.3623C51.6957 37.3623 51.5195 37.5384 51.5195 37.7557C51.5195 37.973 51.6957 38.1491 51.9129 38.1491Z" fill="#21529A" style="fill:#21529A;fill:color(display-p3 0.1294 0.3216 0.6039);fill-opacity:1;"/>
<path d="M49.5516 31.068C49.7689 31.068 49.945 30.8919 49.945 30.6746C49.945 30.4574 49.7689 30.2812 49.5516 30.2812C49.3343 30.2812 49.1582 30.4574 49.1582 30.6746C49.1582 30.8919 49.3343 31.068 49.5516 31.068Z" fill="#21529A" style="fill:#21529A;fill:color(display-p3 0.1294 0.3216 0.6039);fill-opacity:1;"/>
<path d="M54.0145 36.9689C54.2317 36.9689 54.4079 36.7928 54.4079 36.5755C54.4079 36.3583 54.2317 36.1821 54.0145 36.1821C53.7972 36.1821 53.6211 36.3583 53.6211 36.5755C53.6211 36.7928 53.7972 36.9689 54.0145 36.9689Z" fill="#21529A" style="fill:#21529A;fill:color(display-p3 0.1294 0.3216 0.6039);fill-opacity:1;"/>
<path d="M49.9461 23.5935C48.1448 23.5936 46.3846 24.1313 44.8907 25.1378C43.3968 26.1443 42.2374 27.5738 41.5609 29.2432C40.8843 30.9126 40.7215 32.746 41.0932 34.5085C41.4649 36.2711 42.3542 37.8825 43.6472 39.1366L40.1605 45.4329C40.1178 45.5101 40.1023 45.5994 40.1164 45.6864C40.1305 45.7735 40.1735 45.8533 40.2385 45.913C40.3034 45.9727 40.3865 46.0088 40.4744 46.0156C40.5624 46.0224 40.65 45.9995 40.7234 45.9504L47.5684 41.373C48.8126 41.7118 50.1149 41.7807 51.388 41.5752C52.6611 41.3696 53.8755 40.8943 54.9499 40.1812C56.0243 39.468 56.9339 38.5334 57.6176 37.4401C58.3014 36.3467 58.7435 35.1198 58.9145 33.8417C59.0854 32.5635 58.9812 31.2635 58.6088 30.0289C58.2363 28.7943 57.6043 27.6536 56.7551 26.6831C55.9058 25.7127 54.859 24.935 53.6846 24.4021C52.5103 23.8693 51.2357 23.5936 49.9461 23.5935ZM49.9461 40.9027C49.1559 40.9032 48.3697 40.7903 47.6114 40.5677C47.5561 40.5515 47.498 40.5477 47.441 40.5564C47.384 40.5651 47.3297 40.5861 47.2817 40.618L41.635 44.3946L44.4839 39.25C44.5268 39.1724 44.5423 39.0826 44.5277 38.9951C44.5132 38.9076 44.4695 38.8276 44.4038 38.7681C42.9733 37.474 42.0406 35.7202 41.7677 33.8106C41.4947 31.901 41.8986 29.956 42.9093 28.313C43.92 26.67 45.4738 25.4324 47.3013 24.815C49.1289 24.1975 51.1149 24.239 52.915 24.9323C54.7151 25.6257 56.2158 26.9271 57.157 28.6109C58.0981 30.2947 58.4204 32.2548 58.0678 34.1514C57.7153 36.0479 56.7101 37.7613 55.2267 38.9944C53.7433 40.2275 51.8751 40.9026 49.9461 40.9027Z" fill="#21529A" style="fill:#21529A;fill:color(display-p3 0.1294 0.3216 0.6039);fill-opacity:1;"/>
</svg>
