<svg width="75" height="75" viewBox="0 0 75 75" fill="none" xmlns="http://www.w3.org/2000/svg">
<g clip-path="url(#clip0_3039_584)">
<g clip-path="url(#clip1_3039_584)">
<path d="M51.3909 59.375L46.7247 58.4375V53.2673C46.051 52.8711 45.4078 52.4219 44.8148 51.9308V59.2215C44.8148 59.6763 45.135 60.0697 45.5804 60.159L51.015 61.2499C57.1678 62.4888 61.5135 64.9414 63.2261 68.0831L11.5563 68.0859C13.2685 64.9442 17.6172 62.4944 23.7731 61.2527L29.2021 60.1618C29.6476 60.0725 29.9705 59.6791 29.9705 59.2243V51.0907C32.234 52.3882 34.723 53.1806 37.3123 53.4038L37.393 53.4122L37.4738 53.4038C39.8291 53.2001 42.0982 52.5304 44.2252 51.4144C43.8828 51.0935 43.5626 50.7587 43.2703 50.4099C43.1395 50.2537 43.017 50.0974 42.9 49.9412C41.1516 50.795 39.3058 51.3168 37.3931 51.4925C28.4006 50.6611 21.3681 42.1011 21.3681 31.9611C21.3681 30.6637 21.4656 29.4193 21.6605 28.2278C21.6744 28.172 21.6827 28.1162 21.6883 28.0576C21.6911 28.0521 21.6911 28.0493 21.6911 28.0465C22.259 24.7318 23.5731 21.8663 25.5777 19.5979C25.6194 19.5588 25.6556 19.5198 25.689 19.4751C25.909 19.2296 26.14 18.9896 26.3795 18.7608C29.2638 15.9623 33.1504 14.4166 37.3291 14.4053C37.3514 14.4081 37.3709 14.4109 37.3931 14.4109C37.4126 14.4109 37.4321 14.4109 37.4488 14.4081C41.6166 14.4277 45.946 16.0432 49.042 19.4249C49.0977 19.5169 49.1729 19.6006 49.262 19.6704C51.1162 21.7853 52.4971 24.5532 53.0929 28.019C53.0957 28.1082 53.1096 28.1975 53.1374 28.2812C53.3212 29.4336 53.4158 30.6585 53.4158 31.9615C53.4158 36.9642 51.7565 41.6772 48.7247 45.315L50.4007 46.2832C51.5032 44.9188 52.4331 43.4205 53.1764 41.8273C56.2752 39.7347 58.8476 37.0087 60.6266 33.9366C62.5197 30.6665 63.522 26.9779 63.522 23.2723C63.5192 10.443 51.7984 -0.000549316 37.3934 -0.000549316C22.9857 -0.000549316 11.2649 10.443 11.2649 23.2752C11.2649 26.9805 12.2671 30.6695 14.1603 33.9394C15.9394 37.0142 18.5147 39.7402 21.619 41.8359C22.4125 43.5379 23.4147 45.1283 24.6091 46.5625C25.6503 47.8125 26.8085 48.909 28.0586 49.8409V58.4373L23.398 59.3748C18.9017 60.2788 11.0813 62.7007 9.21042 68.7584C9.12133 69.0486 9.17423 69.3666 9.35241 69.6094C9.5306 69.8549 9.81735 70 10.118 70H64.6638C64.9672 70 65.254 69.8549 65.4321 69.6094C65.6131 69.3638 65.666 69.0486 65.5741 68.7584C63.706 62.7037 55.8853 60.282 51.3923 59.3748L51.3909 59.375ZM57.0537 18.1336C57.1233 17.609 57.5994 17.2379 58.1256 17.3077C58.649 17.3775 59.0165 17.8574 58.9469 18.3819C58.4847 21.9282 57.1428 25.3239 55.0547 28.2255C54.9183 27.3159 54.7318 26.4342 54.4951 25.5832C55.8343 23.3037 56.7113 20.7649 57.0537 18.1336ZM50.2549 11.5934C50.2549 11.0633 50.6837 10.6364 51.2098 10.6364C51.7388 10.6364 52.1676 11.0633 52.1676 11.5934C52.1676 14.0683 51.7584 16.4623 50.9454 18.7168C50.564 18.2564 50.152 17.8156 49.7176 17.3942C49.6285 17.3105 49.5394 17.224 49.4503 17.1403C49.9849 15.3685 50.2549 13.5103 50.2549 11.5934ZM36.4316 7.29101C36.4316 6.76367 36.8603 6.33401 37.3865 6.33401C37.9155 6.33401 38.3443 6.7637 38.3443 7.29101V12.5198C38.0185 12.5031 37.6928 12.4947 37.367 12.4947C37.0552 12.4947 36.7434 12.5031 36.4344 12.517V7.29101L36.4316 7.29101ZM23.5719 10.6364C24.1008 10.6364 24.5268 11.0633 24.5268 11.5934C24.5268 13.5075 24.794 15.3602 25.323 17.1236C25.2284 17.2101 25.1365 17.2966 25.0446 17.3859C24.6159 17.8044 24.2094 18.2396 23.8308 18.6972C23.0262 16.4539 22.6169 14.0655 22.6169 11.5934C22.6169 11.0633 23.0429 10.6364 23.5719 10.6364ZM19.7243 28.2314C17.639 25.3241 16.297 21.9284 15.8321 18.3822C15.7625 17.8576 16.1328 17.3777 16.6562 17.3079C17.1796 17.2382 17.6584 17.6093 17.7281 18.1338C18.0705 20.7622 18.9419 23.2984 20.281 25.5809C20.0444 26.4347 19.8579 27.3191 19.7243 28.2314ZM33.4664 41.7607C33.1295 41.3534 33.1852 40.7507 33.5944 40.4131C34.0009 40.0755 34.6023 40.1313 34.9391 40.5414C35.4598 41.1692 36.3061 41.9198 37.3947 41.9198C38.4805 41.9198 39.3268 41.1692 39.8447 40.5414C40.1816 40.1341 40.7829 40.0783 41.1894 40.4131C41.5959 40.7507 41.6516 41.3534 41.3175 41.7607C40.1983 43.1167 38.8424 43.831 37.3947 43.831C35.9441 43.831 34.5856 43.1167 33.4664 41.7607ZM32.4363 29.0014C32.4363 30.6756 31.0777 32.0399 29.4044 32.0399C27.7311 32.0399 26.3725 30.6784 26.3725 29.0014C26.3725 28.4741 26.8013 28.0444 27.3274 28.0444C27.8536 28.0444 28.2823 28.4741 28.2823 29.0014C28.2823 29.6209 28.7863 30.1259 29.4043 30.1259C30.0224 30.1259 30.5263 29.6208 30.5263 29.0014C30.5263 28.4741 30.955 28.0444 31.4812 28.0444C32.0046 28.0444 32.4363 28.4713 32.4363 29.0014ZM45.3765 32.0399C43.7033 32.0399 42.3447 30.6784 42.3447 29.0014C42.3447 28.4741 42.7734 28.0444 43.2996 28.0444C43.8258 28.0444 44.2545 28.4741 44.2545 29.0014C44.2545 29.6209 44.7584 30.1259 45.3765 30.1259C45.9945 30.1259 46.4984 29.6208 46.4984 29.0014C46.4984 28.4741 46.9272 28.0444 47.4533 28.0444C47.9795 28.0444 48.4083 28.4741 48.4083 29.0014C48.4083 30.6756 47.0498 32.0399 45.3765 32.0399ZM36.4339 18.0442V16.4343C36.4339 15.907 36.8627 15.4773 37.3889 15.4773C37.915 15.4773 38.3438 15.907 38.3438 16.4343V18.0442C38.3438 18.5716 37.915 19.0012 37.3889 19.0012C36.8599 19.0012 36.4339 18.5743 36.4339 18.0442ZM36.4339 21.4176C36.4339 20.8902 36.8627 20.4606 37.3889 20.4606C37.915 20.4606 38.3438 20.8903 38.3438 21.4176V23.0275C38.3438 23.5549 37.915 23.9845 37.3889 23.9845C36.8627 23.9845 36.4339 23.5548 36.4339 23.0275V21.4176ZM36.4339 26.4009C36.4339 25.8735 36.8627 25.4439 37.3889 25.4439C37.915 25.4439 38.3438 25.8736 38.3438 26.4009V28.0108C38.3438 28.5381 37.915 28.9678 37.3889 28.9678C36.8627 28.9678 36.4339 28.5381 36.4339 28.0108V26.4009ZM36.4339 31.3814C36.4339 30.854 36.8627 30.4244 37.3889 30.4244C37.915 30.4244 38.3438 30.8541 38.3438 31.3814V32.9913C38.3438 33.5186 37.915 33.9483 37.3889 33.9483C36.8627 33.9483 36.4339 33.5186 36.4339 32.9913V31.3814ZM33.5608 35.8652C33.3158 35.8652 33.0708 35.7703 32.8843 35.5833C32.5112 35.2095 32.5112 34.604 32.8843 34.2301L34.0174 33.0946C34.3904 32.7207 34.9946 32.7207 35.3676 33.0946C35.7407 33.4684 35.7407 34.0739 35.3676 34.4478L34.2345 35.5833C34.048 35.7703 33.803 35.8652 33.5608 35.8652ZM31.8542 36.6185C32.2272 36.9924 32.2272 37.5979 31.8542 37.9717L30.7211 39.1073C30.5345 39.2942 30.2895 39.3891 30.0445 39.3891C29.7995 39.3891 29.5545 39.2942 29.3708 39.1073C28.9977 38.7334 28.9977 38.1279 29.3708 37.7541L30.5039 36.6185C30.8742 36.2446 31.4811 36.2446 31.8542 36.6185ZM28.3379 40.1397C28.7109 40.5136 28.7109 41.1191 28.3379 41.4929L27.2048 42.6285C27.0182 42.8155 26.7732 42.9103 26.5282 42.9103C26.2832 42.9103 26.0382 42.8155 25.8517 42.6285C25.4786 42.2546 25.4786 41.6492 25.8517 41.2753L26.9848 40.1397C27.3606 39.7658 27.9648 39.7658 28.3379 40.1397ZM41.8961 35.5834C41.7095 35.7703 41.4645 35.8652 41.2195 35.8652C40.9745 35.8652 40.7295 35.7703 40.5458 35.5834L39.4127 34.4478C39.0396 34.0739 39.0396 33.4684 39.4127 33.0946C39.7858 32.7207 40.3899 32.7207 40.763 33.0946L41.896 34.2302C42.2691 34.604 42.2691 35.2095 41.8961 35.5834ZM44.2793 36.6185L45.4124 37.7541C45.7855 38.128 45.7855 38.7334 45.4124 39.1073C45.2258 39.2942 44.9808 39.3891 44.7358 39.3891C44.4908 39.3891 44.2458 39.2942 44.0593 39.1073L42.9262 37.9717C42.5532 37.5978 42.5532 36.9924 42.9262 36.6185C43.2993 36.2446 43.9035 36.2446 44.2793 36.6185ZM46.4426 41.4957C46.0695 41.1218 46.0695 40.5164 46.4426 40.1425C46.8156 39.7686 47.4198 39.7686 47.7928 40.1425L48.9259 41.2781C49.299 41.652 49.299 42.2574 48.9259 42.6313C48.7394 42.8182 48.4944 42.9131 48.2494 42.9131C48.0044 42.9131 47.7594 42.8182 47.5728 42.6313L46.4426 41.4957ZM36.3895 64.4336C36.7264 64.841 36.6679 65.4437 36.2615 65.7812C36.0833 65.9291 35.8661 66.0016 35.6545 66.0016C35.3789 66.0016 35.1061 65.8845 34.9167 65.6557C34.1149 64.6819 33.0264 64.1015 32.0046 64.1015H32.0018C31.2418 64.1015 30.5958 64.4168 30.0836 65.039C29.7467 65.4464 29.1453 65.5022 28.7389 65.1646C28.3324 64.827 28.2767 64.2243 28.6136 63.8169C29.4823 62.765 30.6878 62.1846 32.0046 62.1846H32.0074C33.5888 62.1846 35.2286 63.0246 36.3895 64.4336ZM42.7734 62.1847H42.7762C44.0931 62.1847 45.2959 62.7651 46.1672 63.817C46.5041 64.2244 46.4484 64.8271 46.042 65.1647C45.6355 65.5023 45.0341 65.4465 44.6973 65.0391C44.1822 64.4169 43.5363 64.1016 42.779 64.1016C41.7573 64.1016 40.6687 64.682 39.8669 65.6557C39.6776 65.8845 39.4047 66.0017 39.1291 66.0017C38.9147 66.0017 38.7003 65.9292 38.5221 65.7813C38.1157 65.4437 38.06 64.841 38.3941 64.4337C39.5522 63.0246 41.1921 62.1847 42.7734 62.1847ZM69.1501 60.0782C68.9747 60.3823 68.5877 60.4855 68.2842 60.3097L55.9704 53.1864C55.8257 53.1027 55.6586 53.058 55.4916 53.058C55.3802 53.058 55.2688 53.0776 55.1631 53.1166C52.4151 54.1267 47.2482 52.1736 44.728 49.1741C43.7842 48.0497 42.8877 46.3868 43.5058 44.5061L49.5807 48.0218C56.0259 51.7523 62.4682 55.4796 68.9134 59.2075C69.2224 59.3861 69.3227 59.774 69.1501 60.0782Z" fill="#21529A" style="fill:#21529A;fill:color(display-p3 0.1294 0.3216 0.6039);fill-opacity:1;"/>
</g>
</g>
<defs>
<clipPath id="clip0_3039_584">
<rect width="75" height="75" fill="white" style="fill:white;fill-opacity:1;"/>
</clipPath>
<clipPath id="clip1_3039_584">
<rect width="78.4" height="70" fill="white" style="fill:white;fill-opacity:1;"/>
</clipPath>
</defs>
</svg>
