<svg width="69" height="69" viewBox="0 0 69 69" fill="none" xmlns="http://www.w3.org/2000/svg">
<rect width="69" height="69" rx="34.5" fill="#CBD5E1" style="fill:#CBD5E1;fill:color(display-p3 0.7961 0.8353 0.8824);fill-opacity:1;"/>
<path fill-rule="evenodd" clip-rule="evenodd" d="M25.2002 14.7211C26.3756 14.1088 27.5021 13.1293 28.7021 13.0068C29.6327 12.9089 30.6858 13.8884 31.7878 14.4272C32.8163 14.5741 34.1387 14.5986 35.3632 14.9415C36.8815 15.3823 37.1264 16.4108 36.5877 17.9537C35.7795 20.2067 36.3673 20.672 38.7182 21.5291C39.8692 21.9454 41.2161 23.2433 41.461 24.3698C41.7304 25.5698 40.8488 27.0392 40.31 28.9493C44.8405 31.9125 47.265 37.1777 48.1221 43.0307C48.7098 46.9979 48.6609 51.1121 48.367 55.1283C48.1711 57.7487 46.2119 59.7323 43.5671 60.2221C34.2857 61.9609 25.4695 61.1282 18.3187 54.1733C13.6902 49.6672 12.3188 44.0592 13.2984 37.6675C13.6902 35.0472 13.4208 32.3044 13.1514 29.635C12.8331 26.4514 13.7637 24.7862 16.8493 23.978C18.833 23.4393 20.4492 21.2107 19.5921 19.472C18.2942 16.9006 20.1799 15.9455 21.4288 14.6966C22.8492 13.2762 23.8532 15.0149 25.0287 15.4068C25.1022 15.4068 25.1757 15.4068 25.2736 15.4313C25.2491 15.1864 25.2246 14.9415 25.2002 14.7211ZM19.3717 31.1534C18.4901 32.2554 17.7554 32.9656 17.2656 33.7982C13.6657 40.0185 14.9636 48.0265 20.4982 53.0468C26.5716 58.5813 33.9918 59.2181 41.6569 58.2385C45.012 57.7977 46.3589 55.912 46.6038 52.459C46.9466 47.3408 46.2854 42.3205 44.0814 37.7165C42.8814 35.2186 40.7508 33.1615 38.8652 31.0554C38.5713 30.7126 37.004 30.933 36.5877 31.3983C34.4571 33.7492 33.502 36.3696 35.1918 39.5042C35.4612 40.0185 35.1183 40.8756 35.0448 41.5613C34.4081 41.2185 33.502 41.0225 33.1837 40.4838C31.347 37.5206 31.5919 34.4349 33.4775 31.6676C34.8489 29.6595 36.8081 28.0187 38.4244 26.1576C38.8162 25.7168 38.9141 25.0066 39.159 24.4188C38.5468 24.2229 37.8121 23.7331 37.2979 23.8801C35.9509 24.3454 34.604 24.9086 33.453 25.7412C29.0695 28.8514 25.494 32.6472 23.7553 37.9124C23.5594 38.4512 22.8002 38.7695 22.3104 39.1858C22.0166 38.7695 21.4043 38.2308 21.5023 37.9369C22.4329 35.2431 20.0084 33.7737 19.3717 31.1534ZM22.6043 32.7697C26.596 28.9738 30.4164 25.3249 33.9918 21.8964C33.9918 20.2312 33.9918 18.5659 33.9918 16.8761C32.7673 17.5129 31.347 18.7863 30.6858 18.4679C29.7062 18.0026 29.2654 16.4353 28.4327 15.0884C28.0899 15.8231 27.7226 16.3619 27.5756 16.9496C27.0369 18.9577 25.9838 19.1291 24.441 17.9292C24.1961 17.7333 23.9267 17.5129 23.6328 17.4394C23.1675 17.3169 22.4819 17.0965 22.2125 17.3169C21.9431 17.5373 22.0166 18.2475 21.9921 18.7373C21.9186 19.7169 22.0655 20.7209 21.7962 21.627C20.5717 25.5698 20.988 29.3167 22.6043 32.7697ZM15.9922 30.9575C19.0778 28.484 19.0778 28.484 18.3187 26.2555C15.1841 26.6718 14.8412 27.3086 15.9922 30.9575Z" fill="#005897" style="fill:#005897;fill:color(display-p3 0.0000 0.3451 0.5922);fill-opacity:1;"/>
<path d="M18.7578 46.7775C18.7578 46.7775 19.1496 46.5571 19.8353 46.2142" stroke="#005897" style="stroke:#005897;stroke:color(display-p3 0.0000 0.3451 0.5922);stroke-opacity:1;" stroke-width="0.5" stroke-miterlimit="10"/>
<path d="M21.8672 45.3083C26.5446 43.4226 35.5322 40.8757 42.1443 45.847" stroke="#005897" style="stroke:#005897;stroke:color(display-p3 0.0000 0.3451 0.5922);stroke-opacity:1;" stroke-width="0.5" stroke-miterlimit="10" stroke-dasharray="0.91 0.91"/>
<path d="M43.0273 46.5571C43.3212 46.8265 43.6396 47.1204 43.909 47.4143" stroke="#005897" style="stroke:#005897;stroke:color(display-p3 0.0000 0.3451 0.5922);stroke-opacity:1;" stroke-width="0.5" stroke-miterlimit="10"/>
<path d="M39.0882 36.5652C38.2801 36.5652 37.4719 36.2958 36.8352 35.806C36.6638 35.6591 36.4434 35.4877 36.4434 35.2428C36.4434 35.0469 36.5168 34.8509 36.7372 34.6305C42.7861 28.6062 48.8349 22.5573 54.8593 16.5085C55.1287 16.2391 55.447 15.9697 55.9368 15.9697C56.3041 15.9942 56.5735 16.1167 56.7939 16.3371L57.2102 16.7289C57.4551 16.9493 57.6755 17.1942 57.8959 17.4146C58.4347 18.0023 58.4347 18.688 57.8715 19.2513L47.537 29.6347C47.3166 29.8551 47.0962 29.9531 46.8023 29.9531C46.7044 29.9531 46.6064 29.9531 46.484 29.9286C46.386 29.9041 46.288 29.8306 46.2146 29.7572C45.8717 29.8306 45.7248 29.9286 45.6023 30.051C45.3085 30.2715 45.0881 30.4674 45.1126 30.7857C45.2595 31.9367 44.6228 32.6469 43.9371 33.2591C43.4963 33.651 43.1044 34.0673 42.6881 34.5081C42.3208 34.8999 41.929 35.2673 41.5371 35.6346C40.9004 36.2223 40.0188 36.5652 39.0882 36.5652ZM44.5248 28.1409C44.4513 28.1409 44.3534 28.2144 44.2065 28.3613C42.6636 29.9041 37.6923 34.8999 37.6923 34.8999C37.6188 34.9734 37.5454 35.0469 37.4964 35.1448C37.4719 35.2673 37.5454 35.3162 37.6923 35.3897C38.1821 35.6591 38.6229 35.7815 39.0882 35.7815C39.8229 35.7815 40.5331 35.4877 41.0473 34.9734C41.6106 34.4346 42.1494 33.8959 42.6881 33.3571L44.035 32.0102C44.2065 31.8388 44.2799 31.6429 44.2554 31.4469C44.133 30.6143 44.4269 29.9041 45.1615 29.3653C45.3574 29.2184 45.4064 29.1205 45.4064 29.0715C45.4064 28.998 45.333 28.9245 45.186 28.8266C45.0391 28.7286 44.8922 28.5817 44.7697 28.3858C44.6717 28.1899 44.5983 28.1409 44.5248 28.1409ZM46.1166 26.4266C45.5779 26.843 45.2595 27.0878 45.2595 27.3327C45.235 27.5531 45.4799 27.847 45.9452 28.3123C46.2146 28.5817 46.337 28.7041 46.435 28.8266C46.5574 28.9735 46.6554 29.0715 46.8023 29.1205C46.9492 29.0715 47.8798 28.2144 47.9288 28.0429L46.337 26.4511L46.2636 26.4021V26.2062L46.1166 26.4266ZM55.8144 16.8269C55.7164 16.8269 55.6184 16.9493 55.5205 17.0473C52.9981 19.5696 50.6226 21.9451 48.2227 24.3451C48.0758 24.492 47.9288 24.6144 47.7574 24.7614C47.3656 25.0797 46.9737 25.4226 46.9493 25.7409C46.9248 26.0348 47.2676 26.3042 47.6349 26.5981C47.8554 26.7695 48.0758 26.9409 48.2472 27.1613C48.3696 27.3083 48.4676 27.3817 48.5411 27.3817C48.6145 27.3817 48.7125 27.3083 48.8594 27.1858C50.6226 25.3981 52.4104 23.6104 54.1981 21.8471L56.6715 19.3737C57.1858 18.8839 57.4551 18.5901 57.4551 18.3942C57.4551 18.1738 57.1368 17.8799 56.647 17.3901C56.3286 17.0473 56.1817 16.8758 55.8878 16.8758L55.8633 16.7289V16.8269H55.8144Z" fill="#005897" style="fill:#005897;fill:color(display-p3 0.0000 0.3451 0.5922);fill-opacity:1;"/>
<path d="M55.9617 16.1168H55.9862C56.2311 16.1413 56.5004 16.2393 56.6963 16.4352C57.0637 16.8025 57.4555 17.1454 57.7984 17.5372C58.2882 18.0515 58.2882 18.6637 57.7984 19.178C54.3454 22.631 50.8924 26.084 47.4394 29.5369C47.2435 29.7328 47.0476 29.8063 46.8027 29.8063C46.7047 29.8063 46.6313 29.8063 46.5333 29.7818C46.3619 29.7328 46.2149 29.5124 46.068 29.5124C46.019 29.5124 45.9456 29.5369 45.8721 29.6104C45.5537 29.9777 44.8925 30.2226 44.966 30.7859C45.1129 31.8389 44.5497 32.4756 43.8395 33.1124C43.0069 33.8715 42.2477 34.7287 41.4395 35.4878C40.7783 36.1001 39.9212 36.4184 39.0641 36.4184C38.3049 36.4184 37.5458 36.1735 36.909 35.6837C36.4927 35.3654 36.4437 35.1205 36.8356 34.7287C42.8844 28.7043 48.9333 22.6555 54.9576 16.6066C55.2515 16.3372 55.5209 16.1168 55.9617 16.1168ZM48.5414 27.5043C48.6639 27.5043 48.7863 27.4309 48.9577 27.2594C51.5536 24.6391 54.1495 22.0432 56.7453 19.4474C57.8473 18.3453 57.8473 18.3453 56.6963 17.2433C56.4759 17.0229 56.329 16.6801 55.8392 16.6801H55.8147C55.6188 16.6801 55.4719 16.9005 55.3005 17.0719C52.9005 19.4474 50.5251 21.8473 48.1251 24.2473C47.6353 24.737 46.8517 25.2023 46.8272 25.7411C46.7782 26.3288 47.7088 26.7207 48.1496 27.2594C48.2965 27.4064 48.419 27.5043 48.5414 27.5043ZM46.7537 29.2431C46.9496 29.2431 48.0761 28.2145 48.0761 28.0431C48.0761 27.9696 48.0027 27.8717 47.9292 27.8227C47.4394 27.3329 46.9251 26.8431 46.4354 26.3288C46.3619 26.2554 46.3129 26.2309 46.2394 26.2309C46.166 26.2309 46.117 26.2799 46.019 26.3288C44.8435 27.2105 44.7946 27.4064 45.8231 28.4349C45.9945 28.6063 46.166 28.7533 46.3129 28.9247C46.4598 29.0472 46.5823 29.1941 46.7537 29.2431ZM39.0886 35.8797C39.8233 35.8797 40.5824 35.5858 41.1702 35.047C42.1742 34.0674 43.1538 33.0634 44.1578 32.0838C44.3538 31.8879 44.4517 31.6675 44.4272 31.3981C44.2803 30.5655 44.6231 29.9288 45.2844 29.4635C45.6272 29.1941 45.7252 28.9492 45.3088 28.6798C45.1619 28.5819 45.015 28.4349 44.917 28.288C44.7946 28.1166 44.6721 28.0431 44.5497 28.0431C44.4272 28.0431 44.2803 28.141 44.1334 28.288C41.9783 30.4675 39.7988 32.6471 37.6192 34.8021C37.4968 34.9246 37.3988 35.047 37.3253 35.145C37.3743 35.4144 37.5702 35.4633 37.7417 35.5368C38.1335 35.7572 38.5988 35.8797 39.0886 35.8797ZM55.9617 15.823C55.4229 15.823 55.0556 16.0923 54.7617 16.3862C48.7129 22.4351 42.6885 28.4594 36.6396 34.5083C36.4927 34.6552 36.2723 34.9001 36.2968 35.2184C36.3213 35.5368 36.5417 35.7572 36.7621 35.9041C37.4233 36.4184 38.2559 36.6878 39.1131 36.6878C40.0681 36.6878 40.9987 36.3205 41.6844 35.6837C42.0763 35.3164 42.4681 34.9246 42.8354 34.5327C43.2517 34.1164 43.6436 33.7001 44.0844 33.3083C44.7946 32.6716 45.4558 31.9369 45.2844 30.7124C45.2599 30.492 45.4068 30.3696 45.7252 30.1247C45.8476 30.0267 45.9945 29.9043 46.117 29.7818C46.117 29.8063 46.1415 29.8063 46.166 29.8308C46.2639 29.9043 46.3619 30.0022 46.5088 30.0267C46.6313 30.0512 46.7292 30.0757 46.8517 30.0757C47.17 30.0757 47.4394 29.9533 47.6843 29.7084L50.672 26.7207C53.1209 24.2717 55.5943 21.7983 58.0433 19.3494C58.6555 18.7372 58.6555 17.9535 58.0677 17.3168C57.8473 17.0719 57.6025 16.827 57.3576 16.6066C57.2351 16.4842 57.0882 16.3372 56.9657 16.2148C56.7208 15.9699 56.427 15.823 56.0596 15.7985H56.0351H55.9617V15.823ZM48.5414 27.2105C48.5414 27.2105 48.468 27.186 48.37 27.039C48.1986 26.8186 47.9537 26.6472 47.7333 26.4513C47.4149 26.2064 47.0966 25.937 47.1211 25.7166C47.1455 25.4717 47.5374 25.1289 47.8802 24.835C48.0516 24.6881 48.2231 24.5411 48.3455 24.4187C50.672 22.0922 52.9985 19.7657 55.325 17.4392L55.5209 17.2433C55.5698 17.1943 55.5943 17.1454 55.6433 17.0964C55.6923 17.0474 55.7902 16.925 55.8392 16.925C56.0841 16.925 56.1821 17.0229 56.3535 17.2188C56.4025 17.2678 56.4515 17.3413 56.5004 17.3903C56.9412 17.8311 57.2596 18.1249 57.2841 18.2964C57.2841 18.4433 56.9902 18.7617 56.5494 19.178L54.2474 21.48C52.4107 23.3167 50.574 25.1534 48.7618 26.9901C48.6149 27.186 48.5414 27.2105 48.5414 27.2105ZM46.7537 28.9247C46.7047 28.9002 46.6313 28.8023 46.5578 28.7288C46.4354 28.6063 46.3129 28.4839 46.2149 28.3614L46.0435 28.2145C45.7252 27.8962 45.3823 27.5533 45.4068 27.3574C45.4313 27.1615 45.8231 26.8431 46.2149 26.5492L46.2394 26.5248L46.9251 27.2105C47.1945 27.4798 47.4639 27.7492 47.7333 28.0186L47.7578 28.0431C47.5619 28.2635 46.9986 28.8023 46.7537 28.9247ZM37.6437 35.145C37.6927 35.096 37.7417 35.0225 37.7906 34.9735L39.7253 33.0634C41.2681 31.5206 42.7865 30.0022 44.3293 28.4594C44.4762 28.3125 44.5252 28.288 44.5497 28.288C44.5497 28.288 44.5987 28.3125 44.6721 28.4104C44.8191 28.6063 44.966 28.7533 45.1374 28.8757C45.2599 28.9492 45.2844 28.9982 45.2844 29.0227C45.2844 29.0227 45.2599 29.0716 45.0884 29.1941C44.3048 29.7818 43.9864 30.541 44.1089 31.4226C44.1334 31.5451 44.1089 31.6675 43.9374 31.8634C43.4966 32.3042 43.0558 32.7205 42.615 33.1613C42.0518 33.7246 41.513 34.2634 40.9253 34.8266C40.4355 35.3164 39.7498 35.5858 39.0641 35.5858C38.6233 35.5858 38.207 35.4633 37.8396 35.2674L37.7417 35.2184C37.6927 35.194 37.6682 35.1695 37.6437 35.145Z" fill="#005897" style="fill:#005897;fill:color(display-p3 0.0000 0.3451 0.5922);fill-opacity:1;"/>
<path d="M37.2988 35.1204C37.3478 35.3897 37.5437 35.4387 37.7151 35.5122C38.7927 36.1244 40.213 35.953 41.1681 35.0224C42.1722 34.0428 43.1518 33.0388 44.1558 32.0592C44.3517 31.8633 44.4497 31.6429 44.4252 31.3735C44.2783 30.5409 44.6211 29.9041 45.2823 29.4388C45.6252 29.1695 45.7231 28.9246 45.3068 28.6552C45.1599 28.5572 45.0129 28.4103 44.915 28.2634C44.6456 27.896 44.4252 27.9695 44.1313 28.2634C41.9763 30.4429 39.7967 32.6224 37.6172 34.7775C37.4703 34.8755 37.3723 34.9979 37.2988 35.1204Z" fill="#CEE9F9" style="fill:#CEE9F9;fill:color(display-p3 0.8078 0.9137 0.9765);fill-opacity:1;"/>
</svg>
