<svg width="69" height="69" viewBox="0 0 69 69" fill="none" xmlns="http://www.w3.org/2000/svg">
<rect width="69" height="69" rx="34.5" fill="#CBD5E1" style="fill:#CBD5E1;fill:color(display-p3 0.7961 0.8353 0.8824);fill-opacity:1;"/>
<path d="M20.2607 58.9999C19.9727 58.9999 19.6847 58.7599 19.6847 58.4239C19.6847 55.4959 19.2047 53.2879 18.2447 51.6559C17.7647 50.8399 17.0927 50.0719 16.3727 49.2079C14.2127 46.6639 11.5247 43.4479 13.9727 38.7919C15.4607 35.9599 19.7807 31.7839 23.1887 33.5599C24.1487 34.0399 24.7727 34.9039 25.3487 35.7679C25.4447 35.9119 25.5407 36.0559 25.6367 36.1519C27.1727 38.2639 29.2367 40.1359 31.3007 41.2399C32.5487 41.9119 33.0287 43.5439 32.3567 44.8399C30.2447 48.8719 29.7167 53.6239 30.9167 57.9439C31.0127 58.2319 30.8207 58.5679 30.5327 58.6159C30.2447 58.7119 29.9087 58.5199 29.8607 58.2319C28.6127 53.6239 29.1887 48.5839 31.3967 44.3119C31.7807 43.5439 31.5407 42.6319 30.7727 42.1999C28.5167 40.9999 26.4047 39.0319 24.7247 36.7759C24.6287 36.6319 24.5327 36.4879 24.4367 36.3439C23.9087 35.5759 23.3807 34.8559 22.6607 34.5199C20.0207 33.1759 16.1807 36.9679 14.9807 39.2719C12.8687 43.3039 15.0767 45.9439 17.2847 48.5359C18.0047 49.3999 18.7247 50.2159 19.2527 51.1279C20.3567 52.9039 20.8847 55.3039 20.8847 58.4719C20.8367 58.7599 20.5967 58.9999 20.2607 58.9999Z" fill="#21529A" style="fill:#21529A;fill:color(display-p3 0.1294 0.3216 0.6039);fill-opacity:1;"/>
<path d="M27.605 39.8C27.461 39.8 27.317 39.752 27.221 39.656C26.981 39.416 26.981 39.08 27.221 38.84L31.109 34.952C31.349 34.712 31.685 34.712 31.925 34.952C32.165 35.192 32.165 35.528 31.925 35.768L28.037 39.656C27.893 39.752 27.749 39.8 27.605 39.8Z" fill="#21529A" style="fill:#21529A;fill:color(display-p3 0.1294 0.3216 0.6039);fill-opacity:1;"/>
<path d="M33 36L30.5 33.5V31L32 30L34 30.5L36.5 31.5L38 34.5L36 36H33Z" fill="#CEE3F9" style="fill:#CEE3F9;fill:color(display-p3 0.8078 0.8902 0.9765);fill-opacity:1;"/>
<path d="M34.373 36.776C33.269 36.776 32.165 36.344 31.301 35.528C29.621 33.848 29.621 31.064 31.301 29.384C31.541 29.144 31.877 29.144 32.117 29.384C32.357 29.624 32.357 29.96 32.117 30.2C30.869 31.448 30.869 33.512 32.117 34.76C33.365 36.008 35.429 36.008 36.677 34.76C36.917 34.52 37.253 34.52 37.493 34.76C37.733 35 37.733 35.336 37.493 35.576C36.581 36.344 35.477 36.776 34.373 36.776Z" fill="#21529A" style="fill:#21529A;fill:color(display-p3 0.1294 0.3216 0.6039);fill-opacity:1;"/>
<path d="M38.5 36L31 28.5L32 27.5L34 27L36 27.5L38.5 28.5L40 31.5L39.5 34.5L38.5 36Z" fill="#CEE3F9" style="fill:#CEE3F9;fill:color(display-p3 0.8078 0.8902 0.9765);fill-opacity:1;"/>
<path d="M38.0676 36.4399C37.7796 36.4399 37.4916 36.3439 37.2516 36.1039L30.6756 29.5759C30.2436 29.1439 30.2436 28.4239 30.6756 27.9919C32.9316 25.7359 36.5796 25.7359 38.8356 27.9919C41.0916 30.2479 41.0916 33.8959 38.8356 36.1519C38.6436 36.3439 38.3556 36.4399 38.0676 36.4399ZM34.7556 27.3679C33.5556 27.3679 32.3556 27.7999 31.4916 28.7119L38.0676 35.2879C39.8916 33.4639 39.8916 30.5359 38.0676 28.7119C37.1556 27.8479 35.9556 27.3679 34.7556 27.3679Z" fill="#21529A" style="fill:#21529A;fill:color(display-p3 0.1294 0.3216 0.6039);fill-opacity:1;"/>
<path d="M55.6832 26.072C53.4272 26.072 51.2192 25.352 49.3952 24.056C47.4752 22.712 46.0352 20.744 45.3632 18.488C44.6432 16.184 44.6912 13.784 44.8352 11.528C44.8352 11.24 45.1232 11 45.4112 11C45.6992 11 45.9392 11.288 45.9392 11.576C45.7952 13.736 45.7472 16.04 46.4192 18.152C47.0432 20.168 48.3392 21.944 50.0672 23.144C51.7952 24.344 53.8592 25.016 55.9712 24.92C56.3072 24.92 56.5472 25.16 56.5472 25.448C56.5472 25.736 56.3072 26.024 56.0192 26.024C55.8752 26.072 55.7792 26.072 55.6832 26.072Z" fill="#21529A" style="fill:#21529A;fill:color(display-p3 0.1294 0.3216 0.6039);fill-opacity:1;"/>
<path d="M34.5151 27.368C34.4671 27.368 34.3711 27.368 34.3231 27.32C34.0351 27.224 33.8911 26.888 33.9871 26.6C35.4271 22.472 34.9471 17.72 32.6431 13.976C32.4991 13.736 32.5471 13.4 32.8351 13.256C33.1231 13.112 33.4591 13.16 33.6031 13.448C36.0511 17.48 36.5791 22.568 35.0431 27.032C34.9471 27.224 34.7551 27.368 34.5151 27.368Z" fill="#21529A" style="fill:#21529A;fill:color(display-p3 0.1294 0.3216 0.6039);fill-opacity:1;"/>
<path d="M39.9884 33.896C39.7964 33.896 39.6524 33.8 39.5084 33.656C39.3164 33.416 39.4124 33.032 39.6524 32.888C40.8524 32.072 42.2444 31.736 43.4924 31.592C47.4284 31.016 51.5084 31.304 55.3004 32.504C55.5884 32.6 55.7804 32.936 55.6844 33.224C55.5884 33.512 55.2524 33.704 54.9644 33.608C51.3164 32.456 47.4284 32.168 43.6364 32.744C42.5324 32.888 41.2844 33.176 40.3244 33.848C40.1804 33.848 40.0844 33.896 39.9884 33.896Z" fill="#21529A" style="fill:#21529A;fill:color(display-p3 0.1294 0.3216 0.6039);fill-opacity:1;"/>
</svg>
