<svg width="69" height="69" viewBox="0 0 69 69" fill="none" xmlns="http://www.w3.org/2000/svg">
<rect width="69" height="69" rx="34.5" fill="#CBD5E1" style="fill:#CBD5E1;fill:color(display-p3 0.7961 0.8353 0.8824);fill-opacity:1;"/>
<path d="M53.0339 11.1067C52.462 11.3036 52.1152 11.5005 51.0652 12.2599C50.0339 13.0005 49.8839 13.2255 50.0808 13.7036C50.1933 13.9661 50.5214 14.1724 50.8214 14.1724C50.9152 14.1724 51.4495 13.8536 52.0027 13.4599C52.5464 13.0661 53.1464 12.6911 53.3245 12.6161C54.337 12.1942 55.5839 12.8411 55.8933 13.9474C56.1277 14.7911 55.7433 15.6536 54.8902 16.1692C54.2433 16.5536 46.8652 20.6224 46.6777 20.6974C46.5839 20.7255 46.3214 20.3974 45.8245 19.6099C45.4308 18.9817 45.112 18.438 45.112 18.4005C45.112 18.363 45.9464 17.7442 46.9683 17.0224C47.9808 16.3099 48.9089 15.6255 49.0308 15.513C49.312 15.2317 49.312 14.7442 49.0214 14.4724C48.5995 14.0786 48.3652 14.1724 46.5277 15.4661L44.812 16.6661L44.1464 16.4505C43.7714 16.3286 42.9464 16.113 42.2995 15.9724L41.1277 15.7192H34.987H28.8464L27.6652 15.9724C25.4339 16.4599 23.5589 17.2192 21.712 18.3911C19.837 19.5817 18.0558 20.5849 17.512 20.763C17.0902 20.8942 16.7339 20.9317 16.1433 20.913C14.137 20.8474 13.7808 20.8755 13.2183 21.1286C12.0839 21.6536 11.2964 22.7224 11.0714 24.0442C11.0152 24.4099 10.987 25.3005 11.0058 26.2005C11.0433 27.5505 11.0714 27.7942 11.287 28.4036C11.6058 29.2942 12.0277 29.988 12.7027 30.7192L13.237 31.3099V31.9661C13.237 33.0911 13.7152 34.2536 14.5308 35.0974C14.962 35.5567 15.4589 35.5942 15.7589 35.2099C16.0683 34.8255 15.9933 34.4599 15.5245 33.9536C15.2902 33.6911 14.8777 32.913 14.7839 32.538L14.7183 32.2849L15.3277 32.3317C15.8339 32.3786 16.012 32.3505 16.3777 32.1724C16.8933 31.9192 17.3245 31.3755 17.4089 30.8599C17.4464 30.6536 17.5214 30.4849 17.587 30.4849C17.7652 30.4849 18.5902 31.0286 18.9839 31.4036C19.1808 31.6005 19.5089 32.0317 19.7058 32.3692C20.1089 33.0536 20.3527 33.2505 20.9152 33.3817C21.6745 33.5505 22.687 33.1005 23.9245 32.0411L24.5339 31.5255L24.8152 31.8067L25.0964 32.088L24.6745 32.463C23.5214 33.4849 22.4995 34.0567 21.0839 34.4692C20.6339 34.6005 19.9402 34.863 19.537 35.0505C18.862 35.388 18.7683 35.4067 18.037 35.388C17.3245 35.3599 17.2402 35.3786 17.0245 35.5942C16.6683 35.9599 16.7902 36.5786 17.2589 36.7474C18.0652 37.0567 19.087 36.9349 20.2495 36.4005C20.6995 36.2036 21.4027 35.9411 21.8058 35.8286C23.0902 35.4911 24.787 34.488 25.9027 33.4192L26.2402 33.1005L26.8214 33.738C27.5245 34.5161 28.162 35.7255 28.387 36.7286C28.5183 37.3286 28.5277 37.6474 28.462 38.538C28.3402 40.2536 28.3683 41.2661 28.537 41.7349C28.6214 41.9692 28.7152 42.5599 28.7433 43.0474C28.7995 44.0786 29.0058 45.288 29.5308 47.7817C30.3745 51.7474 30.5339 53.1067 30.4495 55.788C30.4214 56.8474 30.3652 57.8974 30.337 58.113C30.2902 58.4505 30.3183 58.5442 30.5245 58.7411L30.7589 58.9849H34.987H39.2152L39.4495 58.7505C39.6839 58.5161 39.6839 58.488 39.6089 57.7849C39.5058 56.8286 39.5152 53.388 39.6183 52.1317L39.7027 51.1474L39.4402 50.9411C39.1027 50.6786 38.812 50.6786 38.4933 50.9505C38.2683 51.1474 38.2308 51.2692 38.1089 52.3286C38.0245 53.1067 37.987 54.1661 38.0058 55.4974L38.0339 57.4849H37.5464H37.0683L37.0027 56.4817C36.9183 55.2536 37.0589 51.3536 37.3402 47.2849L37.5558 44.2661H37.9964C38.2402 44.2661 38.7089 44.1817 39.037 44.0786C39.3558 43.9755 39.6277 43.8911 39.637 43.8911C39.6745 43.8911 39.4214 45.2224 39.112 46.7411C38.6714 48.8411 38.662 49.038 38.9527 49.3099C39.3745 49.7036 40.0589 49.488 40.1902 48.9349C40.7808 46.3567 41.1558 44.2567 41.2308 43.0661C41.2589 42.5692 41.3527 41.9692 41.437 41.7349C41.5589 41.4067 41.587 41.0692 41.5589 40.188C41.4745 37.3755 41.4933 36.8599 41.7558 36.1005C42.0839 35.1724 42.5245 34.4224 43.1995 33.6911L43.7339 33.1005L44.0714 33.4192C45.2245 34.5255 46.8558 35.4724 48.2902 35.8755C48.7683 36.0067 49.4527 36.2599 49.7995 36.438C51.5433 37.3099 53.5495 36.9255 55.1339 35.4161C56.1745 34.4224 56.737 33.213 56.737 31.9661V31.3099L57.2808 30.7192C57.9464 29.988 58.3683 29.2942 58.687 28.4036C58.9027 27.8036 58.9308 27.5411 58.9683 26.2567C58.987 25.4317 58.9589 24.4942 58.9027 24.1005C58.6964 22.7505 57.9183 21.6724 56.7558 21.1286C56.1933 20.8661 55.8464 20.838 53.8308 20.9224C53.2402 20.9505 52.9027 20.913 52.5183 20.7911C51.9745 20.6036 51.112 20.163 51.112 20.0692C51.112 20.0317 52.2183 19.3942 53.5683 18.663C56.1933 17.2192 56.7089 16.8349 57.1027 16.0192C57.9745 14.2099 57.2339 12.1099 55.4433 11.2849C54.8058 10.9942 53.6433 10.9099 53.0339 11.1067ZM41.962 17.4349C43.5277 17.7724 43.5089 17.763 43.4902 18.2974L43.4714 18.7567L41.887 19.7505C41.0152 20.2942 40.2183 20.7911 40.1245 20.838C40.0027 20.9036 39.5245 20.8567 38.4745 20.6692C37.1808 20.4442 36.7589 20.4161 35.0339 20.4067C33.3464 20.4067 32.8308 20.4442 31.4058 20.6692C30.4964 20.8099 29.212 20.9505 28.5558 20.9692C27.7308 21.0067 27.262 21.0724 27.037 21.1755C26.6058 21.3817 26.2027 21.963 26.1183 22.488C26.0058 23.2286 26.1839 23.5661 27.2433 24.663C28.3214 25.788 28.7995 26.463 29.4558 27.813C29.8589 28.638 30.5808 30.5411 30.5808 30.7755C30.5808 30.8224 29.5964 30.8599 28.3027 30.8599H26.0152L25.2277 29.9692C23.3339 27.8224 22.3027 25.7599 21.7777 23.0786C21.6277 22.3474 21.5245 22.0474 21.3839 21.9255C21.1495 21.7286 20.7745 21.7192 20.4558 21.9067C20.1089 22.1036 20.0808 22.0849 20.0808 21.5974V21.1567L20.9995 20.613C21.4964 20.313 22.2464 19.863 22.6589 19.6005C24.6277 18.3536 26.9058 17.5567 29.4089 17.2286C29.5683 17.2099 32.2402 17.2005 35.362 17.2192C40.7714 17.238 41.0808 17.2474 41.962 17.4349ZM44.5308 20.4067L44.7277 20.7255L44.1183 21.1099C43.4058 21.5599 43.2183 21.8411 42.9933 22.7224C42.8527 23.3224 42.7964 23.4067 42.4027 23.6974C41.587 24.288 40.2277 24.9255 39.487 25.0474C38.737 25.1692 37.6214 25.1317 37.012 24.9536L36.6464 24.8411L36.9652 24.6442C38.8308 23.4536 44.2402 20.088 44.287 20.0786C44.3152 20.0786 44.4277 20.2286 44.5308 20.4067ZM49.6589 21.0349C49.8652 21.1286 49.8933 21.1942 49.8933 21.5974C49.8933 22.0849 49.8652 22.1036 49.5183 21.9067C49.1995 21.7192 48.8245 21.7286 48.5902 21.9255C48.4495 22.0474 48.3464 22.3474 48.1964 23.0786C47.6714 25.7599 46.6402 27.8224 44.7464 29.9692L43.9589 30.8599H41.6714C40.4245 30.8599 39.3933 30.8224 39.3933 30.7849C39.3933 30.5692 40.087 28.6849 40.4527 27.9255C41.212 26.3224 41.3808 26.1161 42.5902 25.3849C43.9777 24.5317 44.1089 24.3911 44.3714 23.4067C44.5777 22.6192 44.587 22.6005 45.0464 22.3192C45.5058 22.038 45.5245 22.0286 45.8339 22.1786C46.4527 22.4692 46.8277 22.3849 48.1589 21.6349C48.8339 21.2505 49.387 20.9411 49.3964 20.9317C49.4058 20.9224 49.5277 20.9692 49.6589 21.0349ZM36.937 21.963C37.4339 22.0192 37.8745 22.0942 37.9214 22.1317C37.9589 22.1692 37.2277 22.6755 36.2995 23.2567C35.3714 23.8286 34.5558 24.4005 34.4714 24.513C34.1245 25.0099 34.4245 25.4692 35.3902 25.9286C36.4027 26.4161 37.1245 26.5755 38.3339 26.5849C38.9152 26.5942 39.3933 26.6036 39.3933 26.6224C39.3933 26.6317 39.2527 26.9317 39.0745 27.2786C38.7277 27.9817 38.2777 29.163 37.9777 30.1755L37.7808 30.8599H34.987H32.1933L31.9964 30.1755C31.462 28.3849 30.6558 26.6036 29.8027 25.3286C29.5402 24.9442 28.9308 24.2224 28.4527 23.7255C27.8339 23.0786 27.5902 22.7786 27.637 22.6661C27.7027 22.5067 28.0777 22.3661 28.2183 22.4599C28.3402 22.5349 30.5058 22.3474 31.8464 22.1411C32.5214 22.038 33.1964 21.9442 33.3464 21.9255C33.9933 21.8411 36.1027 21.8692 36.937 21.963ZM18.5808 22.4599C18.5808 22.8724 18.5808 22.8724 18.1214 23.0317C17.3995 23.2661 16.387 23.3411 15.3652 23.238C14.5777 23.1536 14.4089 23.163 14.1277 23.2942C13.4902 23.5942 13.3308 24.0911 13.3214 25.8536C13.3214 26.8661 13.3495 27.1755 13.5089 27.6349C13.7902 28.413 14.3058 29.1255 14.9152 29.5474C15.8339 30.1849 15.9652 30.3067 15.937 30.513C15.9183 30.6161 15.8339 30.7474 15.7402 30.8036C15.2902 31.0849 13.5183 29.6224 12.9933 28.5161C12.5714 27.6442 12.4777 27.1286 12.4777 25.8442C12.487 24.138 12.6464 23.4911 13.2089 22.9755C13.8464 22.3849 13.8745 22.3755 15.8058 22.3755C17.2495 22.3661 17.6714 22.338 17.9714 22.2161C18.5433 21.9817 18.5808 22.0005 18.5808 22.4599ZM52.1714 22.2442C52.7714 22.4317 52.9683 22.4411 54.2714 22.3942C55.8839 22.3286 56.0808 22.3661 56.6808 22.8911C57.3277 23.463 57.4964 24.063 57.487 25.8911C57.487 27.1755 57.3839 27.6817 56.962 28.563C56.4464 29.6224 54.6745 31.0849 54.2339 30.8036C54.1402 30.7474 54.0558 30.6161 54.037 30.513C54.0089 30.3067 54.1402 30.1849 55.0589 29.5474C55.6683 29.1255 56.1839 28.413 56.4652 27.6349C56.6245 27.1755 56.6527 26.8661 56.6527 25.8536C56.6433 24.0911 56.4839 23.5942 55.8464 23.2942C55.5652 23.163 55.3964 23.1536 54.6089 23.238C53.587 23.3411 52.5745 23.2661 51.8527 23.0317C51.3933 22.8724 51.3933 22.8724 51.3933 22.4599C51.3933 22.2349 51.4214 22.0474 51.4495 22.0474C51.4777 22.0474 51.8058 22.1411 52.1714 22.2442ZM20.8027 25.3755C21.2714 26.8849 22.012 28.3099 22.987 29.6411L23.5214 30.363L23.0152 30.8036C22.4808 31.2817 21.5339 31.8911 21.337 31.8911C21.2714 31.8911 21.0277 31.6099 20.8027 31.2536C20.5683 30.9067 20.2027 30.4474 19.9777 30.2317C19.162 29.4536 17.7464 28.7974 16.8839 28.7974C16.2183 28.7974 15.2245 27.9724 14.9808 27.2036C14.8402 26.7724 14.7745 26.0411 14.812 25.1505C14.8308 24.7192 14.8495 24.663 14.9902 24.7192C15.0839 24.7474 15.6652 24.7755 16.2839 24.7755C17.5589 24.7755 18.4214 24.5974 19.6027 24.0817L20.3152 23.7724L20.437 24.2036C20.5027 24.438 20.6714 24.963 20.8027 25.3755ZM51.8245 24.5786C52.5652 24.7755 54.5058 24.8599 54.9558 24.7192C55.1245 24.663 55.1433 24.7005 55.162 25.1599C55.1995 26.0317 55.1339 26.7724 54.9933 27.2036C54.7495 27.9724 53.7558 28.7974 53.0902 28.7974C52.2277 28.7974 50.812 29.4536 49.9964 30.2317C49.7714 30.4474 49.4058 30.9067 49.1714 31.2536C48.9464 31.6099 48.7027 31.8911 48.637 31.8911C48.4402 31.8911 47.4933 31.2817 46.9589 30.8036L46.4527 30.363L46.987 29.6411C48.1777 28.0286 49.0308 26.1911 49.5183 24.1942L49.6308 23.763L50.3527 24.0724C50.7558 24.2505 51.412 24.4755 51.8245 24.5786ZM52.5558 30.8411C52.6308 31.3567 53.0808 31.9192 53.5964 32.1724C53.962 32.3505 54.1402 32.3786 54.6464 32.3317L55.2558 32.2849L55.1902 32.5192C54.8245 33.9724 53.137 35.388 51.7402 35.3974C51.2902 35.4067 51.0464 35.3505 50.6433 35.1536C49.7902 34.7411 49.312 34.5536 48.7683 34.4224C47.6995 34.1786 46.4058 33.4474 45.2995 32.463L44.8777 32.088L45.1589 31.8067L45.4402 31.5255L46.0495 32.0411C48.0652 33.7567 49.387 33.8692 50.2589 32.3786C50.4652 32.0317 50.7933 31.6005 50.9902 31.4036C51.3839 31.0286 52.2089 30.4849 52.387 30.4849C52.4433 30.4849 52.5183 30.6442 52.5558 30.8411ZM31.312 33.8317C31.4714 34.6474 31.7995 36.3724 32.0245 37.6661C32.2589 38.9599 32.5402 40.3942 32.6433 40.8349C32.7464 41.2849 32.8308 41.7911 32.8308 41.9692C32.8308 43.113 31.0589 42.9442 30.2245 41.7349C29.8495 41.1817 29.7933 40.7786 29.9245 39.4661C29.9902 38.8192 30.0183 37.8911 29.9902 37.4036C29.887 35.688 29.137 33.9724 27.9183 32.6599L27.637 32.3599H29.3339H31.0214L31.312 33.8317ZM37.3683 32.613C37.3402 32.763 37.2745 33.0255 37.237 33.2036C37.162 33.513 36.2058 38.7724 36.2058 38.8755C36.2058 38.9036 35.662 38.9224 34.987 38.9224C34.3214 38.9224 33.7683 38.9036 33.7683 38.8755C33.7683 38.7724 32.812 33.513 32.737 33.2036C32.6995 33.0255 32.6339 32.763 32.6058 32.613L32.5495 32.3599H34.987H37.4245L37.3683 32.613ZM42.0558 32.6599C40.837 33.9724 40.087 35.688 39.9839 37.4036C39.9558 37.8911 39.9839 38.8192 40.0495 39.4661C40.1808 40.7786 40.1245 41.1817 39.7495 41.7349C39.112 42.663 37.8839 43.038 37.3308 42.4849C37.087 42.2411 37.0964 41.8661 37.3308 40.8442C37.4339 40.4036 37.6683 39.213 37.8464 38.1911C38.0339 37.1786 38.3527 35.4442 38.5589 34.3474L38.9433 32.3599H40.6402H42.337L42.0558 32.6599ZM35.7933 40.7224C35.7558 40.8911 35.7089 41.3692 35.6808 41.7817C35.6339 42.4474 35.6527 42.5786 35.8589 42.9817C36.1214 43.488 36.1214 43.1224 35.8308 47.4067C35.5589 51.2974 35.4277 54.8411 35.4933 56.238L35.5589 57.4849H34.987H34.4152L34.4714 56.2942C34.5464 54.9255 34.4152 51.2599 34.1433 47.4161C33.8527 43.1224 33.8527 43.488 34.1152 42.9817C34.3214 42.5786 34.3402 42.4474 34.2933 41.7817C34.2652 41.3692 34.2183 40.8911 34.1808 40.7224L34.1245 40.4224H34.987H35.8495L35.7933 40.7224ZM30.937 44.0786C31.2652 44.1817 31.7433 44.2661 31.9964 44.2661H32.4558V44.613C32.4558 44.8099 32.5402 46.1317 32.6433 47.5474C32.9058 51.1849 33.0558 55.2911 32.9714 56.4724L32.9058 57.4849H32.4277H31.9402V55.0661C31.9402 52.2349 31.8745 51.6817 31.0402 47.613C30.562 45.2692 30.2995 43.8911 30.337 43.8911C30.3464 43.8911 30.6183 43.9755 30.937 44.0786Z" fill="#21529A" style="fill:#21529A;fill:color(display-p3 0.1294 0.3216 0.6039);fill-opacity:1;"/>
<path d="M53.5221 13.8536C52.9784 14.2192 52.8752 14.7067 53.2502 15.1286C53.5784 15.513 54.5627 15.1942 54.8346 14.6224C54.9284 14.4442 54.9284 14.313 54.8534 14.088C54.6659 13.5536 54.1034 13.4505 53.5221 13.8536Z" fill="#21529A" style="fill:#21529A;fill:color(display-p3 0.1294 0.3216 0.6039);fill-opacity:1;"/>
</svg>
