<svg width="75" height="75" viewBox="0 0 75 75" fill="none" xmlns="http://www.w3.org/2000/svg">
<g clip-path="url(#clip0_3039_695)">
<path d="M56.5935 59.009C56.872 59.2817 57.195 59.5049 57.5485 59.669C58.1128 59.151 58.647 58.6011 59.1485 58.022C59.1015 58.022 59.0565 58.008 59.0095 58.008C58.8237 58.0084 58.6397 57.9721 58.4681 57.901C58.2964 57.83 58.1406 57.7256 58.0095 57.594L57.3965 56.981C56.951 57.4797 56.4782 57.9535 55.9805 58.4L56.5935 59.009Z" fill="#21529A" style="fill:#21529A;fill:color(display-p3 0.1294 0.3216 0.6039);fill-opacity:1;"/>
<path d="M63.0088 62.008C63.0063 61.1034 62.6469 60.2362 62.0088 59.595L61.4228 59.008C61.3338 58.92 61.2328 58.851 61.1368 58.773C60.7148 59.2983 60.2694 59.802 59.8008 60.284C59.8737 60.3238 59.943 60.37 60.0078 60.422L60.5938 61.009C60.8584 61.2747 61.0075 61.634 61.0088 62.009C61.0074 62.4575 61.095 62.9019 61.2667 63.3163C61.4384 63.7307 61.6906 64.1069 62.0088 64.423L63.2998 65.715L64.7158 64.3L63.4228 63.007C63.291 62.8763 63.1865 62.7206 63.1154 62.5491C63.0444 62.3776 63.0081 62.1937 63.0088 62.008Z" fill="#21529A" style="fill:#21529A;fill:color(display-p3 0.1294 0.3216 0.6039);fill-opacity:1;"/>
<path d="M27 59.6C26.6818 59.9164 26.4297 60.2928 26.258 60.7073C26.0864 61.1219 25.9986 61.5663 26 62.015C26.0008 62.2008 25.9646 62.3849 25.8935 62.5566C25.8224 62.7283 25.7179 62.8841 25.586 63.015L24.293 64.308L25.707 65.722L27 64.429C27.3181 64.1128 27.5703 63.7366 27.742 63.3223C27.9136 62.9079 28.0013 62.4635 28 62.015C27.9992 61.8292 28.0353 61.6451 28.1064 61.4734C28.1775 61.3017 28.2821 61.1459 28.414 61.015L28.671 60.759C28.1923 60.2923 27.7356 59.8057 27.301 59.299L27 59.6Z" fill="#21529A" style="fill:#21529A;fill:color(display-p3 0.1294 0.3216 0.6039);fill-opacity:1;"/>
<path d="M32.414 59.015L32.55 58.878C32.0374 58.4505 31.5493 57.9944 31.088 57.512L31 57.6C30.8692 57.7321 30.7134 57.8369 30.5417 57.9081C30.37 57.9794 30.1859 58.0157 30 58.015C29.6602 58.0201 29.3232 58.076 29 58.181C29.5439 58.7986 30.125 59.3823 30.74 59.929C31.3741 59.7912 31.9552 59.4739 32.414 59.015Z" fill="#21529A" style="fill:#21529A;fill:color(display-p3 0.1294 0.3216 0.6039);fill-opacity:1;"/>
<path d="M34.5002 53.9288L33.4141 55.0149L35.0001 56.6009L36.0862 55.5148L34.5002 53.9288Z" fill="#21529A" style="fill:#21529A;fill:color(display-p3 0.1294 0.3216 0.6039);fill-opacity:1;"/>
<path d="M54.5079 53.9226L52.9219 55.5086L54.008 56.5947L55.594 55.0087L54.5079 53.9226Z" fill="#21529A" style="fill:#21529A;fill:color(display-p3 0.1294 0.3216 0.6039);fill-opacity:1;"/>
<path d="M14.0001 9.414L8.41406 15L19.0001 25.586L24.5861 20L14.0001 9.414ZM13.2931 18.293L17.2931 14.293L18.7071 15.707L14.7071 19.707L13.2931 18.293ZM17.7071 22.707L16.2931 21.293L20.2931 17.293L21.7071 18.707L17.7071 22.707Z" fill="#21529A" style="fill:#21529A;fill:color(display-p3 0.1294 0.3216 0.6039);fill-opacity:1;"/>
<path d="M30.7783 32.807L31.8083 31.778L28.6773 24.737L23.7363 29.678L30.7783 32.807Z" fill="#21529A" style="fill:#21529A;fill:color(display-p3 0.1294 0.3216 0.6039);fill-opacity:1;"/>
<path d="M26.9999 20.4144L19.4141 28.0002L21.0001 29.5863L28.5859 22.0004L26.9999 20.4144Z" fill="#21529A" style="fill:#21529A;fill:color(display-p3 0.1294 0.3216 0.6039);fill-opacity:1;"/>
<path d="M66.0008 45C66.0044 41.0127 64.9233 37.0996 62.8734 33.6796C60.8234 30.2597 57.8818 27.4618 54.3635 25.5856C50.8452 23.7093 46.8829 22.8255 42.9008 23.0287C38.9187 23.2319 35.0668 24.5144 31.7578 26.739L32.5818 28.594C35.9247 26.2437 39.9144 24.988 44.0008 25C47.8286 24.9948 51.5772 26.0897 54.8005 28.1542C58.0238 30.2188 60.5859 33.1661 62.1819 36.6453C63.7779 40.1244 64.3405 43.989 63.8028 47.7788C63.265 51.5686 61.6496 55.1241 59.1488 58.022C59.8754 58.0515 60.573 58.3149 61.1378 58.773C64.2881 54.8743 66.0047 50.0124 66.0008 45Z" fill="#21529A" style="fill:#21529A;fill:color(display-p3 0.1294 0.3216 0.6039);fill-opacity:1;"/>
<path d="M38.6721 53.929C39.0945 53.5088 39.4293 53.009 39.6573 52.4585C39.8852 51.908 40.0017 51.3178 40.0001 50.722C40.0001 50.5345 39.9256 50.3546 39.793 50.2221C39.6604 50.0895 39.4806 50.015 39.2931 50.015C38.6972 50.013 38.1069 50.1294 37.5564 50.3573C37.0058 50.5853 36.5061 50.9203 36.0861 51.343L35.4141 52.015L38.0001 54.6L38.6721 53.929Z" fill="#21529A" style="fill:#21529A;fill:color(display-p3 0.1294 0.3216 0.6039);fill-opacity:1;"/>
<path d="M52.9238 51.337C52.5039 50.9142 52.0041 50.579 51.4536 50.3508C50.9031 50.1227 50.3127 50.0062 49.7168 50.008C49.5293 50.008 49.3495 50.0825 49.2169 50.2151C49.0843 50.3477 49.0098 50.5275 49.0098 50.715C49.008 51.311 49.1244 51.9014 49.3524 52.4521C49.5804 53.0027 49.9153 53.5027 50.3378 53.923L51.0098 54.594L53.6008 52.008L52.9238 51.337Z" fill="#21529A" style="fill:#21529A;fill:color(display-p3 0.1294 0.3216 0.6039);fill-opacity:1;"/>
<path d="M45 45C46.1046 45 47 44.1046 47 43C47 41.8954 46.1046 41 45 41C43.8954 41 43 41.8954 43 43C43 44.1046 43.8954 45 45 45Z" fill="#21529A" style="fill:#21529A;fill:color(display-p3 0.1294 0.3216 0.6039);fill-opacity:1;"/>
<path d="M28.9991 58.181C26.0383 54.8329 24.2903 50.5859 24.0363 46.1236C23.7824 41.6614 25.0373 37.2434 27.5991 33.581L25.7441 32.757C23.0601 36.7408 21.7586 41.4957 22.0395 46.2911C22.3204 51.0865 24.1683 55.6569 27.2991 59.3L27.5841 59.016C27.9801 58.6257 28.466 58.339 28.9991 58.181Z" fill="#21529A" style="fill:#21529A;fill:color(display-p3 0.1294 0.3216 0.6039);fill-opacity:1;"/>
<path d="M31.2925 55.722C31.1051 55.5344 30.9997 55.2801 30.9997 55.015C30.9997 54.7498 31.1051 54.4955 31.2925 54.308L33.1265 52.474C33.0202 52.2889 32.9788 52.0737 33.0089 51.8624C33.039 51.6512 33.1388 51.456 33.2925 51.308L34.6715 49.929C35.2769 49.3201 35.997 48.8375 36.7902 48.5089C37.5835 48.1804 38.434 48.0125 39.2925 48.015C39.6481 48.0148 40.0001 48.0848 40.3286 48.2208C40.6571 48.3568 40.9556 48.5562 41.207 48.8075C41.4584 49.0589 41.6578 49.3574 41.7937 49.6859C41.9297 50.0144 41.9997 50.3665 41.9995 50.722C42.0019 51.5805 41.834 52.431 41.5054 53.2242C41.1769 54.0174 40.6943 54.7376 40.0855 55.343L38.7065 56.722C38.5588 56.8759 38.3638 56.9758 38.1525 57.0057C37.9413 57.0357 37.7262 56.9938 37.5415 56.887L35.7065 58.722C35.519 58.9094 35.2647 59.0148 34.9995 59.0148C34.7344 59.0148 34.4801 58.9094 34.2925 58.722L33.4995 57.929L32.5495 58.878C35.8623 61.6236 40.0522 63.086 44.354 62.9983C48.6557 62.9105 52.7825 61.2784 55.9805 58.4L55.5075 57.927L54.7155 58.719C54.528 58.9065 54.2737 59.0118 54.0085 59.0118C53.7434 59.0118 53.4891 58.9065 53.3015 58.719L51.4665 56.885C51.2816 56.9912 51.0666 57.0325 50.8555 57.0025C50.6444 56.9724 50.4494 56.8726 50.3015 56.719L48.9225 55.341C48.3137 54.7354 47.831 54.0151 47.5025 53.2217C47.1739 52.4284 47.006 51.5777 47.0085 50.719C47.0065 50.3626 47.0754 50.0094 47.2112 49.68C47.347 49.3505 47.547 49.0514 47.7995 48.8C48.3082 48.2939 48.996 48.0089 49.7135 48.007C50.5722 48.0045 51.4228 48.1724 52.216 48.5012C53.0093 48.8299 53.7294 49.3128 54.3345 49.922L55.7155 51.3C55.9031 51.4875 56.0085 51.7418 56.0085 52.007C56.0045 52.1681 55.9609 52.3257 55.8815 52.466L57.7155 54.3C57.903 54.4875 58.0083 54.7418 58.0083 55.007C58.0083 55.2721 57.903 55.5264 57.7155 55.714L56.9215 56.508L57.3945 56.98C60.3625 53.6727 62.0003 49.3833 61.9917 44.9396C61.9831 40.4958 60.3287 36.2128 57.3479 32.917C54.3672 29.6213 50.2712 27.5466 45.8506 27.0932C41.4301 26.6398 36.9983 27.8399 33.4105 30.462L33.9105 31.594C33.9925 31.7787 34.0167 31.9839 33.9797 32.1826C33.9427 32.3813 33.8465 32.5641 33.7035 32.707L33.4135 33L38.7055 38.292L37.2915 39.706L31.9995 34.414L31.7065 34.707C31.5637 34.8499 31.3808 34.9462 31.1821 34.9831C30.9835 35.0201 30.7782 34.996 30.5935 34.914L29.4615 34.414C26.9573 37.8349 25.7466 42.0327 26.0443 46.2617C26.342 50.4908 28.1288 54.4776 31.0875 57.514L32.0875 56.514L31.2925 55.722ZM56.9995 43H58.9995V45H56.9995V43ZM45.9995 58H43.9995V56H45.9995V58ZM51.9995 39H53.9995V41H51.9995V39ZM48.9995 30C49.3951 30 49.7818 30.1173 50.1107 30.337C50.4396 30.5568 50.6959 30.8692 50.8473 31.2346C50.9987 31.6001 51.0383 32.0022 50.9611 32.3902C50.8839 32.7781 50.6935 33.1345 50.4138 33.4142C50.134 33.6939 49.7777 33.8844 49.3897 33.9615C49.0018 34.0387 48.5996 33.9991 48.2342 33.8477C47.8687 33.6964 47.5564 33.44 47.3366 33.1111C47.1168 32.7822 46.9995 32.3955 46.9995 32C46.9995 31.4695 47.2102 30.9608 47.5853 30.5858C47.9604 30.2107 48.4691 30 48.9995 30ZM40.9995 31H42.9995V33H40.9995V31ZM44.9995 39C45.7907 39 46.564 39.2346 47.2218 39.6741C47.8796 40.1136 48.3923 40.7383 48.6951 41.4692C48.9978 42.2001 49.077 43.0044 48.9227 43.7803C48.7683 44.5563 48.3874 45.269 47.828 45.8284C47.2686 46.3878 46.5558 46.7688 45.7799 46.9231C45.004 47.0775 44.1997 46.9982 43.4688 46.6955C42.7379 46.3927 42.1132 45.8801 41.6737 45.2223C41.2341 44.5645 40.9995 43.7911 40.9995 43C40.9995 41.9391 41.421 40.9217 42.1711 40.1716C42.9213 39.4214 43.9387 39 44.9995 39ZM33.9995 39C34.3951 39 34.7818 39.1173 35.1107 39.337C35.4396 39.5568 35.6959 39.8692 35.8473 40.2346C35.9987 40.6001 36.0383 41.0022 35.9611 41.3902C35.8839 41.7781 35.6935 42.1345 35.4137 42.4142C35.134 42.6939 34.7777 42.8844 34.3897 42.9615C34.0018 43.0387 33.5996 42.9991 33.2342 42.8477C32.8687 42.6964 32.5564 42.44 32.3366 42.1111C32.1168 41.7822 31.9995 41.3955 31.9995 41C31.9995 40.4695 32.2102 39.9608 32.5853 39.5858C32.9604 39.2107 33.4691 39 33.9995 39ZM28.9995 44H30.9995V46H28.9995V44Z" fill="#21529A" style="fill:#21529A;fill:color(display-p3 0.1294 0.3216 0.6039);fill-opacity:1;"/>
<path d="M57.5499 59.669C53.9189 63.0497 49.1552 64.9508 44.1943 64.9989C39.2334 65.047 34.4337 63.2387 30.7379 59.929C30.4961 59.9844 30.2489 60.0133 30.0009 60.015C29.8151 60.0146 29.6311 60.051 29.4595 60.1221C29.2879 60.1931 29.132 60.2974 29.0009 60.429L28.6719 60.759C30.7426 62.7801 33.1926 64.3718 35.8808 65.4425C38.569 66.5131 41.4424 67.0415 44.3357 66.9974C47.2289 66.9532 50.0849 66.3374 52.7392 65.1852C55.3935 64.0331 57.7938 62.3674 59.8019 60.284C59.5723 60.1132 59.2959 60.0169 59.0099 60.008C58.504 60.0055 58.0051 59.8897 57.5499 59.669Z" fill="#21529A" style="fill:#21529A;fill:color(display-p3 0.1294 0.3216 0.6039);fill-opacity:1;"/>
</g>
<defs>
<clipPath id="clip0_3039_695">
<rect width="64" height="57" fill="white" style="fill:white;fill-opacity:1;" transform="translate(5 9)"/>
</clipPath>
</defs>
</svg>
