<svg width="75" height="75" viewBox="0 0 75 75" fill="none" xmlns="http://www.w3.org/2000/svg">
<path d="M69.7216 33.4489C67.0016 11.8474 53.1296 13.1587 53.1296 13.1587C53.1296 13.1587 43.3512 12.9103 43.3512 22.2686C43.3512 25.2914 44.14 27.1479 45.194 28.2866C44.514 29.5289 43.4532 30.9298 42.0728 31.2749L41.828 17.831C40.9351 17.4575 39.9329 17.4575 39.04 17.831L38.7952 31.1507C38.373 31.0344 37.9613 30.882 37.5644 30.6952V16.7543C37.5644 16.7543 36.2792 15.8296 34.11 16.6784L33.294 35.3467C32.07 35.7746 30.6692 34.1183 29.9144 33.0141C31.0296 31.8201 31.9068 29.8187 32.0156 26.5129C32.3352 16.7612 22.142 16.6784 22.142 16.6784C22.142 16.6784 7.76001 14.8358 4.16281 37.2446C1.50401 53.877 11.296 58.0524 11.296 58.0524C11.296 58.0524 17.0828 62.6211 23.026 57.7901C25.0795 56.2238 26.4549 53.9107 26.8632 51.3368C27.2715 48.7629 26.681 46.1286 25.2156 43.9873C25.4055 44.0583 25.5775 44.1715 25.7188 44.3186C26.664 45.4021 27.2488 47.1689 27.6024 48.9632C27.9274 50.8472 28.0731 52.7584 28.0376 54.6707C28.0256 56.624 27.8871 58.5744 27.6228 60.5093L29.282 60.8819C29.8119 58.9004 30.2117 56.8854 30.4788 54.8501C30.7775 52.7737 30.8777 50.6728 30.778 48.5767C30.7114 47.4718 30.5498 46.375 30.2952 45.2986C30.0279 44.1205 29.5682 42.9962 28.9352 41.9721C28.7478 41.6855 28.5458 41.4091 28.33 41.1439C29.8732 40.5881 31.4681 40.1927 33.09 39.9638L32.1924 59.7294C33.0333 60.1167 33.9427 60.3273 34.8659 60.3487C35.7891 60.37 36.707 60.2016 37.5644 59.8536V35.7953C37.9255 35.5901 38.312 35.4346 38.7136 35.3329L38.2648 59.2394C38.9238 59.6161 39.6674 59.814 40.4238 59.814C41.1802 59.814 41.9238 59.6161 42.5828 59.2394L42.1476 35.4296C43.2242 35.6888 44.2704 36.0636 45.2688 36.5476C44.6342 37.5559 44.1742 38.6669 43.9088 39.8327C43.6509 40.9084 43.4893 42.0056 43.426 43.1108C43.3275 45.2066 43.4254 47.3072 43.7184 49.3842C43.991 51.4191 44.3931 53.4339 44.922 55.416L46.5744 55.0434C46.3138 53.1058 46.1752 51.1533 46.1596 49.1979C46.1299 47.2878 46.2779 45.3792 46.6016 43.4973C46.9552 41.7029 47.5332 39.9362 48.4852 38.8527C48.7827 38.4899 49.1492 38.1917 49.5628 37.9759C49.9764 37.7601 50.4286 37.6311 50.8924 37.5966C46.5676 41.1301 45.9488 48.1765 50.9808 52.5589C56.5296 57.3898 62.2212 53.1869 62.2212 53.1869C62.2212 53.1869 71.7548 49.4877 69.7216 33.4489ZM28.5952 42.1653C29.2287 43.1493 29.6889 44.2375 29.9552 45.3814C30.2068 46.4345 30.3638 47.5086 30.4244 48.5905C30.5277 50.6657 30.4298 52.7461 30.132 54.8018C29.8838 56.6982 29.5182 58.5768 29.0372 60.4265L28.0852 60.2125C28.32 58.3815 28.4449 56.5378 28.4592 54.6914C28.4782 52.7456 28.3165 50.8023 27.9764 48.8873C27.548 46.6858 26.8816 45.057 26.0044 44.0563C25.8253 43.8607 25.6043 43.7096 25.3584 43.6146L24.148 43.1246L24.9028 44.2012C26.3045 46.2657 26.867 48.7996 26.473 51.2747C26.079 53.7498 24.7589 55.975 22.788 57.4865C21.2101 58.8403 19.2169 59.5943 17.1508 59.619C15.1377 59.5719 13.1833 58.9212 11.534 57.7487H11.4932H11.4456C11.3504 57.7073 1.96641 53.4698 4.54361 37.3619C7.55601 18.5211 18.164 17.0442 21.36 17.0442C21.612 17.0426 21.864 17.0542 22.1148 17.0787C22.2032 17.0787 26.7456 17.1546 29.5132 20.0877C31.0228 21.6819 31.7368 23.8421 31.6552 26.5129C31.4104 33.3384 27.8812 34.3943 25.8072 34.3943C25.4674 34.3976 25.1281 34.3676 24.794 34.3046L23.9372 34.1114L24.3724 34.8774C25.236 36.4027 25.4808 37.7484 25.1068 38.8665L25.0048 39.177L25.2836 39.3358L25.8072 39.6187C26.9393 40.2065 27.9004 41.0844 28.5952 42.1653ZM25.78 36.3543L25.5012 36.5545C25.4289 36.2771 25.338 36.005 25.2292 35.7401L25.78 36.3543ZM26.9972 39.9155C26.6797 39.6562 26.3407 39.4253 25.984 39.2253L25.44 38.9562C25.4942 38.8008 25.5374 38.6416 25.5692 38.48C27.9628 37.4586 28.7516 38.8389 28.7516 38.8389L26.9972 39.9155ZM26.7592 34.7049C27.3478 34.6163 27.9192 34.4347 28.4524 34.1666C29.588 36.6442 29.8124 36.8512 29.8124 36.8512C28.6149 36.4296 27.5574 35.6766 26.7592 34.6773V34.7049ZM43.358 33.649L42.814 33.4834C44.5548 32.7932 45.9556 30.9022 46.8124 29.4736C47.6 29.822 48.4489 30.0051 49.308 30.0119L43.358 33.649ZM50.532 32.7449L49.2876 32.2135L50.5592 31.0817C50.4925 31.6336 50.4834 32.1911 50.532 32.7449ZM47.9956 33.9043C47.4849 34.1906 47.01 34.5381 46.5812 34.9396C46.18 34.6842 45.9012 34.5186 45.9012 34.5186L47.2 33.6076L47.9956 33.9043ZM66.4576 49.0529C65.3484 50.6697 63.844 51.9659 62.092 52.8142H62.0444L62.0036 52.8487C60.4672 53.8691 58.6783 54.4289 56.8424 54.4636C54.7688 54.4415 52.7752 53.6484 51.2392 52.2345C50.1649 51.3351 49.3021 50.2034 48.7138 48.9222C48.1256 47.641 47.8268 46.2427 47.8392 44.8293C47.8542 43.4934 48.1593 42.1773 48.7329 40.9748C49.3065 39.7724 50.1344 38.7131 51.1576 37.8727L52.1504 37.0583L50.8856 37.1825C50.3727 37.2188 49.8722 37.3597 49.4142 37.5968C48.9561 37.834 48.55 38.1626 48.22 38.5628C47.3428 39.5635 46.6832 41.1853 46.2548 43.3938C45.9211 45.3023 45.7707 47.2392 45.806 49.1772C45.8185 51.0234 45.9411 52.8671 46.1732 54.6983L45.2212 54.9122C44.7461 53.0612 44.3806 51.1829 44.1264 49.2876C43.8356 47.2312 43.7377 45.1515 43.834 43.0763C43.8951 42.0117 44.0453 40.9543 44.2828 39.9155C44.5446 38.7801 44.9928 37.6975 45.6088 36.7132C46.2986 35.6175 47.2601 34.725 48.3968 34.1252C49.0903 33.7647 49.8329 33.5112 50.6 33.3729L50.9536 33.3108L50.9128 32.9519C50.7848 31.9536 50.8825 30.9387 51.1984 29.9843L51.4364 29.2942L50.7564 29.4598C50.3241 29.545 49.8844 29.5866 49.444 29.5841C47.3088 29.5841 43.7252 28.6317 43.7252 22.2548C43.7252 13.7798 52.0892 13.5383 53.0412 13.5383H53.15C53.15 13.5383 53.3132 13.5383 53.5716 13.5383C55.7816 13.5383 66.92 14.4976 69.3272 33.4972C70.3744 41.627 68.3412 46.4442 66.4576 49.0529Z" fill="#21529A" style="fill:#21529A;fill:color(display-p3 0.1294 0.3216 0.6039);fill-opacity:1;"/>
<path d="M15.1055 46.6306C15.4747 46.6886 15.8326 46.805 16.1663 46.9756C16.2599 47.0371 16.3465 47.1089 16.4247 47.1896C17.1258 45.9954 17.9412 44.8742 18.8591 43.8424C19.0155 43.663 19.1923 43.4973 19.3555 43.3248L18.4851 43.8976C17.305 44.7382 16.1764 45.6509 15.1055 46.6306Z" fill="#21529A" style="fill:#21529A;fill:color(display-p3 0.1294 0.3216 0.6039);fill-opacity:1;"/>
<path d="M21.4007 30.9436C21.1753 30.9786 20.9461 30.9786 20.7207 30.9436C20.8159 31.0748 20.9043 31.2128 20.9859 31.3508C21.2828 31.8656 21.5114 32.4179 21.6659 32.9934C21.7515 33.2717 21.8196 33.5552 21.8699 33.8422C21.9175 33.3246 21.9719 32.8139 22.0127 32.2963C22.0535 31.7787 22.1011 31.13 22.1351 30.5503C21.9367 30.7559 21.6799 30.8934 21.4007 30.9436Z" fill="#21529A" style="fill:#21529A;fill:color(display-p3 0.1294 0.3216 0.6039);fill-opacity:1;"/>
<path d="M20.0957 46.1268C20.2079 46.0624 20.3237 46.0048 20.4425 45.9542C20.6406 45.8727 20.8426 45.8013 21.0477 45.7403C21.2708 45.6869 21.4986 45.6568 21.7277 45.6506C21.8385 45.6403 21.9501 45.6403 22.0609 45.6506C21.9793 45.3949 21.9246 45.1312 21.8977 44.8638C21.8519 44.3083 21.8955 43.7488 22.0269 43.2075L20.0957 46.1268Z" fill="#21529A" style="fill:#21529A;fill:color(display-p3 0.1294 0.3216 0.6039);fill-opacity:1;"/>
<path d="M59.3106 41.8133C59.3843 41.7373 59.4664 41.6701 59.5554 41.6132C59.8747 41.4543 60.2166 41.3471 60.5686 41.2957C59.5394 40.3545 58.4538 39.4786 57.3182 38.6732C57.0666 38.4938 56.8014 38.335 56.543 38.1694C56.6858 38.3143 56.8354 38.4524 56.9714 38.6042C57.8489 39.5968 58.6321 40.6713 59.3106 41.8133Z" fill="#21529A" style="fill:#21529A;fill:color(display-p3 0.1294 0.3216 0.6039);fill-opacity:1;"/>
<path d="M25.6385 39.9155L25.1013 39.6187L24.5369 39.3082L24.7409 38.6871C25.0809 37.6794 24.8429 36.4441 24.0609 35.0155L23.4013 33.8975C23.0273 34.1528 22.6533 34.4013 22.2657 34.6428C22.2657 35.2571 22.1977 35.8713 22.1501 36.4855C22.2793 36.658 22.4153 36.8168 22.5377 36.9893C23.1852 37.8987 23.7047 38.8952 24.0813 39.95C24.1096 40.0027 24.1214 40.0629 24.1153 40.1225C24.1135 40.1969 24.0898 40.269 24.0473 40.3296C23.7457 40.7737 23.4687 41.2345 23.2177 41.7099C23.0885 41.9583 22.9865 42.2137 22.8709 42.4621C22.7553 42.7106 22.6669 42.9728 22.5989 43.2351C22.4385 43.7525 22.3672 44.2942 22.3881 44.8362C22.4008 45.1656 22.4698 45.4902 22.5921 45.7955C22.7941 45.8752 22.9824 45.987 23.1497 46.1268C23.7686 46.7392 24.1825 47.5334 24.3329 48.3973C24.6684 49.9579 24.7829 51.559 24.6729 53.1524C24.6105 51.5909 24.3147 50.0481 23.7957 48.5768C23.5675 47.9031 23.1518 47.311 22.5989 46.8721C22.3282 46.73 22.0261 46.6605 21.7214 46.6701C21.4168 46.6798 21.1196 46.7683 20.8581 46.9273C19.4946 47.4683 18.3775 48.5037 17.7233 49.8328C17.0259 51.227 16.5922 52.7416 16.4449 54.298C16.4158 52.6968 16.6858 51.1044 17.2405 49.6051C17.5315 48.8492 17.9326 48.142 18.4305 47.5071C18.69 47.172 18.9892 46.8706 19.3213 46.6099L22.1093 42.1171C21.6928 42.2831 21.2959 42.4961 20.9261 42.752C20.3149 43.1783 19.7497 43.6687 19.2397 44.2151C18.2825 45.2259 17.4239 46.3283 16.6761 47.5071C16.7503 47.6354 16.8097 47.772 16.8529 47.9142C16.9471 48.2719 16.9679 48.6454 16.9141 49.0116C16.8137 49.6875 16.6119 50.3438 16.3157 50.9578C15.7695 52.1498 15.0846 53.2712 14.2757 54.298C14.9027 53.1679 15.4393 51.9886 15.8805 50.7714C16.0935 50.1869 16.2306 49.5768 16.2885 48.9563C16.3442 48.6951 16.3287 48.4235 16.2436 48.1705C16.1586 47.9176 16.0072 47.693 15.8057 47.5209C15.5725 47.3782 15.3136 47.2843 15.0441 47.2448C14.9 47.2056 14.7513 47.1871 14.6021 47.1896C14.4528 47.1758 14.3026 47.1758 14.1533 47.1896C13.5383 47.2024 12.9304 47.3262 12.3581 47.5554C11.1663 48.0225 10.0691 48.7079 9.12131 49.5775C9.97647 48.5776 11.016 47.7571 12.1813 47.162C12.877 46.8061 13.64 46.6061 14.4185 46.5754C15.596 45.4359 16.8453 44.3754 18.1585 43.4007C18.4849 43.1661 18.8181 42.936 19.1581 42.7106C18.6163 42.6031 18.0644 42.5568 17.5125 42.5725C16.8525 42.572 16.2094 42.7847 15.6765 43.1799C15.6274 43.3966 15.5496 43.6055 15.4453 43.801C15.2283 44.1731 14.9473 44.5027 14.6157 44.7741C13.9948 45.2699 13.3081 45.6742 12.5757 45.9749C11.1709 46.6143 9.63983 46.9165 8.10131 46.8583C9.57454 46.643 10.9978 46.1615 12.3037 45.4366C12.9415 45.0936 13.5333 44.6692 14.0649 44.1737C14.5681 43.6906 14.9625 43.0902 14.8197 42.614C14.74 42.3222 14.5679 42.0652 14.3301 41.8824C14.0747 41.6302 13.7995 41.3994 13.5073 41.1923C12.8898 40.7818 12.2224 40.4547 11.5217 40.2192C10.083 39.756 8.5895 39.4914 7.08131 39.4324C8.59953 39.427 10.1137 39.5913 11.5965 39.9224C12.358 40.0778 13.0994 40.3209 13.8065 40.6471C14.1244 40.8018 14.4272 40.9866 14.7109 41.1992C15.5405 41.2958 16.3701 41.4131 17.1997 41.558C18.1512 41.7141 19.0916 41.9331 20.0149 42.2137C20.1033 42.1585 20.1985 42.0963 20.2937 42.048C20.6722 41.8394 21.0654 41.6595 21.4701 41.5097C21.8489 41.3575 22.2474 41.2622 22.6533 41.2268L23.3333 40.1502C23.0997 39.8948 22.8523 39.6529 22.5921 39.4255C22.2644 39.1568 21.9087 38.9254 21.5313 38.7354C21.1654 38.5393 20.7662 38.4152 20.3549 38.3696C20.128 38.3414 19.8979 38.3531 19.6749 38.4041C19.5731 38.4951 19.4664 38.5803 19.3553 38.6594C18.8588 39.0008 18.2988 39.2356 17.7097 39.3496C16.6149 39.5255 15.4997 39.5255 14.4049 39.3496C13.333 39.2008 12.2738 38.9701 11.2361 38.6594C10.1995 38.377 9.19447 37.9861 8.23731 37.4931C9.2239 37.9006 10.2493 38.2036 11.2973 38.3972C12.335 38.6108 13.3878 38.7401 14.4457 38.7837C15.4791 38.8436 16.5155 38.7435 17.5193 38.4869C17.8639 38.4407 18.1959 38.3247 18.4956 38.1459C18.7952 37.9671 19.0565 37.729 19.2638 37.4459C19.4712 37.1627 19.6204 36.8402 19.7027 36.4974C19.785 36.1546 19.7987 35.7985 19.7429 35.4503C19.7429 35.2018 19.7021 34.9534 19.6613 34.7049L19.4845 33.9734C19.142 32.997 18.5891 32.1104 17.8661 31.3785C16.3277 29.8957 14.4627 28.8073 12.4261 28.2038C14.5359 28.6629 16.5163 29.5995 18.2197 30.9437C19.0965 31.6594 19.7953 32.5743 20.2597 33.6145L20.5385 34.4427C20.5417 34.4909 20.5417 34.5394 20.5385 34.5876C20.9125 34.9741 21.2729 35.3675 21.6061 35.7816C21.6061 35.4503 21.6061 35.0914 21.5381 34.7878C21.4785 34.2256 21.3739 33.6694 21.2253 33.1245C21.086 32.6038 20.8827 32.103 20.6201 31.6338C20.4556 31.334 20.2495 31.0597 20.0081 30.8194C19.2874 30.5552 18.6021 30.2005 17.9681 29.7635C16.7031 28.9079 15.5153 27.9402 14.4185 26.8718C15.7037 27.6862 16.9481 28.5489 18.2741 29.2321C18.9109 29.5783 19.5837 29.8514 20.2801 30.0465C20.5789 30.1298 20.8911 30.1509 21.1981 30.1086C21.3138 30.0908 21.422 30.0398 21.51 29.9615C21.598 29.8832 21.662 29.781 21.6945 29.6669C21.8812 29.0101 21.9207 28.3192 21.8101 27.6448C21.7588 26.8952 21.6427 26.1516 21.4633 25.4225C21.098 23.9576 20.2361 22.67 19.0289 21.7855C19.7266 22.1105 20.3392 22.5975 20.8173 23.2072C21.3128 23.8148 21.712 24.497 22.0005 25.2293C22.2933 25.9583 22.5076 26.7172 22.6397 27.493C22.7211 27.8857 22.7644 28.2856 22.7689 28.6869C22.788 29.1312 22.7187 29.5748 22.5649 29.9913C22.5472 30.0318 22.5267 30.071 22.5037 30.1086C22.5069 30.1523 22.5069 30.1961 22.5037 30.2397C22.5037 30.9299 22.4561 31.62 22.4221 32.3102C22.4221 32.7242 22.3677 33.1452 22.3405 33.5593C22.5037 33.4006 22.6737 33.2349 22.8301 33.0624C23.2077 32.6483 23.528 32.184 23.7821 31.6821C24.0312 31.181 24.1901 30.6388 24.2513 30.081C24.306 29.5972 24.2667 29.1071 24.1357 28.6386C24.03 28.4651 23.9347 28.2853 23.8501 28.1003C23.5614 27.4384 23.3535 26.7431 23.2313 26.0299C22.9683 24.6319 22.8702 23.2071 22.9389 21.7855C23.0923 23.1824 23.3446 24.5662 23.6937 25.9263C23.8705 26.5864 24.1119 27.2268 24.4145 27.838C24.6532 28.4278 25.0857 28.9155 25.6385 29.2183C25.9088 29.322 26.2034 29.3412 26.4845 29.2736C26.7657 29.2059 27.0204 29.0545 27.2161 28.8387C27.3492 28.7161 27.4741 28.5847 27.5901 28.4454C27.5862 28.4272 27.5862 28.4083 27.5901 28.3902C27.8833 28.0254 28.1407 27.6325 28.3585 27.2169C28.9867 25.963 29.466 24.6379 29.7865 23.2693C29.573 24.6751 29.2058 26.0524 28.6917 27.3756C28.4695 27.9324 28.1794 28.4588 27.8281 28.9423C27.6564 29.5222 27.3848 30.0667 27.0257 30.5503C26.5819 31.1637 26.0734 31.726 25.5093 32.2273C24.947 32.7398 24.3543 33.2169 23.7345 33.6559L24.8429 33.9182C25.1501 33.9764 25.4621 34.0041 25.7745 34.001C27.7125 34.001 31.0037 33.0279 31.2145 26.5268C31.2961 23.9733 30.6161 21.9028 29.1745 20.3914C26.5225 17.5756 22.1297 17.4997 22.0889 17.4997H22.0413C21.8148 17.4873 21.5878 17.4873 21.3613 17.4997C18.2605 17.4997 7.90411 18.9421 4.94611 37.4379C2.39611 53.1386 11.2225 57.169 11.5965 57.3347L11.6917 57.3761L11.7733 57.4382C13.3497 58.5685 15.2225 59.1957 17.1521 59.2394C19.1344 59.2078 21.0437 58.4757 22.5513 57.169C24.5256 55.6313 25.821 53.364 26.1553 50.8611C26.4498 48.5863 25.8889 46.2823 24.5845 44.4083L23.0885 42.2482L25.5025 43.2351C25.8067 43.35 26.0794 43.5369 26.2981 43.7803C27.2161 44.8293 27.9097 46.5409 28.3381 48.7838C28.6736 50.72 28.8262 52.6843 28.7937 54.65C28.7813 56.3963 28.6723 58.1405 28.4673 59.8744L28.7121 59.9296C29.145 58.2116 29.4787 56.4695 29.7117 54.7121C29.9961 52.6852 30.0917 50.6357 29.9973 48.5906C29.9362 47.5346 29.7837 46.4862 29.5417 45.4573C29.2887 44.3636 28.8566 43.3208 28.2633 42.3724C27.6179 41.3323 26.7121 40.4845 25.6385 39.9155Z" fill="#21529A" style="fill:#21529A;fill:color(display-p3 0.1294 0.3216 0.6039);fill-opacity:1;"/>
<path d="M20.1562 37.8451H20.3943C20.8659 37.881 21.327 38.005 21.7543 38.2108C22.1787 38.4088 22.5801 38.6542 22.9511 38.9424C22.7024 38.3723 22.4138 37.8211 22.0875 37.293C21.6638 36.6006 21.1935 35.9387 20.6799 35.3123C20.7768 35.9302 20.7231 36.5629 20.5235 37.1549C20.4314 37.4003 20.3079 37.6324 20.1562 37.8451Z" fill="#21529A" style="fill:#21529A;fill:color(display-p3 0.1294 0.3216 0.6039);fill-opacity:1;"/>
<path d="M26.6969 30.2535C26.8445 30.0657 26.9786 29.8673 27.0981 29.66C26.9504 29.7619 26.7873 29.8388 26.6153 29.8878C26.2092 30.0137 25.7731 29.9967 25.3777 29.8394C25.1873 29.752 25.0071 29.6432 24.8405 29.5151C24.859 29.7447 24.859 29.9756 24.8405 30.2052C24.7795 30.837 24.6116 31.4533 24.3441 32.0272C24.2087 32.3199 24.0471 32.5995 23.8613 32.8623C24.3237 32.5379 24.7725 32.1721 25.2213 31.8339C25.766 31.3607 26.2606 30.831 26.6969 30.2535Z" fill="#21529A" style="fill:#21529A;fill:color(display-p3 0.1294 0.3216 0.6039);fill-opacity:1;"/>
<path d="M15.6481 42.3931C15.6546 42.4643 15.6546 42.5359 15.6481 42.607C15.7939 42.5033 15.9514 42.4175 16.1173 42.3517C16.4484 42.2154 16.796 42.1249 17.1509 42.0825H17.0761C16.4573 41.9376 15.8317 41.8065 15.2129 41.6891C15.4059 41.8895 15.5543 42.1296 15.6481 42.3931Z" fill="#21529A" style="fill:#21529A;fill:color(display-p3 0.1294 0.3216 0.6039);fill-opacity:1;"/>
<path d="M60.0444 37.1894C60.1236 36.9354 60.2532 36.7006 60.4252 36.4993C59.8268 36.6166 59.2352 36.7408 58.6504 36.8789C58.9685 36.9325 59.2791 37.0252 59.5752 37.1549C59.7307 37.219 59.8789 37.3 60.0172 37.3965C60.0186 37.3267 60.0277 37.2572 60.0444 37.1894Z" fill="#21529A" style="fill:#21529A;fill:color(display-p3 0.1294 0.3216 0.6039);fill-opacity:1;"/>
<path d="M54.1634 40.3227C54.3925 40.3279 54.6205 40.358 54.8434 40.4124C55.0427 40.468 55.238 40.5371 55.4282 40.6195C55.5302 40.6609 55.6254 40.7161 55.7274 40.7644L53.8778 38.0383C53.9968 38.5535 54.0381 39.0841 54.0002 39.6119C53.9716 39.8625 53.9192 40.1098 53.8438 40.3503C53.9496 40.334 54.0563 40.3247 54.1634 40.3227Z" fill="#21529A" style="fill:#21529A;fill:color(display-p3 0.1294 0.3216 0.6039);fill-opacity:1;"/>
<path d="M54.1367 33.1314C54.5638 32.9261 55.0252 32.8043 55.4967 32.7725H55.7007C55.5623 32.5708 55.4482 32.353 55.3607 32.1238C55.1722 31.5603 55.1186 30.9595 55.2043 30.3708C54.7096 30.9646 54.2553 31.5918 53.8443 32.248C53.5356 32.7484 53.2607 33.2695 53.0215 33.8077C53.3675 33.5413 53.7415 33.3144 54.1367 33.1314Z" fill="#21529A" style="fill:#21529A;fill:color(display-p3 0.1294 0.3216 0.6039);fill-opacity:1;"/>
<path d="M61.1804 16.6922C59.0107 14.9601 56.3447 13.9912 53.5848 13.9317C53.3536 13.9317 53.2176 13.9317 53.1972 13.9317H53.0544C51.3787 13.9542 49.7275 14.3426 48.2128 15.0704C45.4928 16.4507 44.1328 18.8524 44.1328 22.2548C44.1328 27.9898 47.0364 29.1562 49.4708 29.1562C49.8814 29.1594 50.2913 29.1224 50.6948 29.0458L52.0548 28.7283L51.5788 30.0672C51.2835 30.9665 51.1928 31.9222 51.3136 32.8622L51.3884 33.5524L50.7084 33.6835C49.9736 33.8054 49.2608 34.038 48.5936 34.3736C47.5188 34.943 46.6093 35.7876 45.9552 36.8236C45.3564 37.7716 44.9239 38.8177 44.6768 39.9155C44.4338 40.9465 44.2814 41.9973 44.2212 43.0556C44.1053 45.1273 44.1919 47.2056 44.4796 49.26C44.7143 51.0166 45.0457 52.7585 45.4724 54.4774L45.724 54.4222C45.5165 52.6862 45.4052 50.9397 45.3908 49.191C45.3602 47.2394 45.5104 45.2892 45.8396 43.3662C46.2884 41.0818 46.982 39.3979 47.8796 38.342C48.2416 37.9066 48.6854 37.5488 49.1851 37.2893C49.6848 37.0298 50.2303 36.8739 50.79 36.8305L52.7552 36.6442V36.5821C52.5092 36.1081 52.2391 35.6474 51.946 35.2018C51.9449 35.1788 51.9449 35.1558 51.946 35.1328C51.9226 35.0587 51.9226 34.9791 51.946 34.9051C52.3004 33.8836 52.7973 32.9191 53.4216 32.041C53.5372 31.8753 53.6664 31.7235 53.7888 31.5579C53.748 30.9712 53.714 30.3777 53.68 29.7842C52.5529 29.1004 51.4919 28.3102 50.5112 27.4239C49.9703 26.9357 49.4804 26.3922 49.0492 25.8021C48.7019 25.3354 48.4394 24.8095 48.274 24.2493C47.9222 23.7599 47.6342 23.2263 47.4172 22.662C46.9238 21.3823 46.5704 20.0516 46.3632 18.6936C46.6687 20.013 47.1251 21.2915 47.7232 22.5032C47.9359 22.9063 48.1864 23.2877 48.4712 23.642C48.4734 23.658 48.4734 23.6742 48.4712 23.6903C48.5844 23.8256 48.7047 23.9546 48.8316 24.0767C49.0205 24.2829 49.2657 24.4272 49.5358 24.4911C49.806 24.555 50.0888 24.5357 50.348 24.4356C50.8738 24.1543 51.2889 23.6989 51.5244 23.1451C51.8131 22.5539 52.041 21.9341 52.2044 21.2955C52.5431 19.9831 52.7886 18.6477 52.9388 17.2996C53.0112 18.6745 52.9198 20.0532 52.6668 21.4059C52.549 22.1013 52.3504 22.7801 52.0752 23.428C51.9916 23.6078 51.8986 23.7829 51.7964 23.9525C51.6732 24.4012 51.634 24.8694 51.6808 25.3328C51.7407 25.8715 51.895 26.3951 52.1364 26.8787C52.3839 27.3657 52.6924 27.818 53.0544 28.2245C53.1972 28.3832 53.3536 28.5351 53.51 28.6869C53.51 28.2935 53.4556 27.9001 53.4352 27.4998C53.3989 26.8235 53.3717 26.1472 53.3536 25.4708V25.3673C53.3284 25.3274 53.3057 25.2859 53.2856 25.2431C53.1358 24.8376 53.0665 24.406 53.0816 23.9732C53.1286 23.5784 53.2082 23.1882 53.3196 22.8069C53.4353 22.0485 53.6337 21.3054 53.9112 20.5915C54.4316 19.1576 55.4595 17.9718 56.7944 17.2651C55.6337 18.1251 54.8061 19.3703 54.4552 20.7848C54.2746 21.477 54.1518 22.1834 54.088 22.8966C53.9853 23.548 54.0225 24.2142 54.1968 24.8497C54.2307 24.9566 54.2931 25.052 54.3771 25.1251C54.4611 25.1982 54.5635 25.2462 54.6728 25.2638C54.9659 25.3052 55.2642 25.2864 55.55 25.2086C56.2226 25.0197 56.8726 24.7559 57.488 24.4218C58.7732 23.7662 59.97 22.9311 61.2144 22.1512C60.1661 23.1868 59.0282 24.1246 57.8144 24.9532C57.2089 25.3834 56.5505 25.7315 55.856 25.9884C55.6233 26.2313 55.4242 26.5053 55.2644 26.8028C54.9954 27.2696 54.7896 27.771 54.6524 28.2935C54.511 28.8207 54.411 29.3583 54.3532 29.9015C54.3532 30.2121 54.2988 30.5227 54.2852 30.8332C54.6048 30.4467 54.9652 30.0741 55.2916 29.7152C55.2916 29.6669 55.2916 29.6117 55.2916 29.5565L55.5636 28.7559C56.0153 27.7503 56.693 26.8663 57.5424 26.1748C59.1844 24.8529 61.1001 23.9256 63.1456 23.4625C61.1727 24.0484 59.366 25.1036 57.8756 26.5405C57.18 27.2495 56.6501 28.108 56.3252 29.0527L56.1484 29.7428C56.1484 29.9774 56.1008 30.219 56.0736 30.4329C56.0152 30.8844 56.0641 31.3435 56.2164 31.7718C56.3982 32.1801 56.6753 32.5374 57.0236 32.8127C57.3719 33.0881 57.781 33.2733 58.2156 33.3522C59.1816 33.5997 60.1789 33.6974 61.1736 33.6421C62.1972 33.6005 63.216 33.4759 64.22 33.2694C65.2328 33.0865 66.2241 32.7974 67.178 32.4067C66.2525 32.8822 65.282 33.2614 64.2812 33.5386C63.2786 33.8337 62.2558 34.0529 61.2212 34.1942C60.1607 34.3701 59.079 34.3701 58.0184 34.1942C57.4514 34.0972 56.9099 33.8835 56.4272 33.5662C56.3171 33.4887 56.2126 33.4034 56.1144 33.3108C55.9025 33.2797 55.6872 33.2797 55.4752 33.3108C55.0805 33.3595 54.6979 33.4812 54.3464 33.6697C53.9815 33.8594 53.6393 34.091 53.3264 34.3598C53.0837 34.573 52.8565 34.8037 52.6464 35.05L53.3196 36.0507C53.7109 36.0904 54.0951 36.1832 54.462 36.3267C54.8514 36.4762 55.2308 36.6514 55.5976 36.8512L55.8696 37.0031C56.7627 36.7372 57.6711 36.5274 58.5896 36.3751C59.3852 36.2439 60.1808 36.1266 60.9832 36.0369C61.2602 35.8308 61.5536 35.6484 61.8604 35.4917C62.5482 35.1851 63.2663 34.9537 64.0024 34.8015C65.4387 34.4841 66.9049 34.3267 68.3748 34.3322C66.9204 34.4001 65.4816 34.667 64.0976 35.1259C63.4124 35.3505 62.7604 35.6686 62.1596 36.0714C61.8741 36.2606 61.6076 36.4779 61.364 36.7201C61.1381 36.8926 60.9735 37.1347 60.8948 37.4103C60.7588 37.8658 61.1396 38.4386 61.6224 38.901C62.1349 39.3826 62.7063 39.7955 63.3224 40.1294C64.5915 40.8303 65.9728 41.2976 67.4024 41.5097C65.9112 41.5688 64.4267 41.2784 63.064 40.6608C62.3542 40.3745 61.6898 39.9839 61.092 39.5014C60.7659 39.2436 60.4913 38.925 60.2828 38.5628C60.1749 38.3721 60.0991 38.1645 60.0584 37.9486C59.5448 37.5754 58.9289 37.375 58.2972 37.3758C57.7706 37.3648 57.2442 37.4087 56.7264 37.5069C57.0528 37.7139 57.3656 37.9279 57.6784 38.1556C58.9472 39.0952 60.1534 40.1189 61.2892 41.2198C62.0413 41.2514 62.7783 41.4443 63.4516 41.7858C64.577 42.3646 65.5797 43.1618 66.4028 44.1322C65.4916 43.291 64.436 42.6266 63.2884 42.1722C62.7346 41.9549 62.148 41.8359 61.5544 41.8203C61.4118 41.8099 61.2686 41.8099 61.126 41.8203C60.9813 41.8173 60.837 41.8359 60.6976 41.8755C60.4374 41.9098 60.1873 41.9992 59.9632 42.1377C59.7705 42.304 59.6258 42.5201 59.5444 42.7631C59.463 43.0062 59.4479 43.267 59.5008 43.518C59.5581 44.1193 59.6906 44.7106 59.8952 45.2779C60.3172 46.4552 60.8334 47.5954 61.4388 48.6872C60.6331 47.7004 59.9481 46.6182 59.3988 45.4642C59.1162 44.8683 58.9214 44.2335 58.8208 43.5801C58.7672 43.2254 58.7881 42.8632 58.882 42.5173C58.9259 42.3809 58.9828 42.2491 59.052 42.1239C58.335 40.9769 57.5058 39.9064 56.5768 38.9286C56.0824 38.414 55.5379 37.9515 54.9516 37.5483C54.6023 37.308 54.2284 37.1067 53.8364 36.9479L56.4952 41.2336C56.8279 41.4881 57.1313 41.7798 57.3996 42.1032C57.8902 42.7295 58.2846 43.4275 58.5692 44.1736C59.1008 45.6255 59.3569 47.1663 59.324 48.7148C59.1799 47.2126 58.7577 45.7515 58.0796 44.4083C57.4421 43.1399 56.364 42.1564 55.0536 41.6477C54.8035 41.4954 54.5192 41.4103 54.2277 41.4007C53.9361 41.391 53.647 41.457 53.3876 41.5925C52.8522 42.0105 52.4501 42.5794 52.2316 43.2282C51.7263 44.6503 51.4351 46.1417 51.368 47.652C51.2636 46.1096 51.3735 44.56 51.6944 43.0487C51.8378 42.2113 52.2375 41.4409 52.8368 40.8472C52.9993 40.704 53.1859 40.5918 53.3876 40.5159C53.4983 40.2268 53.5626 39.9216 53.578 39.6118C53.5926 39.0882 53.5214 38.5658 53.3672 38.0659C53.2546 37.6865 53.1113 37.3171 52.9388 36.9617L51.3816 38.1901C50.4009 38.9925 49.607 40.005 49.0569 41.1552C48.5067 42.3053 48.2138 43.5647 48.1992 44.8431C48.1897 46.2022 48.4803 47.5463 49.0499 48.7764C49.6194 50.0065 50.4534 51.0915 51.4904 51.9515C52.9569 53.3033 54.8611 54.062 56.842 54.0841C58.597 54.0494 60.3073 53.5163 61.7788 52.5451L61.8604 52.4829H61.9556C62.316 52.338 70.884 48.7286 68.9596 33.5455C67.9532 25.602 65.3352 19.9014 61.1804 16.6922Z" fill="#21529A" style="fill:#21529A;fill:color(display-p3 0.1294 0.3216 0.6039);fill-opacity:1;"/>
<path d="M53.9989 28.9147C54.0533 28.6524 54.1145 28.3971 54.1893 28.1348C54.346 27.5776 54.5747 27.0438 54.8693 26.5475C54.9446 26.4214 55.0263 26.2993 55.1141 26.1817C54.9021 26.2124 54.6869 26.2124 54.4749 26.1817C54.2198 26.1327 53.9838 26.0105 53.7949 25.8297C53.7949 26.3819 53.8629 26.934 53.9105 27.4861C53.9581 28.0382 53.9989 28.4316 53.9989 28.9147Z" fill="#21529A" style="fill:#21529A;fill:color(display-p3 0.1294 0.3216 0.6039);fill-opacity:1;"/>
<path d="M51.1703 25.3811C51.1703 25.1741 51.1703 24.967 51.1703 24.76C51.015 24.8812 50.8461 24.9831 50.6671 25.0636C50.4 25.1712 50.1115 25.213 49.8255 25.1854C49.5394 25.1578 49.2638 25.0617 49.0215 24.9049C49.136 25.0936 49.2609 25.2756 49.3955 25.4501C49.8255 25.9993 50.3109 26.5012 50.8439 26.9477C51.2451 27.2859 51.6667 27.6034 52.0951 27.907C51.9291 27.6669 51.7835 27.413 51.6599 27.1479C51.3984 26.5917 51.2328 25.9941 51.1703 25.3811Z" fill="#21529A" style="fill:#21529A;fill:color(display-p3 0.1294 0.3216 0.6039);fill-opacity:1;"/>
</svg>
