<svg width="75" height="75" viewBox="0 0 75 75" fill="none" xmlns="http://www.w3.org/2000/svg">
<path d="M63.3511 16.5625C57.8951 15.75 53.8031 17.75 47.7891 18.375V14C47.7945 13.884 47.7751 13.7682 47.7323 13.6604C47.6895 13.5526 47.6243 13.4552 47.5411 13.375C46.7971 12.4375 44.6271 11.125 41.8371 12.75C41.7226 12.8144 41.6241 12.904 41.549 13.0123C41.4738 13.1205 41.4239 13.2445 41.4031 13.375L41.0311 15.625C40.7052 13.8521 40.5392 12.0531 40.5351 10.25C40.5306 10.1053 40.4951 9.96327 40.4308 9.83378C40.3666 9.70429 40.2753 9.5904 40.1631 9.49998C39.2488 8.90375 38.1737 8.60766 37.0857 8.65243C35.9977 8.6972 34.9501 9.08062 34.0871 9.74998C33.9049 9.9419 33.7765 10.1792 33.7151 10.4375L33.2811 17.1875L32.9091 17.0625C28.1971 15.875 11.3331 15.875 8.2331 28.5625C4.8851 42.25 9.2251 48.6875 12.2011 52.5625C15.1771 56.4375 16.1071 58.125 14.8051 61.25C13.5031 64.375 16.2311 68 19.7031 66.625C23.1751 65.25 25.9031 62.125 29.1891 52.5C30.1191 49.5625 31.8551 48.3125 33.0951 47.8125C33.3686 49.6835 33.3056 51.589 32.9091 53.4375C32.4131 55.5 32.1651 57.625 33.5291 58.125H33.9631C35.8851 58.125 37.7451 54.0625 37.7451 54C38.4801 52.3791 39.1016 50.7084 39.6051 49C40.2831 49.1347 40.9825 49.1134 41.6511 48.9375C46.1771 47.625 56.9651 45.25 58.8251 37.9375C60.6851 30.625 59.0111 27 63.1031 24.25C67.1951 21.5 69.1171 17.5 63.3511 16.5625ZM45.9291 14.375V18.5C44.9371 18.5 43.7591 18.375 42.4571 18.25L43.1391 14.1875C43.5714 13.9404 44.0661 13.8265 44.562 13.8598C45.0578 13.8931 45.5331 14.0722 45.9291 14.375ZM36.0711 53.25C35.6528 54.2079 35.0879 55.0937 34.3971 55.875C34.4216 55.1983 34.5257 54.527 34.7071 53.875C35.1949 51.6997 35.2581 49.4496 34.8931 47.25C35.9471 46.625 38.7371 44.5625 37.5591 38.8125C37.5591 38.8125 35.8851 30.375 37.0631 27.25C37.2491 26.6875 37.9311 20.9375 35.0791 18.25L35.5751 11C36.0364 10.7135 36.5609 10.5465 37.1017 10.5138C37.6426 10.4811 38.1831 10.5837 38.6751 10.8125C38.7991 14.9375 39.3571 17.125 39.9151 18.3125C39.6338 18.3758 39.3688 18.4982 39.1377 18.6719C38.9066 18.8456 38.7145 19.0666 38.574 19.3203C38.4335 19.574 38.3478 19.8548 38.3225 20.1443C38.2972 20.4338 38.3328 20.7254 38.4271 21C38.9231 22.5 39.9771 23.3125 39.3571 25.3125C38.7371 27.3125 38.6751 27.3125 38.4271 28C37.4971 30.5 37.4971 30.5 38.6751 36V36.5C39.6671 41.25 38.7371 44.625 37.7451 46.6875C37.6082 46.9416 37.5471 47.2301 37.5691 47.5184C37.5911 47.8067 37.6953 48.0825 37.8691 48.3125C37.3693 49.9934 36.7688 51.6423 36.0711 53.25Z" fill="#21529A" style="fill:#21529A;fill:color(display-p3 0.1294 0.3216 0.6039);fill-opacity:1;"/>
</svg>
