<svg width="69" height="69" viewBox="0 0 69 69" fill="none" xmlns="http://www.w3.org/2000/svg">
<rect width="69" height="69" rx="34.5" fill="#CBD5E1" style="fill:#CBD5E1;fill:color(display-p3 0.7961 0.8353 0.8824);fill-opacity:1;"/>
<path d="M25.1867 18.8812C17.4803 22.0439 13.7385 26.543 11.5112 35.274C9.68483 42.4458 9.77392 48.6822 11.6894 50.5977C13.1594 52.0677 14.9858 51.9786 19.7967 50.2858C24.7412 48.5486 25.8103 47.9695 27.9931 46.0095C31.1558 43.1585 31.2895 42.5794 31.2004 34.383L31.0667 27.1667L32.6258 26.4094C34.0958 25.6967 34.274 25.6967 35.744 26.4094L37.3031 27.1667L37.1695 34.383C37.0804 40.4858 37.214 41.8667 37.8377 43.0249C38.684 44.584 41.5795 47.3013 43.4059 48.2367C45.9004 49.5286 52.5377 51.6667 54.0523 51.6667C57.3486 51.6667 58.6405 48.504 58.0614 42.0449C57.3486 34.1158 54.4532 26.8548 50.6223 23.4248C47.8604 20.9748 42.5595 18.213 39.8868 17.9457C36.9467 17.6339 36.1895 18.4357 36.1895 21.7766C36.234 23.9148 36.1004 24.3603 35.6549 23.9594C35.3431 23.6921 35.0758 22.9348 35.0758 22.2221C35.0758 21.2421 34.8531 20.9303 34.1849 20.9303C33.5167 20.9303 33.294 21.2421 33.294 22.2221C33.294 22.9348 33.0267 23.6921 32.7149 23.9594C32.2695 24.3603 32.1358 23.9148 32.1804 21.7766C32.1804 19.5939 32.0022 18.9703 31.334 18.4357C30.0867 17.5448 28.0822 17.6784 25.1867 18.8812ZM30.3985 18.5248C31.4676 18.9703 32.0467 20.7966 31.6904 23.0239C31.4231 24.7166 31.2004 25.073 29.6413 25.8748C28.2158 26.5876 27.7703 26.6767 27.2358 26.2312C26.4785 25.6076 26.5676 23.3357 27.3694 23.4694C27.6813 23.5585 27.8149 23.2912 27.6813 22.9348C27.4585 22.4003 27.3249 22.4003 26.7903 22.9348C26.434 23.2466 26.1667 23.8257 26.1667 24.1376C26.1222 24.4939 25.944 24.4494 25.5431 23.9148C25.1867 23.4694 24.7858 23.2912 24.6522 23.5139C24.5185 23.7812 24.6522 24.0485 25.0085 24.1821C25.3649 24.3157 25.944 25.073 26.3449 25.8748C27.0576 27.2557 27.0131 27.3894 26.2113 28.1912C24.8749 29.5721 23.004 28.6812 22.024 26.2312C21.3112 24.4494 21.2667 24.9839 21.9794 27.4785C22.2021 28.2803 22.024 28.503 21.1331 28.7258C20.5094 28.9039 19.7521 28.9039 19.5294 28.7258C19.2621 28.5921 19.0394 28.6367 19.0394 28.8594C19.0394 29.4385 20.7767 29.8394 21.0885 29.3494C21.3558 28.9039 23.0931 28.8148 24.0731 29.2158C25.1422 29.6167 23.4494 33.0467 21.8458 33.7149C20.1976 34.4276 17.8367 34.4276 17.5694 33.7149C17.4358 33.4476 17.3467 33.5812 17.3912 34.0712C17.4358 34.8285 17.6585 34.9621 18.683 34.8285C19.9749 34.6503 20.2867 35.0958 19.4403 35.9421C19.1285 36.254 19.1285 36.5212 19.3958 36.6994C19.6185 36.8331 19.9749 36.4767 20.1085 35.8976C20.2867 35.2294 20.8658 34.6503 21.7121 34.383L23.0485 33.893V36.2985C23.0485 38.5258 22.9149 38.8376 21.4894 40.1294C20.643 40.9313 19.9749 41.8667 19.9749 42.2676C20.0194 42.8467 20.064 42.8467 20.2421 42.1785C20.5985 40.7976 21.3558 41.3767 21.1776 42.9358C21.0885 43.7822 21.1776 44.3613 21.4003 44.2276C21.6231 44.094 21.7121 43.2476 21.5785 42.3122C21.4003 41.0203 21.534 40.5749 22.2467 40.1294C23.2712 39.5058 23.2267 39.4167 23.8058 41.4213C24.2512 42.8913 24.2958 42.8913 24.3403 41.7331C24.3849 40.664 25.2758 39.9067 25.2758 40.9758C25.2758 41.1985 25.5431 41.4213 25.8549 41.4213C26.1222 41.3767 25.8549 40.9313 25.1867 40.3967C24.1622 39.5949 23.9394 39.0158 23.9394 37.5012C23.9394 35.7194 23.984 35.6303 24.8303 36.0758C25.3203 36.3431 25.7213 36.8331 25.7213 37.1894C25.7213 37.5903 25.9885 37.724 26.3894 37.5458C27.0131 37.3231 27.0131 37.1894 26.3449 36.4767C25.944 36.0312 25.2312 35.5412 24.7858 35.4076C24.1176 35.1849 23.984 34.873 24.2067 33.9376C24.6076 32.2449 25.0531 31.933 26.1222 32.4676C26.8794 32.8685 27.1022 32.824 27.5031 32.0221C27.9931 31.1758 27.9485 31.1312 27.0576 31.6212C26.3449 32.0221 25.944 32.0221 25.5876 31.6658C24.964 31.0421 26.3894 29.483 28.8394 28.1021L30.6213 27.1221V34.3385C30.6213 41.154 30.5767 41.644 29.5522 43.3813C27.8149 46.3213 25.0531 48.014 18.5494 50.1077C14.2285 51.5331 12.803 51.3995 11.6003 49.5731C10.4866 47.8804 10.6203 40.664 11.9121 35.8531C14.2285 26.9439 17.9258 22.4894 25.6322 19.3266C28.3049 18.213 29.1958 18.0794 30.3985 18.5248ZM44.6977 20.2621C46.4795 21.1085 48.9295 22.7566 50.1768 23.8703C54.4086 27.7012 57.3486 35.6749 57.4823 43.8713C57.6159 51.1322 56.2795 52.2013 49.8204 50.1077C43.3168 48.014 40.5549 46.3213 38.8177 43.3813C37.7931 41.644 37.7486 41.154 37.7486 34.3385V27.1221L39.5304 28.1021C41.9804 29.483 43.4059 31.0421 42.7822 31.6658C42.4259 32.0221 42.0249 32.0221 41.3122 31.6212C40.4213 31.1312 40.3768 31.1758 40.8668 32.0221C41.2677 32.824 41.4904 32.8685 42.2477 32.4676C43.3168 31.933 43.7622 32.2449 44.1631 33.9376C44.3859 34.873 44.2522 35.1849 43.584 35.4076C43.1386 35.5412 42.4259 36.0312 42.0249 36.4767C41.3568 37.1894 41.3568 37.3231 41.9804 37.5458C42.3813 37.724 42.6486 37.5903 42.6486 37.1894C42.6486 36.8331 43.0495 36.3431 43.5395 36.0758C44.3859 35.6303 44.4304 35.7194 44.4304 37.5012C44.4304 39.0158 44.2077 39.5949 43.2277 40.3967C42.5149 40.9313 42.2477 41.3767 42.5595 41.4213C42.8268 41.4213 43.094 41.1985 43.094 40.9758C43.094 39.9067 43.985 40.664 44.0295 41.7331C44.074 42.8913 44.1186 42.8913 44.564 41.4213C45.1431 39.4167 45.0986 39.5058 46.1231 40.1294C46.8359 40.5749 46.9695 41.0203 46.7913 42.3122C46.6577 43.2476 46.7468 44.094 46.9695 44.2276C47.1922 44.3613 47.2813 43.7822 47.1922 42.9358C47.0141 41.3767 47.7713 40.7976 48.1277 42.1785C48.3059 42.8467 48.3504 42.8467 48.395 42.2676C48.395 41.8667 47.7268 40.9313 46.8804 40.1294C45.455 38.8376 45.3213 38.5258 45.3213 36.2985V33.893L46.6577 34.383C47.5041 34.6503 48.0832 35.2294 48.2613 35.8976C48.395 36.4767 48.7513 36.8331 48.9741 36.6994C49.2413 36.5212 49.2413 36.254 48.9295 35.9421C48.0832 35.0958 48.395 34.6503 49.6868 34.8285C50.7113 34.9621 50.9341 34.8285 50.9786 34.0712C51.0232 33.5812 50.9341 33.4476 50.8004 33.7149C50.5332 34.4276 48.1722 34.4276 46.5241 33.7149C45.054 33.0912 43.2277 29.6167 44.2077 29.2603C44.5195 29.1267 44.965 29.483 45.2322 30.1067C45.4995 30.6858 46.2568 31.2649 46.8804 31.443C48.395 31.7994 50.2213 30.8639 49.9095 29.8839C49.7313 29.3048 49.7759 29.3048 50.1323 29.7948C50.7559 30.6858 51.5577 29.973 51.5577 28.5476C51.5577 26.9885 49.5086 24.9839 47.7713 24.8503C45.945 24.7166 45.3213 25.2066 45.3213 26.7657C45.3213 27.7457 45.0095 28.1912 44.2077 28.5921C43.2277 29.0376 42.9159 28.993 42.1586 28.2358C41.3568 27.3894 41.3122 27.2557 42.0249 25.8748C42.4259 25.073 43.005 24.3157 43.3613 24.1821C43.7177 24.0485 43.8513 23.7812 43.7177 23.5139C43.584 23.2912 43.1831 23.4694 42.8268 23.9148C42.4259 24.4494 42.2477 24.4939 42.2031 24.1376C42.2031 23.8257 41.9359 23.2466 41.5795 22.9348C41.0449 22.4003 40.9113 22.4003 40.6886 22.9348C40.5549 23.2912 40.6886 23.5585 41.0004 23.4694C41.8022 23.3357 41.8913 25.6076 41.134 26.2312C40.5995 26.6767 40.154 26.5876 38.7286 25.8748C37.1695 25.073 36.9467 24.7166 36.6795 23.0239C36.3677 20.9303 36.8577 18.9703 37.8377 18.5248C38.9513 18.0348 41.5795 18.703 44.6977 20.2621Z" fill="#21529A" stroke="#21529A" style="fill:#21529A;fill:color(display-p3 0.1294 0.3216 0.6039);fill-opacity:1;stroke:#21529A;stroke:color(display-p3 0.1294 0.3216 0.6039);stroke-opacity:1;"/>
</svg>
