<svg width="17" height="22" viewBox="0 0 17 22" fill="none" xmlns="http://www.w3.org/2000/svg">
<path d="M1.40234 3.66992V19.8604H6.7452V16.2985H10.3071V19.8604H15.65V3.66992H1.40234ZM5.90869 15.5699H2.37377V13.2763H5.93568L5.90869 15.5699ZM5.90869 12.6826H2.37377V10.389H5.93568L5.90869 12.6826ZM5.90869 9.87627H2.37377V7.58262H5.93568L5.90869 9.87627ZM5.90869 6.98897H2.37377V4.69532H5.93568L5.90869 6.98897ZM10.2801 15.5699H6.7452V13.2763H10.3071V15.5699H10.2801ZM10.2801 12.6826H6.7452V10.389H10.3071V12.6826H10.2801ZM10.2801 9.87627H6.7452V7.58262H10.3071V9.87627H10.2801ZM10.2801 6.98897H6.7452V4.69532H10.3071V6.98897H10.2801ZM14.6516 15.5699H11.1166V13.2763H14.6785L14.6516 15.5699ZM14.6516 12.6826H11.1166V10.389H14.6785L14.6516 12.6826ZM14.6516 9.87627H11.1166V7.58262H14.6785L14.6516 9.87627ZM14.6516 6.98897H11.1166V4.69532H14.6785L14.6516 6.98897Z" fill="#21529A" style="fill:#21529A;fill:color(display-p3 0.1294 0.3216 0.6039);fill-opacity:1;"/>
<rect x="2.42969" y="0.269775" width="11.873" height="2.69841" fill="#CB3F49" style="fill:#CB3F49;fill:color(display-p3 0.7961 0.2471 0.2863);fill-opacity:1;"/>
<path d="M2.23828 0.0810547V3.15725H14.7859V0.0810547H2.23828ZM5.07161 2.86042L4.26209 2.42867L3.45257 2.86042L3.61447 1.94296L2.93987 1.29534L3.85733 1.16042L4.26209 0.323912L4.66685 1.16042L5.58431 1.29534L4.90971 1.94296L5.07161 2.86042ZM7.90495 2.86042L7.09542 2.42867L6.2859 2.86042L6.44781 1.94296L5.7732 1.29534L6.69066 1.16042L7.09542 0.323912L7.50019 1.16042L8.41765 1.29534L7.74304 1.94296L7.90495 2.86042ZM10.7383 2.86042L9.92876 2.42867L9.11923 2.86042L9.28114 1.94296L8.60654 1.29534L9.52399 1.16042L9.92876 0.323912L10.3335 1.16042L11.251 1.29534L10.5764 1.94296L10.7383 2.86042ZM13.5986 2.86042L12.7891 2.42867L11.9796 2.86042L12.1415 1.94296L11.4669 1.29534L12.3843 1.16042L12.7891 0.323912L13.1938 1.16042L14.1113 1.29534L13.4367 1.94296L13.5986 2.86042Z" fill="#21529A" style="fill:#21529A;fill:color(display-p3 0.1294 0.3216 0.6039);fill-opacity:1;"/>
<path d="M16.9201 20.1572H0.0820312V20.9128H16.9201V20.1572Z" fill="#21529A" style="fill:#21529A;fill:color(display-p3 0.1294 0.3216 0.6039);fill-opacity:1;"/>
</svg>
