<svg width="69" height="69" viewBox="0 0 69 69" fill="none" xmlns="http://www.w3.org/2000/svg">
<rect width="69" height="69" rx="34.5" fill="#CBD5E1" style="fill:#CBD5E1;fill:color(display-p3 0.7961 0.8353 0.8824);fill-opacity:1;"/>
<path d="M32.665 9.0175C29.6432 9.41845 27.5309 11.1298 26.2889 14.1907C25.5261 16.0781 25.1643 17.7797 24.5482 22.5031C23.8246 28.0382 23.3258 30.2092 22.2892 32.3118C21.6242 33.6613 21.145 34.2383 19.0131 36.2919C15.7762 39.4115 14.8276 40.6828 14.0746 42.9418C13.8106 43.734 13.8008 43.8611 13.8008 45.5823C13.8008 47.7141 13.9475 48.428 14.7103 50.0318C15.2775 51.1956 15.6686 51.7628 16.5488 52.6625C18.4655 54.5988 20.8028 55.5669 23.5703 55.5669C25.1741 55.5669 26.0738 55.3713 27.8047 54.6672C28.0199 54.5792 28.1666 54.5694 28.2546 54.6281C28.323 54.6868 28.6457 54.9313 28.9587 55.1953C29.7215 55.8114 30.8167 56.3688 31.8827 56.6915C32.6552 56.9164 32.9291 56.9556 34.083 56.9556C35.237 56.9556 35.5108 56.9164 36.2834 56.6915C37.3982 56.3493 38.4446 55.8016 39.3541 55.0779L40.0777 54.5107L40.6938 54.7846C43.1875 55.919 46.4636 55.8309 48.9867 54.5694C52.6735 52.7211 54.7564 48.9268 54.4044 44.6826C54.2675 43.0201 53.6123 41.3772 52.4387 39.7636C52.1063 39.3137 50.8252 37.9544 49.3974 36.5364C48.0381 35.1869 46.7863 33.8862 46.6201 33.632C45.2021 31.5392 44.4491 28.8401 43.7058 23.1486L43.5396 21.8968L42.4541 21.1829C41.7989 20.7526 41.3588 20.5277 41.3393 20.5962C41.3001 20.7624 41.8673 25.0947 42.1607 26.8549C42.591 29.466 43.1386 31.3925 43.9112 33.0354C44.7131 34.7272 45.0749 35.1869 47.8229 37.9055C50.4144 40.4677 51.0012 41.162 51.6271 42.404C52.3898 43.9198 52.5854 45.7876 52.1747 47.5088C51.2555 51.3325 47.6273 53.924 43.7939 53.4937C43.0897 53.4155 41.4175 52.9754 41.4175 52.8678C41.4175 52.8483 41.5642 52.5744 41.75 52.2615C41.9358 51.9486 42.2683 51.2249 42.503 50.6675C42.7279 50.1003 43.0409 49.4549 43.1875 49.2299C43.7254 48.4476 44.6055 47.8413 46.0431 47.2447C46.9037 46.8829 47.0895 46.6873 47.0895 46.0908C47.0895 45.5431 46.6885 45.0933 46.1898 45.0933C45.5932 45.0933 44.0579 45.7778 43.0213 46.5211C41.8282 47.3621 41.261 48.1738 40.4396 50.1981C39.5888 52.2908 37.8383 54.012 35.902 54.6477C34.7676 55.0193 33.3985 55.0193 32.2641 54.6477C30.3278 54.012 28.5773 52.2908 27.7265 50.1981C26.905 48.1738 26.3378 47.3621 25.1448 46.5211C24.1082 45.7778 22.5728 45.0933 21.9763 45.0933C21.4775 45.0933 21.0766 45.5431 21.0766 46.0908C21.0766 46.6873 21.2624 46.8829 22.123 47.2447C23.5605 47.8413 24.4406 48.4574 24.9687 49.2299C25.1252 49.4549 25.4577 50.1296 25.7022 50.7359C25.9564 51.3325 26.2889 52.0561 26.4552 52.33C26.6116 52.6038 26.7486 52.8483 26.7486 52.8678C26.7486 52.8874 26.3965 53.0243 25.9662 53.1514C22.6804 54.1978 19.2185 53.0341 17.204 50.2079C15.6002 47.9684 15.3264 44.7901 16.539 42.404C17.1746 41.162 17.7516 40.4677 20.3431 37.9055C22.9835 35.2944 23.3845 34.8153 24.1277 33.3092C25.2621 31.0502 25.7902 28.8108 26.5628 23.0019C27.306 17.3788 27.7363 15.5794 28.7729 13.7996C29.9268 11.8242 31.9805 10.8364 34.572 11.0027C37.7014 11.2081 39.3932 13.7898 40.4591 17.457L40.7721 18.5425H41.8184H42.8648L42.7181 17.8775C41.7304 13.4573 39.6279 9.89764 36.3616 9.16419C35.4815 8.96861 33.5745 8.89037 32.665 9.0175Z" fill="#005897" style="fill:#005897;fill:color(display-p3 0.0000 0.3451 0.5922);fill-opacity:1;"/>
<path d="M33.3891 20.5375L33.1055 20.8211V22.6499V24.4786L33.3891 24.7622C33.614 24.9871 33.7607 25.0458 34.0834 25.0458C34.4061 25.0458 34.5528 24.9871 34.7777 24.7622L35.0613 24.4786V22.6499V20.8211L34.7777 20.5375C34.5528 20.3126 34.4061 20.2539 34.0834 20.2539C33.7607 20.2539 33.614 20.3126 33.3891 20.5375Z" fill="#005897" style="fill:#005897;fill:color(display-p3 0.0000 0.3451 0.5922);fill-opacity:1;"/>
<path d="M33.3891 27.9698L33.1055 28.2534V30.0821V31.9108L33.3891 32.1944C33.614 32.4194 33.7607 32.478 34.0834 32.478C34.4061 32.478 34.5528 32.4194 34.7777 32.1944L35.0613 31.9108V30.0821V28.2534L34.7777 27.9698C34.5528 27.7449 34.4061 27.6862 34.0834 27.6862C33.7607 27.6862 33.614 27.7449 33.3891 27.9698Z" fill="#005897" style="fill:#005897;fill:color(display-p3 0.0000 0.3451 0.5922);fill-opacity:1;"/>
<path d="M33.3891 35.402L33.1055 35.6856V37.5144V39.3431L33.3891 39.6267C33.614 39.8516 33.7607 39.9103 34.0834 39.9103C34.4061 39.9103 34.5528 39.8516 34.7777 39.6267L35.0613 39.3431V37.5144V35.6856L34.7777 35.402C34.5528 35.1771 34.4061 35.1184 34.0834 35.1184C33.7607 35.1184 33.614 35.1771 33.3891 35.402Z" fill="#005897" style="fill:#005897;fill:color(display-p3 0.0000 0.3451 0.5922);fill-opacity:1;"/>
<path d="M33.3891 42.8343L33.1055 43.1179V44.9466V46.7753L33.3891 47.0589C33.79 47.4599 34.3768 47.4599 34.7777 47.0589L35.0613 46.7753V44.9466V43.1179L34.7777 42.8343C34.5528 42.6093 34.4061 42.5507 34.0834 42.5507C33.7607 42.5507 33.614 42.6093 33.3891 42.8343Z" fill="#005897" style="fill:#005897;fill:color(display-p3 0.0000 0.3451 0.5922);fill-opacity:1;"/>
<path d="M39.754 19.1597C39.5713 18.6492 39.5587 18.0778 39.7241 17.5648C39.7781 17.4233 39.8366 17.2453 39.9913 17.19C40.1151 17.1457 40.2554 17.1478 40.4445 17.2372C45.6179 19.6959 50.8067 22.1491 55.99 24.5869C56.2211 24.6961 56.4633 24.8363 56.574 25.1457C56.6416 25.3833 56.6252 25.5812 56.5358 25.7702L56.3824 26.1218C56.2986 26.3264 56.1937 26.521 56.1043 26.71C55.8549 27.1833 55.4217 27.3383 54.9386 27.1099L46.0425 22.9296C45.8534 22.8402 45.7417 22.7232 45.6752 22.5375C45.6531 22.4757 45.6309 22.4138 45.6187 22.3309C45.612 22.2635 45.6363 22.185 45.6661 22.122C45.5421 21.922 45.447 21.8513 45.342 21.8017C45.1363 21.6659 44.9627 21.5709 44.7671 21.6584C44.0733 22.0115 43.4807 21.7699 42.9389 21.4752C42.5917 21.2853 42.2401 21.1319 41.8675 20.9686C41.5369 20.8252 41.2163 20.6607 40.8956 20.4963C40.3804 20.227 39.9644 19.7476 39.754 19.1597ZM46.305 20.6891C46.2884 20.6426 46.2198 20.5974 46.0938 20.5378C44.7703 19.9121 40.4903 17.9014 40.4903 17.9014C40.4273 17.8716 40.3643 17.8418 40.2913 17.833C40.2084 17.8452 40.1941 17.9027 40.1809 18.0121C40.1215 18.3825 40.1438 18.6886 40.249 18.9825C40.4152 19.4466 40.7614 19.8288 41.2026 20.0374C41.6703 20.2713 42.1324 20.4898 42.5946 20.7083L43.75 21.2546C43.897 21.3241 44.0374 21.3262 44.1556 21.2665C44.6539 21.0008 45.169 21.0259 45.6755 21.3681C45.8126 21.4587 45.8855 21.4675 45.9165 21.4564C45.9629 21.4398 45.9927 21.3768 46.0213 21.2618C46.05 21.1468 46.1096 21.0208 46.2057 20.8991C46.3073 20.7929 46.3216 20.7355 46.305 20.6891ZM47.7478 21.3069C47.363 21.0608 47.1363 20.915 46.9816 20.9704C46.8368 21.0048 46.7066 21.2259 46.5179 21.6251C46.4086 21.8561 46.359 21.9612 46.3038 22.0508C46.2386 22.1613 46.1989 22.2454 46.2012 22.3492C46.2654 22.431 47.0172 22.825 47.1366 22.8172L47.7822 21.4517L47.7965 21.3942L47.9203 21.3499L47.7478 21.3069ZM56.0049 25.2622C55.9827 25.2003 55.8832 25.1661 55.7992 25.1264C53.6354 24.1034 51.5977 23.14 49.539 22.1666C49.4129 22.1071 49.3024 22.0419 49.1708 21.9669C48.8811 21.7913 48.5759 21.6213 48.3692 21.6779C48.1781 21.7288 48.0854 22.0063 47.9829 22.3048C47.9244 22.4828 47.866 22.6608 47.7655 22.819C47.7004 22.9295 47.6761 23.008 47.6927 23.0544C47.7093 23.1008 47.7779 23.1461 47.8885 23.2112C49.4165 23.9208 50.95 24.6458 52.4681 25.3764L54.5899 26.3796C55.0155 26.5937 55.2621 26.6974 55.3859 26.6531C55.5251 26.6033 55.6387 26.3357 55.8374 25.9155C55.982 25.6369 56.057 25.5053 55.9906 25.3197L56.0778 25.271L56.016 25.2931L56.0049 25.2622Z" fill="#005897" style="fill:#005897;fill:color(display-p3 0.0000 0.3451 0.5922);fill-opacity:1;"/>
<path d="M56.4863 25.1948L56.4919 25.2102C56.5318 25.3705 56.5308 25.5628 56.4513 25.7308C56.3024 26.0459 56.1744 26.371 56.0044 26.6762C55.7903 27.1019 55.4035 27.2403 54.9679 27.0472C52.0059 25.6468 49.0438 24.2464 46.0818 22.8459C45.9137 22.7665 45.823 22.6593 45.7676 22.5046C45.7455 22.4427 45.7289 22.3963 45.7222 22.3289C45.7143 22.2096 45.8203 22.0669 45.7871 21.9741C45.776 21.9431 45.744 21.9023 45.6809 21.8725C45.3769 21.7544 45.0727 21.3921 44.7335 21.5659C44.1015 21.8968 43.5719 21.685 43.0091 21.3804C42.3413 21.0261 41.6282 20.7403 40.9659 20.4015C40.4296 20.1222 40.0347 19.6528 39.8409 19.1114C39.6692 18.6318 39.6522 18.0969 39.8176 17.5839C39.9246 17.2489 40.0682 17.1626 40.4043 17.3215C45.5777 19.7803 50.7666 22.2335 55.9499 24.6712C56.1865 24.796 56.3866 24.9163 56.4863 25.1948ZM47.615 23.0824C47.6426 23.1598 47.7167 23.2205 47.8638 23.29C50.1061 24.3373 52.3328 25.3901 54.5596 26.4429C55.505 26.8899 55.505 26.8899 55.9408 25.9136C56.0302 25.7245 56.2136 25.5542 56.1028 25.2448L56.0973 25.2293C56.053 25.1055 55.8805 25.0626 55.7335 24.993C53.6902 24.0142 51.637 23.0563 49.5783 22.0829C49.1581 21.8843 48.687 21.4945 48.3411 21.6008C47.9588 21.7028 47.9217 22.3793 47.681 22.7795C47.6215 22.9056 47.5873 23.0051 47.615 23.0824ZM46.1123 22.3463C46.1566 22.4701 47.0611 22.9491 47.1694 22.9103C47.2158 22.8937 47.2611 22.8252 47.2754 22.7677C47.474 22.3475 47.6671 21.9119 47.8813 21.4862C47.9111 21.4232 47.9154 21.3867 47.8988 21.3403C47.8822 21.2939 47.8402 21.274 47.7871 21.2232C46.9644 20.68 46.8296 20.6934 46.4124 21.5757C46.3429 21.7228 46.2888 21.8643 46.2138 21.9959C46.1697 22.1164 46.1045 22.227 46.1123 22.3463ZM40.1867 19.005C40.3529 19.4691 40.7102 19.8822 41.1834 20.1316C42.0292 20.5444 42.885 20.9361 43.7309 21.3489C43.8989 21.4284 44.0603 21.4404 44.2249 21.364C44.7177 21.0829 45.1974 21.1555 45.6409 21.468C45.8886 21.6236 46.0654 21.6301 46.1414 21.3062C46.1701 21.1913 46.2297 21.0652 46.3003 20.9701C46.3809 20.854 46.3997 20.76 46.372 20.6827C46.3443 20.6053 46.2492 20.5347 46.1231 20.4751C44.259 19.6066 42.3893 18.7226 40.5351 17.8331C40.4301 17.7835 40.3306 17.7493 40.2521 17.725C40.093 17.8169 40.1064 17.9517 40.0987 18.0766C40.0481 18.374 40.076 18.6956 40.1867 19.005ZM56.672 25.1283C56.5501 24.788 56.2969 24.6168 56.0448 24.4976C50.856 22.0444 45.6881 19.6011 40.4993 17.1479C40.3732 17.0883 40.1687 17.0045 39.9731 17.0919C39.7776 17.1794 39.6882 17.3684 39.6452 17.5409C39.4698 18.0749 39.488 18.6618 39.6818 19.2032C39.8977 19.8065 40.3402 20.3113 40.8975 20.6005C41.2181 20.7649 41.5543 20.9239 41.8848 21.0673C42.242 21.2361 42.5936 21.3895 42.9408 21.5794C43.5036 21.884 44.1172 22.1356 44.8519 21.7504C44.9856 21.6851 45.0962 21.7502 45.3228 21.8959C45.4124 21.9511 45.523 22.0163 45.628 22.0659C45.6126 22.0715 45.6181 22.0869 45.6082 22.108C45.5839 22.1864 45.5442 22.2705 45.5619 22.3688C45.5742 22.4517 45.5808 22.5191 45.6085 22.5965C45.6805 22.7976 45.8188 22.9401 46.0289 23.0394L48.5918 24.2511C50.6925 25.2443 52.8143 26.2475 54.915 27.2407C55.4402 27.489 55.9352 27.3118 56.2045 26.7965C56.3094 26.6019 56.4087 26.3918 56.4926 26.1873C56.5422 26.0822 56.6018 25.9562 56.6515 25.8512C56.7508 25.6411 56.7772 25.4222 56.7096 25.1846L56.704 25.1692L56.6874 25.1228L56.672 25.1283ZM47.8006 23.016C47.8006 23.016 47.7994 22.964 47.8701 22.8689C47.9706 22.7108 48.0235 22.5173 48.0974 22.3338C48.1801 22.0773 48.2783 21.8153 48.4231 21.7809C48.5833 21.741 48.8885 21.911 49.1516 22.0611C49.2832 22.1362 49.4148 22.2113 49.5198 22.2609C51.5156 23.2045 53.5113 24.148 55.507 25.0916L55.675 25.171C55.717 25.1909 55.7535 25.1953 55.7955 25.2152C55.8376 25.235 55.9371 25.2692 55.9481 25.3001C56.0035 25.4548 55.9638 25.5389 55.8788 25.6915C55.8589 25.7335 55.8236 25.781 55.8037 25.823C55.6249 26.2012 55.5113 26.4687 55.4085 26.523C55.3157 26.5562 55.0482 26.4426 54.6855 26.2582L52.7108 25.3246C51.1352 24.5797 49.5597 23.8348 47.9897 23.1054C47.8327 23.0569 47.8006 23.016 47.8006 23.016ZM46.3135 22.2743C46.3178 22.2379 46.3631 22.1693 46.3929 22.1063C46.4426 22.0012 46.4922 21.8962 46.5474 21.8066L46.6015 21.6651C46.7306 21.392 46.8696 21.0979 46.9989 21.0691C47.1282 21.0402 47.418 21.2158 47.6922 21.3968L47.7132 21.4068L47.4351 21.995C47.3258 22.2261 47.2166 22.4571 47.1073 22.6882L47.0974 22.7092C46.9139 22.6353 46.4462 22.4013 46.3135 22.2743ZM40.3241 17.9261C40.3661 17.946 40.4236 17.9603 40.4656 17.9802L42.1097 18.7704C43.4332 19.3961 44.7357 20.0119 46.0591 20.6376C46.1852 20.6972 46.2117 20.7226 46.2173 20.7381C46.2173 20.7381 46.2129 20.7745 46.1676 20.8431C46.0771 20.9802 46.0175 21.1063 45.9789 21.2423C45.9602 21.3362 45.9348 21.3628 45.9193 21.3683C45.9193 21.3683 45.8828 21.3639 45.7667 21.2833C45.2182 20.9212 44.6667 20.8917 44.1375 21.1684C44.0657 21.2116 43.9828 21.2238 43.8202 21.1598C43.4421 20.9811 43.0794 20.7967 42.7013 20.618C42.2181 20.3895 41.756 20.171 41.2673 19.9271C40.8471 19.7285 40.5219 19.3562 40.3668 18.9231C40.2672 18.6446 40.2504 18.3539 40.2911 18.0776L40.2998 18.0046C40.3042 17.9682 40.3142 17.9472 40.3241 17.9261Z" fill="#005897" style="fill:#005897;fill:color(display-p3 0.0000 0.3451 0.5922);fill-opacity:1;"/>
<path d="M40.2633 17.7027C40.1042 17.7946 40.1176 17.9294 40.1099 18.0543C39.9668 18.8734 40.3963 19.7319 41.2001 20.1248C42.046 20.5376 42.9017 20.9293 43.7476 21.3421C43.9156 21.4215 44.077 21.4336 44.2416 21.3572C44.7344 21.0761 45.2141 21.1487 45.6576 21.4611C45.9053 21.6168 46.0821 21.6233 46.1582 21.2994C46.1868 21.1844 46.2464 21.0584 46.3171 20.9633C46.4882 20.7101 46.3919 20.5874 46.1399 20.4683C44.2757 19.5998 42.4061 18.7158 40.5519 17.8263C40.4568 17.7557 40.3573 17.7215 40.2633 17.7027Z" fill="#CEE9F9" style="fill:#CEE9F9;fill:color(display-p3 0.8078 0.9137 0.9765);fill-opacity:1;"/>
</svg>
