<svg width="69" height="69" viewBox="0 0 69 69" fill="none" xmlns="http://www.w3.org/2000/svg">
<rect width="69" height="69" rx="34.5" fill="#CBD5E1" style="fill:#CBD5E1;fill:color(display-p3 0.7961 0.8353 0.8824);fill-opacity:1;"/>
<path d="M34.3229 12.0028C32.7173 12.7283 32.0878 13.0377 32.0132 13.139C31.8478 13.3577 31.8745 13.6618 32.0932 14.0245C32.3065 14.3766 32.7706 15.2994 32.7706 15.3581C32.7706 15.3847 32.6533 15.4594 32.5146 15.5287C31.7411 15.9128 30.781 16.7076 30.2635 17.3904C29.6768 18.1639 29.1807 19.4334 29.106 20.3509L29.074 20.767L28.7219 20.7243C28.1832 20.6603 27.2977 20.6923 26.823 20.7883C25.7615 21.007 24.6093 21.5191 23.4891 22.2659C20.3952 24.3302 18.3469 27.1627 17.4934 30.5659C17.152 31.9261 17.0667 32.6569 17.0667 34.2305C17.0667 35.068 17.088 35.7828 17.1307 36.0388C17.1894 36.4015 17.184 36.5136 17.104 36.8923C16.9653 37.5271 16.9653 40.6209 17.104 41.7251C17.7441 46.8886 19.8618 51.3747 23.1744 54.6072C26.0175 57.3757 29.266 58.8693 32.7173 58.992C35.299 59.0826 37.7421 58.4052 39.8971 56.9863C43.8338 54.4099 46.4742 49.7424 47.1197 44.2162C47.2477 43.112 47.285 41.309 47.1997 40.2849L47.1783 39.9915L47.6691 39.7568C48.0798 39.5594 48.2345 39.4421 48.6186 39.0633C48.9813 38.6953 49.12 38.5139 49.296 38.1512C49.6481 37.4311 49.7441 36.9883 49.7494 36.0442C49.7548 34.828 49.5201 33.7984 48.9066 32.3369C48.5332 31.4567 48.4319 31.0087 48.4799 30.4806C48.5332 29.8298 48.8586 28.9763 49.2213 28.5282L49.344 28.3682L49.9255 28.5122C50.2455 28.5923 50.6509 28.6989 50.8323 28.7469C51.1417 28.8323 51.163 28.8323 51.3604 28.7309C51.5524 28.6349 51.6378 28.4962 52.6566 26.6293C53.8835 24.3836 53.9208 24.2715 53.6488 23.9728C53.2754 23.5728 50.6563 22.3352 49.216 21.8765L48.8266 21.7538V21.4071C48.8213 20.1749 48.3839 18.6866 47.7011 17.5771C47.3437 17.001 46.3515 15.9822 45.7861 15.6034C44.7086 14.8833 43.3644 14.3926 41.8708 14.1739C41.4014 14.1045 40.0518 13.9978 39.5878 13.9872C39.5344 13.9872 39.3637 13.7791 39.1557 13.4644C38.6756 12.7336 38.2542 12.2215 37.6248 11.6188C37.0753 11.0907 36.9313 11 36.6753 11C36.5953 11.0053 35.5391 11.4534 34.3229 12.0028ZM36.926 12.6909C38.1475 13.9232 38.9423 15.4061 39.2837 17.0703C39.5397 18.3292 39.4597 20.2122 39.0917 21.4817L39.0117 21.7591L38.4889 21.9618C37.4221 22.3832 36.0352 23.1727 35.0963 23.8981C34.8883 24.0582 34.7923 24.1062 34.8136 24.0475C34.835 23.9888 34.9096 23.7381 34.9843 23.4874C35.7418 20.815 35.3097 17.6411 33.7574 14.4459C33.5868 14.0992 33.4694 13.8058 33.4907 13.7845C33.5334 13.7418 36.5152 12.3922 36.5739 12.3922C36.6006 12.3869 36.7553 12.5256 36.926 12.6909ZM41.2787 15.3794C43.7218 15.6461 45.5621 16.6223 46.5809 18.2012C47.0877 18.9853 47.4504 20.0522 47.5251 20.9857C47.5624 21.3857 47.5571 21.4177 47.4664 21.3804C47.285 21.311 45.9728 21.0923 45.3594 21.023C44.0152 20.8843 42.2389 20.9643 40.9106 21.2364L40.4412 21.3324L40.4732 21.1137C40.6546 19.9188 40.6759 19.6254 40.6493 18.5746C40.6333 17.9131 40.5906 17.2944 40.5372 17.001C40.4626 16.5849 40.2119 15.6461 40.0998 15.3581C40.0625 15.2514 40.1372 15.2567 41.2787 15.3794ZM33.4801 17.225C33.8748 18.4839 34.0028 19.22 34.0348 20.4682C34.0668 21.5778 34.0188 22.1112 33.8161 22.9113C33.6881 23.4074 33.4107 24.1755 33.3574 24.1755C33.3414 24.1755 33.2614 24.0635 33.1707 23.9195C32.8986 23.4874 32.1999 22.6553 31.7998 22.2819C31.4211 21.9298 30.8396 21.5084 30.4929 21.327C30.3275 21.2417 30.3169 21.2257 30.3169 20.9323C30.3169 20.0575 30.6316 19.1027 31.1704 18.3079C31.4051 17.9665 32.0985 17.2837 32.4666 17.033C32.8133 16.7983 33.16 16.6009 33.2294 16.6009C33.2614 16.6009 33.3734 16.8836 33.4801 17.225ZM28.9567 22.0738C29.4154 22.1965 30.0768 22.5166 30.4556 22.8046C31.7838 23.8128 33 25.8025 33.7308 28.1708L33.9068 28.7309L33.7681 28.8376C33.1654 29.3177 31.4317 30.2459 30.3329 30.6726C28.3592 31.4407 26.8816 31.7234 24.3799 31.7981C23.2544 31.8355 22.801 31.8728 22.3529 31.9581C20.854 32.2569 19.6271 32.913 18.6776 33.9318L18.2615 34.3745V34.0065C18.2615 32.7156 18.5869 30.9073 19.0403 29.6751C19.275 29.0297 19.8298 27.8988 20.1605 27.376C21.126 25.8611 22.4916 24.4689 24.0545 23.4127C25.3187 22.5592 26.3162 22.1378 27.4631 21.9672C27.7565 21.9245 28.6313 21.9832 28.9567 22.0738ZM45.1727 22.2552C47.205 22.4846 49.216 23.0927 51.387 24.1382C51.7818 24.3249 52.1498 24.5169 52.2032 24.5542C52.2885 24.6236 52.2459 24.7249 51.5364 26.0318C50.971 27.072 50.7523 27.4241 50.6936 27.4027C50.6509 27.3814 50.2669 27.3014 49.8401 27.216C48.1438 26.8853 46.1328 26.896 44.4526 27.248C43.4977 27.4507 42.2922 27.8668 41.4654 28.2829C40.1532 28.9443 38.6276 30.1338 37.7048 31.2114L37.3314 31.6488L37.0753 31.366C36.3872 30.6086 35.3204 29.0563 35.1977 28.6403C35.0377 28.1122 34.5736 26.6879 34.4776 26.4586L34.3762 26.2132L34.867 25.7384C36.846 23.8235 39.4917 22.5699 42.1855 22.2659C42.7829 22.1965 44.5966 22.1912 45.1727 22.2552ZM47.8451 28.2402C47.8611 28.2562 47.8131 28.3949 47.7331 28.5442C47.6584 28.6936 47.5197 29.0403 47.4291 29.3124C47.285 29.7391 47.2584 29.8938 47.237 30.5072C47.2103 31.3874 47.2904 31.7981 47.6798 32.6889C48.2132 33.9105 48.4479 34.812 48.4906 35.8041C48.5332 36.8496 48.2879 37.6177 47.7384 38.1672C47.4451 38.4606 46.901 38.7966 46.869 38.7006C46.8583 38.6686 46.7623 38.5032 46.6609 38.3325C45.8715 37.0257 44.5272 36.0228 42.3989 35.164C41.4387 34.7746 40.7773 34.4279 39.9558 33.8838C39.2517 33.4144 38.2649 32.6356 38.2649 32.5449C38.2649 32.4756 38.937 31.7288 39.3904 31.2914C41.3267 29.4351 43.5991 28.4482 46.4796 28.2082C46.8103 28.1815 47.8078 28.2029 47.8451 28.2402ZM34.7496 30.4272C35.3524 31.3287 35.9338 32.0328 36.798 32.9023C38.4569 34.5719 39.7691 35.4521 41.9188 36.3375C42.9056 36.7483 43.2897 36.9403 43.8978 37.3404C44.7619 37.9058 45.4501 38.6526 45.7594 39.346C45.8768 39.6127 45.8981 39.7728 45.9568 40.7223C46.1115 43.4107 45.6954 46.1845 44.7513 48.7396C44.4579 49.5291 43.6684 51.1027 43.2044 51.8281C41.5187 54.4472 39.1877 56.3462 36.6059 57.189C34.4722 57.8878 32.1145 57.9145 29.9435 57.269C25.1587 55.8501 21.094 51.4761 19.2804 45.8058C18.4802 43.304 18.1549 40.8289 18.2722 38.0818C18.3149 37.095 18.3896 36.7536 18.7096 36.0868C19.4724 34.5079 20.87 33.5051 22.785 33.1583C23.0677 33.1103 23.8465 33.057 24.796 33.0303C27.175 32.9556 28.5139 32.6996 30.6263 31.9261C31.5011 31.6061 33.1227 30.7899 33.8375 30.3152C34.1468 30.1125 34.4029 29.9418 34.4082 29.9418C34.4136 29.9365 34.5683 30.1605 34.7496 30.4272Z" fill="#21529A" style="fill:#21529A;fill:color(display-p3 0.1294 0.3216 0.6039);fill-opacity:1;"/>
<path d="M30.856 33.6758C29.2877 33.8571 27.7355 34.7159 26.7486 35.9428C26.1405 36.6949 25.7725 37.4364 25.5218 38.4072L25.3777 38.9833L23.7828 41.085C22.908 42.2425 22.0705 43.3414 21.9318 43.5281L21.6758 43.8641V45.8165V47.7634L21.8571 47.9448C22.0118 48.0995 22.0758 48.1262 22.2892 48.1262C22.5026 48.1262 22.5666 48.0995 22.7213 47.9448L22.9027 47.7634V46.958V46.1525H23.5961C24.3536 46.1525 24.5243 46.1098 24.6843 45.8645C24.791 45.6991 24.7963 45.3951 24.6896 45.1977C24.5563 44.9363 24.3269 44.8723 23.5748 44.8723H22.9027V44.6109C22.9027 44.3762 22.9347 44.3069 23.1587 44.0082C23.2974 43.8215 23.8681 43.0747 24.4229 42.3439L25.4311 41.0103L25.5218 41.3837C25.7831 42.4452 26.2845 43.3627 27.058 44.1895L27.4421 44.6003L26.93 45.5071C26.6526 46.0085 26.3859 46.4992 26.3432 46.6006C26.2845 46.7393 26.2632 47.0167 26.2632 47.6461V48.4996L25.7191 48.5049C25.0577 48.5049 24.839 48.5742 24.6789 48.8143C24.5349 49.0277 24.5243 49.193 24.6363 49.4277C24.775 49.7211 24.9457 49.7798 25.6391 49.7798H26.2525L26.2739 50.5372C26.2845 51.172 26.3059 51.3267 26.3912 51.4707C26.5939 51.7961 27.0473 51.8601 27.3407 51.5988L27.5168 51.4441L27.5434 49.1823L27.5701 46.926L28.0128 46.1525C28.2582 45.7258 28.4662 45.3737 28.4769 45.363C28.4876 45.3524 28.6689 45.4271 28.8876 45.5284C29.4211 45.7791 30.0985 45.9872 30.6106 46.0565C30.8453 46.0885 31.0693 46.1205 31.1067 46.1312C31.16 46.1472 31.1707 46.3019 31.16 46.7766L31.144 47.4061L30.5573 47.4327C29.9172 47.4647 29.8265 47.4914 29.7144 47.6621C29.5224 47.9661 29.5811 48.3182 29.8638 48.5422C29.9972 48.6489 30.0772 48.6596 30.5893 48.6596H31.1707V49.145V49.6304L31.5974 50.0678L32.0242 50.5052L31.8321 50.6919C31.5921 50.9213 31.4907 51.1133 31.4907 51.348C31.4907 51.7161 31.9602 52.0522 32.3015 51.9188C32.3869 51.8868 32.5576 51.7641 32.6909 51.6414L32.9363 51.4174L33.3791 51.8495C33.8111 52.2709 33.8325 52.2869 34.0778 52.2869C34.2912 52.2869 34.3552 52.2602 34.5099 52.1055C34.6646 51.9508 34.6913 51.8868 34.6913 51.6681V51.4121L33.5444 50.2599L32.3976 49.113L32.4029 47.6088L32.4082 46.1045L32.7069 46.0458C33.6671 45.8591 34.6059 45.4484 35.3474 44.8936C35.8328 44.5309 36.4676 43.8748 36.7076 43.5014C36.7876 43.3734 36.8676 43.272 36.889 43.272C36.9103 43.272 37.3477 43.7254 37.8598 44.2802L38.7986 45.2884V47.4487V49.6091L38.932 49.7744C39.2094 50.0998 39.6414 50.0945 39.9081 49.7531C40.0202 49.6144 40.0255 49.5504 40.0255 48.5742V47.5394H40.2389C40.7083 47.5394 40.9857 47.2994 40.9857 46.8886C40.9857 46.4939 40.7189 46.2592 40.2655 46.2592H40.0255V45.5124V44.771L39.6254 44.3282C39.4067 44.0828 39.2254 43.8695 39.2254 43.8535C39.2254 43.8321 39.3107 43.7521 39.4121 43.6774C39.7428 43.4267 39.8388 43.1013 39.6788 42.792C39.5668 42.5786 39.3961 42.4719 39.156 42.4719C38.916 42.4719 38.7773 42.5359 38.5479 42.7493C38.4572 42.84 38.3612 42.904 38.3345 42.8933C38.3132 42.8826 38.1158 42.6853 37.8971 42.4559C37.5984 42.1358 37.5131 42.0132 37.5344 41.9225C37.5504 41.8585 37.6144 41.6131 37.6784 41.3784C37.8278 40.8343 37.8811 39.6448 37.7905 39.0047C37.3744 36.1722 35.1233 33.9958 32.2642 33.6704C31.7201 33.6118 31.4214 33.6118 30.856 33.6758ZM32.851 35.0573C33.7365 35.2867 34.8246 35.9535 35.2247 36.5029C35.5554 36.9617 35.7048 37.6178 35.6034 38.1672C35.3901 39.3247 34.2645 40.1248 33.1177 39.9275C32.6803 39.8528 32.3869 39.7088 31.9602 39.3674C31.2934 38.834 30.5786 38.5726 29.7571 38.5673C29.165 38.5619 28.7703 38.6526 28.1995 38.93C27.6394 39.1967 27.0793 39.6981 26.8073 40.1729L26.6473 40.4502L26.6153 40.1675C26.5406 39.5968 26.738 38.5246 27.0367 37.8525C27.3621 37.1163 28.1088 36.2255 28.7916 35.7561C29.3197 35.3934 30.2159 35.0467 30.9307 34.9346C31.304 34.8706 32.4296 34.9453 32.851 35.0573ZM36.5636 40.3916C36.4356 41.5117 35.9875 42.4826 35.2247 43.288C34.7179 43.8215 34.3552 44.0882 33.7151 44.3976C32.963 44.7549 32.5523 44.8403 31.5708 44.8403C30.7973 44.835 30.6746 44.8243 30.2479 44.6963C29.4157 44.4402 28.6049 43.9655 28.1462 43.4694C26.9673 42.1892 27.6608 40.1729 29.3944 39.8475C29.9705 39.7408 30.6799 39.9381 31.128 40.3329C32.3282 41.3784 34.0405 41.5171 35.3421 40.6636C35.7528 40.3969 36.1262 40.0182 36.3822 39.6181L36.5316 39.3781L36.5796 39.6021C36.6063 39.7461 36.6009 40.0502 36.5636 40.3916Z" fill="#21529A" style="fill:#21529A;fill:color(display-p3 0.1294 0.3216 0.6039);fill-opacity:1;"/>
</svg>
