<svg width="75" height="75" viewBox="0 0 75 75" fill="none" xmlns="http://www.w3.org/2000/svg">
<path fill-rule="evenodd" clip-rule="evenodd" d="M33.1302 56.33L32.6102 56.09L32.3002 55.61C28.5102 49.87 22.7302 45.87 15.1102 43.73C14.0002 50.31 14.9002 58 20.6302 68H34.9202C35.3884 64.2736 35.2329 60.4953 34.4602 56.82C34.0045 56.6926 33.5597 56.5287 33.1302 56.33Z" fill="#21529A" style="fill:#21529A;fill:color(display-p3 0.1294 0.3216 0.6039);fill-opacity:1;"/>
<path fill-rule="evenodd" clip-rule="evenodd" d="M39.3909 17.34H50.3309C50.1751 13.3465 51.2163 9.39752 53.3209 6H20.6309C22.2788 8.68914 23.3039 11.7131 23.6309 14.85C28.6984 16.6219 34.0439 17.4654 39.4109 17.34" fill="#21529A" style="fill:#21529A;fill:color(display-p3 0.1294 0.3216 0.6039);fill-opacity:1;"/>
<path fill-rule="evenodd" clip-rule="evenodd" d="M20.0005 29.75C19.2405 31.46 18.4505 33.19 17.7305 34.99C23.9417 37.0744 30.4489 38.1414 37.0005 38.15C43.5648 38.147 50.0855 37.0833 56.3105 35C56.1105 34.5 55.9005 34 55.6905 33.51H39.3905C32.0805 33.51 24.7005 32.24 19.9605 29.76" fill="#21529A" style="fill:#21529A;fill:color(display-p3 0.1294 0.3216 0.6039);fill-opacity:1;"/>
<path fill-rule="evenodd" clip-rule="evenodd" d="M58.8892 43.74C51.2192 45.88 45.4392 49.86 41.7292 55.6L41.4192 56.09L40.8892 56.33C40.4535 56.5304 40.002 56.6943 39.5392 56.82C38.7572 60.4944 38.6084 64.2754 39.0992 68H53.3192C59.0692 58 59.9992 50.31 58.8892 43.74Z" fill="#21529A" style="fill:#21529A;fill:color(display-p3 0.1294 0.3216 0.6039);fill-opacity:1;"/>
<path fill-rule="evenodd" clip-rule="evenodd" d="M58.5193 41.76C58.1646 40.0869 57.6764 38.445 57.0593 36.85C50.5969 39.0348 43.821 40.1494 36.9993 40.15C30.1976 40.1447 23.4422 39.0301 16.9993 36.85C16.3788 38.4447 15.8872 40.0866 15.5293 41.76C23.7226 44.0333 29.8793 48.2833 33.9993 54.51C34.9554 54.9452 35.9938 55.1704 37.0443 55.1704C38.0948 55.1704 39.1332 54.9452 40.0893 54.51C44.0893 48.2833 50.2426 44.0333 58.5493 41.76" fill="#21529A" style="fill:#21529A;fill:color(display-p3 0.1294 0.3216 0.6039);fill-opacity:1;"/>
<path fill-rule="evenodd" clip-rule="evenodd" d="M23.51 29.1V24.17C23.51 23.9048 23.6154 23.6504 23.8029 23.4629C23.9904 23.2754 24.2448 23.17 24.51 23.17C24.7752 23.17 25.0296 23.2754 25.2171 23.4629C25.4046 23.6504 25.51 23.9048 25.51 24.17V29.44C25.5054 29.5392 25.4852 29.6371 25.45 29.73C26.868 30.1393 28.3067 30.4731 29.76 30.73V24.73C29.76 24.4648 29.8654 24.2104 30.0529 24.0229C30.2404 23.8354 30.4948 23.73 30.76 23.73C31.0252 23.73 31.2796 23.8354 31.4671 24.0229C31.6546 24.2104 31.76 24.4648 31.76 24.73V30.88C31.7647 30.9265 31.7647 30.9735 31.76 31.02C33.13 31.2 34.56 31.34 36.05 31.42V25.28C36.05 25.0148 36.1554 24.7604 36.3429 24.5729C36.5304 24.3854 36.7848 24.28 37.05 24.28C37.3152 24.28 37.5696 24.3854 37.7571 24.5729C37.9446 24.7604 38.05 25.0148 38.05 25.28V31.48H39.44H42.31V25.84C42.31 25.5748 42.4154 25.3204 42.6029 25.1329C42.7904 24.9454 43.0448 24.84 43.31 24.84C43.5752 24.84 43.8296 24.9454 44.0171 25.1329C44.2046 25.3204 44.31 25.5748 44.31 25.84V31.5H48.56V26.4C48.56 26.1348 48.6654 25.8804 48.8529 25.6929C49.0404 25.5054 49.2948 25.4 49.56 25.4C49.8252 25.4 50.0796 25.5054 50.2671 25.6929C50.4546 25.8804 50.56 26.1348 50.56 26.4V31.5H57.32V19.34H39.4C26.86 19.34 16.75 15.6 16.75 11V23.15C16.75 25.48 19.33 27.59 23.51 29.15" fill="#21529A" style="fill:#21529A;fill:color(display-p3 0.1294 0.3216 0.6039);fill-opacity:1;"/>
</svg>
